<svg enable-background="new 0 0 512 512" height="512" viewBox="0 0 512 512" width="512" xmlns="http://www.w3.org/2000/svg"><g fill="#ff5024"><path d="m90.5 364.1v-158.3h-90.5v-50.3h242.5v50.3h-90.5v158.3z"/><path d="m389.7 369.1c-29.3 0-53.7-4.1-73.2-12.4-19.5-8.2-34.2-20.4-43.9-36.5-9.8-16.1-14.6-36-14.6-59.8 0-34.8 11.2-61.6 33.7-80.4s55.3-28.2 98.4-28.2c24 0 45.2 3.6 63.5 10.8s32.6 17.4 42.9 30.5 15.4 28.6 15.4 46.5h-60.4c0-8.7-2.6-16.2-7.8-22.4s-12.5-11-21.8-14.3c-9.4-3.4-20.2-5-32.6-5-14.6 0-27 2.5-36.9 7.5-10 5-17.5 11.9-22.7 20.6s-7.8 18.9-7.8 30.5v7.6c0 11.6 2.6 21.8 7.8 30.7 5.2 8.8 12.7 15.8 22.6 20.7 9.9 5 21.9 7.5 36.2 7.5 13.4 0 25-1.6 34.6-4.7 9.7-3.2 17.1-7.8 22.3-13.9s7.8-13.4 7.8-22h58.8c0 17.3-5 32.4-14.9 45.5-10 13-24.1 23.1-42.3 30.4-18.2 7.2-39.9 10.8-65.1 10.8z"/></g></svg>