<svg viewBox="0 0 24 24" xmlns="http://www.w3.org/2000/svg" fill="currentColor"><path d="m8.7 18c0 .1-.1.1-.2.1s-.2-.1-.2-.1c0-.1.1-.1.2-.1.1-.1.2 0 .2.1zm-1.3-.3c0 .1.1.1.1.2.1.1.2 0 .3-.1 0-.1-.1-.1-.1-.2-.1.1-.3.1-.3.1zm1.8 0c-.1 0-.2.1-.2.2s.1.1.2.1.2-.1.2-.2 0-.1-.2-.1zm2.7-15.5c-5.6 0-9.9 4.3-9.9 9.9 0 4.5 2.8 8.3 6.9 9.6.5.1.7-.2.7-.5s0-1.6 0-2.5c0 0-2.9.6-3.4-1.2 0 0-.4-1.1-1.1-1.5 0 0-.9-.6.1-.6 0 0 1 .1 1.6 1.1.7 1.5 2.2 1.1 2.8.8.1-.6.4-1.1.6-1.4-2.3-.3-4.5-.6-4.5-4.4 0-1.1.3-1.6.9-2.4 0-.2-.4-1.3.1-2.6.9-.3 2.8 1.1 2.8 1.1.8-.2 1.6-.4 2.5-.4s1.7.1 2.5.4c0 0 1.9-1.4 2.8-1.1.6 1.4.2 2.5.1 2.7.6.7 1.1 1.3 1.1 2.4 0 3.9-2.4 4.2-4.6 4.4.4.3.7.9.7 1.9v3.4c0 .3.2.6.7.5 4.1-1.3 6.8-5.1 6.8-9.6-.1-5.7-4.7-10-10.2-10zm-6 14c-.1.1-.1.1 0 .2s.1.1.2.1c.1-.1.1-.1 0-.2-0-.2-.1-.2-.2-.1zm-.4-.4c0 .1 0 .1.1.1.1.1.1 0 .1 0 0-.1 0-.1-.1-.1 0-.1-.1 0-.1 0zm1.3 1.4c-.1.1-.1.1.1.3.1.1.2.1.3.1.1-.1 0-.1-.1-.3-.2-.1-.2-.1-.3-.1zm-.4-.5c-.1.1-.1.1 0 .2 0 .1.1.1.2.1.1-.1.1-.1 0-.3-.1 0-.2-.1-.2 0z"/></svg>