<svg viewBox="0 0 24 24" xmlns="http://www.w3.org/2000/svg"><path d="m12 3c.5 0 .8.4.8.8v1.7c0 .5-.4.8-.8.8-.5 0-.8-.4-.8-.8v-1.7c0-.4.3-.8.8-.8zm0 14.6c.5 0 .8.4.8.8v1.7c0 .5-.4.8-.8.8-.5 0-.8-.4-.8-.8v-1.7c0-.4.3-.8.8-.8zm0-9c-1.9 0-3.4 1.5-3.4 3.4s1.5 3.4 3.4 3.4 3.4-1.5 3.4-3.4-1.5-3.4-3.4-3.4zm6.4-1.8c.3-.3.4-.9 0-1.2-.3-.3-.9-.4-1.2 0l-1.2 1.2c-.3.3-.3.9 0 1.2s.8.3 1.2 0zm-10.4 10.4c.3-.3.4-.9 0-1.2-.3-.3-.9-.4-1.2 0l-1.2 1.2c-.3.3-.3.9 0 1.2s.8.3 1.2 0c0 0 1.2-1.2 1.2-1.2zm13-5.2c0 .5-.4.8-.8.8h-1.7c-.5 0-.8-.4-.8-.8s.4-.8.8-.8h1.7c.4 0 .8.3.8.8zm-14.6 0c0 .5-.4.8-.8.8h-1.8c-.4 0-.8-.3-.8-.8s.4-.8.8-.8h1.7c.5 0 .9.3.9.8zm10.8 6.4c.3.3.9.3 1.2 0s.3-.8 0-1.2l-1.2-1.2c-.3-.3-.9-.4-1.2 0-.3.3-.4.9 0 1.2zm-10.4-10.4c.4.3.9.3 1.2 0s.3-.8 0-1.2l-1.2-1.2c-.3-.3-.8-.3-1.2 0s-.3.9 0 1.2z"/></svg>