<svg viewBox="0 0 4752 2016" xmlns="http://www.w3.org/2000/svg" fill="#fff"><path d="m2521.1 78.1c-.9-1.4.4-5.4 1.8-6.8 1.8-1.9 5.2 0 6.8 1.9 1.8 2.2 1.7 5.3-.9 6.3-2 .9-6.7.3-7.7-1.4z"/><path d="m2466 119.9c-.1.3-.4.8-.7.8-.4-.1-.3-.9-.1-1.3.2-.5.4-.7.8-.4.3.2.1.5-0 .9z"/><path d="m2378.5 118.5c-.4.8.1 1.7-.9 1.5-1.4-.2-1.8-1.5-1.4-2.8.4-1.5 1.7-2.1 2.9-1.3 1 .8-.2 1.6-.6 2.6z"/><path d="m2282.9 366.5c.8 0 1.3 1.7 1.5 2.6.3 1.2-.5 1.2-1.7 1.4-1.4.2-1.2.3-1-1 .2-1 .2-3 1.2-3z"/><path d="m1972.4 35c-.7 1-2.4.3-3.8-.2-1.8-.6-3.1-2.3-2.3-4 .9-1.9 4.7-3 6.1-1.7 1.2 1.2.8 4.7 0 5.9z"/><path d="m1960.3 337.8c.2 1.6-.7 1.9-2.5 2.6-2.3 1-2.7 0-3.3-2.3-.7-2.7-.5-2.3 2.2-2.2 2.1.1 3.3-0 3.6 1.9z"/><path d="m1825.3 93.6c1 .9 0 1.4-.8 2.8-1 1.8-3.3 4.5-4.9 3.4-1.8-1.3-.7-5.7 1-7 1.4-1.2 3.5-.3 4.7.8z"/><path d="m1777.1 16.2c-.2-.7.9-1.6 1.7-2.1 1-.7 2.8-.6 3.3.4.6 1.1-.8 2.8-2 3-.9.1-2.7-.5-3-1.3z"/><path d="m1680.4 183.1c-.4-1.1-.4-3.5.8-4.3 1.5-1.1 2.9 1.4 3.7 2.9 1 1.7 1.3 3.2-.5 3.5-1.5.3-3.5-.8-4-2.1z"/><path d="m1162.6 283.4c.2 1.7 1.2 4.8-.7 5.5-2.5.9-3.8-3.1-4.4-5.5-.6-2.8-.4-3.6 2.3-3.4 2.3.1 2.6 1.4 2.8 3.4z"/><path d="m1062 89.5c-.1.2-.4.1-.7 0-.4-.1-.3-.2-.2-.6.2-.4.1-.4.5-.2.3.3.6.6.4.8z"/><path d="m980.5 229.1c-.5-.2-1.6-.4-1.5-1 .1-.8 1.7-1.6 2.4-1.4.8.2.6 1.1.2 1.8-.4.6-.6.8-1.1.6z"/><path d="m903.4 33.7c-.7.2-2 1.4-2.4.6-.5-1 .9-2.5 1.9-2.9 1.1-.5 2.7.2 2.8 1.3.1 1-1.5.8-2.3 1z"/><path d="m706.4 238.3c-.3-1.2-.5-1.1.8-1.8 1.7-.9 4.1-1.2 4.7.5.8 2-1.4 5.7-3.4 5.8-1.7.1-1.8-3-2.1-4.5z"/><path d="m661.6 326.9c.2-.1.7 0 .8.2.2.2-.2.6-.5.7-.3.2-.7.2-.7-.1-.1-.2.1-.7.4-.8z"/><path d="m575.8 186.8c-.3-1-1-1 .1-1.6 1.4-.8 2.5-.5 3.1.9.7 1.6-.2 2-1.9 2.2-1.4.1-.9-.3-1.3-1.5z"/><path d="m443.6 133.1c-.3.1-1 .3-1.2-.1-.3-.4.2-1.7.6-1.9.5-.2 1.3.5 1.4 1-0 .5-.4.8-.8 1z"/><path d="m399.1 214.7c1.3-1.4 3.2-1.5 5.2-.5 2.6 1.3 1.1 3.3-.4 5.6-1.8 2.6-1.5 2.4-3.4 0-1.6-2-2.9-3.5-1.4-5.1z"/><path d="m364.7 295c-.3.4-1 .6-1.5.3-.7-.3-.5-1.2-.1-1.8.5-.7 1.3-1.1 1.9-.5.4.6.1 1.6-.3 2z"/><path d="m224.7 202.1c.8.4 1.2 1.2 1 2.2-.3 1.3-1.3.8-2.5.4-1.4-.5-2.9-1.5-2.1-2.6.5-1 2.7-.5 3.6 0z"/><path d="m133.3 294.5c-.4-.4-.3-1.9.1-2.5.5-.8 1.8-.3 2.5.3.8.7.5.9-.3 1.5-.7.4-1.8 1.2-2.3.7z"/><path d="m92.1 47.6c0-.7-.5-1 .3-1.2 1-.3 1.3.4 1.5 1.4.2 1.1-.2 1.9-1.3 1.7-1-.1-.5-1.1-.5-1.9z"/><path d="m6.4 386.1c-.3.3-.8-.1-1.3-.4-.6-.3-.4-.5 0-1 .4-.6.8-.9 1.2-.3.3.5.4 1.3.1 1.7z"/><path d="m2891.4 1945.7c.1-.3.3-.9.7-.8.5 0 .9 1 .8 1.4-.1.5-.6.3-1.1 0-.3-.2-.5-.2-.4-.6z"/><path d="m2831.8 1719.3c.6-.5 2.2-1.1 2.9-.5.9.7-.4 2.4-1.2 3.2-.9.9-2.3 1.6-2.9.5-.5-1.1.4-2.7 1.2-3.2z"/><path d="m2743.7 1707.3c-.5 1.8-1.7 6-3.9 6-2.9-.1-7.1-6.3-6.7-9 .5-3.2 5.7-3.6 8.4-2.3 2.2 1.1 2.8 3.2 2.2 5.3z"/><path d="m2657.2 1770.8c.3 1.3-1 4.2-2.4 4.9-1.8 1-6.4-.7-7.1-2.5-.8-2.1 2.3-4.4 4.4-4.6 1.8-0 4.7.7 5.1 2.2z"/><path d="m2580.1 1667.2c-1.1.2-1.3-1.4-1.8-2.6-.7-1.6-.2-1.7 1.4-2.2 1.8-.5 4-.3 4 1.5-.1 1.5-2.3 3.1-3.6 3.3z"/><path d="m2542.2 1927.3c-.1-.5-.1-1.6.4-1.9.6-.4 1.4.8 1.7 1.4.3.8.2.6-.6.7-.6.1-1.3.4-1.5-.2z"/><path d="m2246.8 1676.4c0 .2.2.4-.1.5s-.5-.3-.5-.5c0-.3.2-.8.5-.7.2 0 .1.5.1.7z"/><path d="m2181.8 1570.8c-.2.3-.3.2-.8 0-.6-.2-1.3-.7-1.1-1.2.3-.6 1.3-.5 1.8 0 .4.3.3.8.1 1.2z"/><path d="m2151.3 1833.1c-.2.6-1.1.4-1.8.3-1-.1-1.4-.7-1.1-1.6.3-1 1.6-2.1 2.4-1.5.7.3.8 2.1.5 2.8z"/><path d="m2063.9 1911.5c1.7-.3 2.6-.6 3.5 1.3 1.1 2.5.3 6.5-2.2 7.2-2.9.8-6.9-2.7-6.8-5.6 0-2.3 3.4-2.6 5.5-2.9z"/><path d="m1979.4 1621.6c-.2-.1-.7-.3-.6-.5.1-.3 1-.5 1.2-.3.3.2.1.8-.2 1-.1.2-.2 0-.4-.2z"/><path d="m1892 1495.5c-.9 2.7-5.9 3.1-9.3 2.9-4.4-.3-4.4-4-3.5-8.1 1-4.8 2.5-6.1 6.6-3.9 3.3 1.8 7.3 5.9 6.2 9.1z"/><path d="m1606 1850.7c-1 1.6-4.6.5-6.7-.2-2.7-.9-2.8-3.3-1.6-5.7 1.4-2.9 5.4-5.7 7.6-3.6 1.9 1.7 1.9 7.7.7 9.5z"/><path d="m1574.2 1745.4c-1-1.5.4-3.6 1.9-5.2 1.8-2 2.9-.3 4.5 1.7 1.9 2.3 3.9 6.1 1.3 7.2-2.1 1-6.5-2-7.7-3.7z"/><path d="m1530.8 1622.3c.5.3.3 1.4.2 2-.2.8-.9 1-1.7.7-.9-.3-1.6-1.4-1.1-2.1.4-.5 2-.9 2.6-.6z"/><path d="m1442.2 1963.7c-.4-.8-1.5-2.1-.7-2.8 1-.9 2.7.4 3.5 1.5.9 1.2.4 1.1-.9 1.6-1.1.3-1.4.6-1.9-.3z"/><path d="m1360.6 1641.6c-.9-1.4-1.6-1.4-.3-2.9 1.7-1.9 5.4-3.5 7-1.7 1.9 2.1-1.4 4.1-3.8 5.2-2 .9-1.8 1.1-2.9-.6z"/><path d="m1268.5 1831.6c-.2.6-.3 1.2-1.1 1.1-1-.1-1-1.1-.8-2 .3-1 .6-1 1.4-.4.8.4.8.6.5 1.3z"/><path d="m1178.9 1618c2.5 1 5.3 7.4 4.9 10.6-.5 4.2-7.4 4.6-11.3 3.5-4.5-1.2-7-4.7-4.7-8.4 2-3.1 8.1-7 11.1-5.7z"/><path d="m1061.2 2105.7c-.3 0-.9.1-1-.3-.2-.4.4-1.2.9-1.3s1 .4 1 .9c-.1.5-.5.7-.9.7z"/><path d="m820.6 1990.4c0-.4.1-.6.6-.7.6-.2 1.5 0 1.6.6.1.7-.7 1.5-1.4 1.4-.5-.1-.7-.8-.8-1.3z"/><path d="m798.2 1889.7c1.3 1.2.7 5-.3 6.8-1.3 2.4-4.9 2-7 .6-2.4-1.7-3.6-6.1-1.4-7.7 2-1.4 7.2-1.1 8.7.3z"/><path d="m556.7 1765.1c.7 1.7 3.9 4.5 2.2 5.8-2.2 1.7-5.6-2-6.9-4.3-1.6-2.6-.8-2.3 2-3 2.3-.5 1.8-.5 2.7 1.5z"/><path d="m487.5 1841.8c1.4 1 1.6 3.7.8 5.6-1 2.5-3.5 1.2-5.6-.1-2.5-1.5-5.1-4.2-3-6.1 1.6-1.7 6.1-.7 7.8.6z"/><path d="m452.9 1932c-.1-1.4 2.3-1.7 4-2.3 2.1-.7 5.3-.6 5.7 1.5.5 2.4-2.9 6-5.2 5.8-2-.2-4.4-3.3-4.5-5z"/><path d="m313.7 1490.6c1-1.4.3-3 2.3-2.2 2.6 1 2.2 2.8 1 5.1-1.4 2.6-4.3 4.6-6.3 2.6-1.6-1.8 1.8-3.8 3-5.5z"/><path d="m267.4 1881.2c1.1 0 2 1.8 2.3 3.1.4 1.7-.9 4.4-2.5 4.5-1.9.2-1.7-2.2-1.3-4 .3-1.4.2-3.6 1.5-3.6z"/><path d="m249.7 1658.4c-.3-1.4-1-2.1.5-2.9 2-1 4.2 0 4.9 1.9.8 2.3-.8 6.2-3.1 6.3-1.9.1-1.9-3.7-2.3-5.3z"/><path d="m239 1751.9c.5.2 1.2.2 1.1.9-.1.9-1.3 2.1-2.1 1.9-1-.2-1.1-1.8-.6-2.6.4-.7 1-.4 1.6-.2z"/><path d="m174.5 1471.5c-1.9.9-3.4-.5-5.1-2.4-2.2-2.4-.5-3.3 2.1-5 2.9-2 6.1-3.1 7.1.1.8 2.7-1.9 6.2-4.1 7.3z"/><path d="m28.3 1663.2c-.1.3-.5.3-.8.3-.4 0-.9-.4-.8-.8s.6-.3.9-.1c.4.2.8.3.7.6z"/><path d="m2815.1 42.1c.6-.1.5 1.1.8 1.8.3.9.4 1.5-.5 1.7-1 .2-1.4-.5-1.3-1.5-.1-.7.2-1.9 1-2z"/><path d="m2753.3 628.6c.2.5-.1.3-.6.6-.6.4-.9.6-1.2-.1-.4-.7-.1-1.4.7-1.6.6-.1.9.5 1.1 1.1z"/><path d="m2709.5 428.7c-1.1.5-3.7 2.1-4.6 1-1.2-1.5.5-6 2-6.9 1.8-1.1 2.8 1.4 3.3 3.3.4 1.5.7 2-.7 2.6z"/><path d="m2640.1 502.8c-1.1-2.3 1.8-6.5 4.1-8.5 3.1-2.5 9.5-1.7 11.4 1.5 2.3 3.7-.4 11.9-4.4 12.9-3.2.9-9.9-3.2-11.1-5.9z"/><path d="m2633.6 700.8c0-.8 1.3-2.4 2.3-2.7 1.3-.4 2.8 1.5 3 2.7.2 1.4-1.1 2.2-2.4 2-1.1-.1-2.9-1-2.9-2z"/><path d="m2523.2 18.1c-.6-.1-.3-.2-.3-.9 0-.9 0-.9.9-.8 1 .1 1.4.3 1.1 1.2-.4.7-1 .6-1.7.5z"/><path d="m2484.9 282.4c.9.6 2.8 1.6 2.4 2.7-.6 1.5-3.8 1.8-5.2 1.1-1.6-.8-1.3-2.7-.1-3.9 1-.9 1.9-.6 2.9.1z"/><path d="m2362.5 262.4c-.4-.6.5-1 1.1-1.7.8-.8 1.9-1.4 2.6-.6.8 1-.3 1.6-1.5 2.1-.8.4-1.8 1-2.2.2z"/><path d="m2291.3 465.9c-1.1-.1-2.1-1.8-2.3-3.1-.3-1.8 1.5-2.6 3.2-2.6 2 0 3.2 1.1 2.7 2.9-.5 1.4-2.3 2.9-3.6 2.8z"/><path d="m2253.8 102.5c-.8-1.3-1.7-.8-.5-2.1 1.6-1.6 2.2-1 3.5.7 1.6 2 1.9 3.3-.3 4.2-1.8.7-1.8-1.3-2.7-2.8z"/><path d="m2182.2 283c-2.1.9-4.5-2.4-6.1-4.6-2.2-2.8-.6-4.1 2.3-5.8 3.3-2 7.7-2.6 8.6 1 .7 3-2.3 8.4-4.8 9.4z"/><path d="m2100.4 548.2c.5-.1 1 .7 1.3 1.3.3.7.1 2.3-.7 2.5s-1.7-1.1-1.7-2c-0-.7.5-1.7 1.1-1.8z"/><path d="m2057.4 285.3c-1.8-.4-4.5-4.4-4.6-6.6-.2-2.9 4.5-4.5 7.2-4.3 3.2.2 4.3 2.5 3.2 5.3-.9 2.3-3.6 6.1-5.8 5.6z"/><path d="m1905.5 56.2c.2-1.2-.1-1 1.4-1.2 1.9-.2 3.6.3 3.6 2.1-.1 2.1-2.1 2.4-4 1.7-1.6-.5-1.3-1.2-1-2.6z"/><path d="m1876.4 489c-1.3.7-2.1-.8-3.3-2.1-1.6-1.6-2.3-3.9-.6-5.1 2-1.5 4.9 0 5.7 2.2.7 1.8-.3 4.2-1.8 5z"/><path d="m1826.8 306.6c.1-1.5.4-1.3 2.1-1.6 2.2-.5 3.9 0 4.1 2.2.2 2.5-1.9 3.5-4.2 3-1.9-.5-2.1-1.9-2-3.6z"/><path d="m1808.7 634.5c0-.3-.1-.2.3-.3.5-.1 1.2-.2 1.2.3.1.6-.8 1.4-1.3 1.3-.4-.1-.2-.9-.2-1.3z"/><path d="m1742.5 445.9c1.6-1.6 7.1-4.1 9.5-2.8 3.1 1.8.3 8.4-1.8 11.1-2.4 3.1-4.9 3.4-7.1.4-1.8-2.4-2.5-6.7-.6-8.7z"/><path d="m1703.3 675.1c1.8.4 1.6 2.3 1.7 4.5.2 2.9-1 3.3-3.7 3.1-3.2-.2-6.1-2-5-4.8.9-2.3 4.8-3.2 7-2.8z"/><path d="m958.2 1391.9c-1.9.9-3.8 2.5-5.5.6-2.1-2.5-.7-7 1.9-8.7 3-2 3.9.7 4.8 4 .8 2.7 1.1 3-1.2 4.1z"/><path d="m1657.8 479.7c.3 2-3.3 5.2-5.5 6.1-2.9 1.2-7.2-1.7-7.9-4.6-.9-3.3 2.2-3.5 5.5-3.3 2.7.1 7.6-.5 7.9 1.8z"/><path d="m1616.9 155.3c-1.6-.4-2.6-.6-2.6-2.5-.1-2.5 1.9-3.6 4.3-3.4 2.7.3 5.1 2.6 4.1 5-.8 2-3.9 1.3-5.8.9z"/><path d="m1487.6 443.7c-.6-.4-.4-2.2-.1-3 .4-1.1 2.3-2.2 3.3-1.7 1.2.6.7 2.5-.2 3.4-.7.7-2.3 1.8-3 1.3z"/><path d="m1325.4 249c-.9-1.4-3.8-3.1-2.5-4.5 1.7-1.9 4.7.8 6.2 2.6 1.8 2.1 2 3.2-.5 4.3-2 .9-2.1-.7-3.2-2.4z"/><path d="m1236.8 14.3c.8.4.4.2.1 1.2-.4 1.3-.4 1.5-1.6 1-1.4-.6-2.9-2.3-2-3.4.7-.9 2.5.6 3.5 1.2z"/><path d="m1090.4 156.9c-1.3-.5-.4-2.8-.2-4.5.3-2.2 1.9-5.1 3.9-4.6 2.3.6 2.4 4.5 1.2 6.5-1 1.6-3.3 3.2-4.9 2.6z"/><path d="m1001.7 279.2c.3-.1.8 0 1 .3.2.4-.4.8-.8 1s-1 .1-1-.4c-.1-.5.4-.8.8-.9z"/><path d="m865.1 426.5c-.5-.4-.7-1.6-.5-2.3.4-.9 2-1 2.7-.6.9.5 1.5 2.3.8 3-.6.6-2.4.3-3-.1z"/><path d="m839.5 474.7c-.7-1.6-3.2-4.6-1.6-5.9 2.1-1.7 7.1.9 8.4 3 1.6 2.5-.6 3.8-3.4 4.5-2.2.6-2.6.2-3.4-1.6z"/><path d="m772.6 331c-.2.4-.7.1-1.3-.1-.7-.2-1.8-.8-1.5-1.4.3-.8 1.6-.6 2.3-.1.5.5.8 1.1.5 1.6z"/><path d="m583.2 256.8c.3-.9 1.1-1.8 2.3-1.7 1.5.1 3.5 2.1 3.2 3.5-.3 1.6-3.1 2.2-4.5 1.4-1.2-.6-1.4-2.1-1-3.2z"/><path d="m560.3 489.9c.8.2.8 1.6.9 2.5.1 1.3-.7 1.1-1.9 1-1.4-.1-1.4 0-.9-1.2.5-1 1-2.5 1.9-2.3z"/><path d="m473.7 415c.7-.1.5.1.8.8.4 1 .4 1.5-.6 1.8-1.1.3-1.9-.3-1.9-1.4.1-.9.9-1 1.7-1.2z"/><path d="m398.2 615.3c0-.1 0-.1.2-.1.2-.1.5-.1.5.1s-.3.4-.5.4-.2-.2-.2-.4z"/><path d="m305.4 521.3c-.3-.2-.5-.9-.4-1.2.1-.4.9-.3 1.3-.1.5.2.3.2 0 .6-.3.3-.6.9-.9.7z"/><path d="m273.7 343.6c-.5-.1-.3-.3-.3-.9 0-.7.2-1.6.9-1.6.8.1.7 1 .4 1.7s-.4.9-1 .8z"/><path d="m148.8 114.7c-1.6-1.2-2-.5-1.1-2.7 1.1-2.9 3.2-4.7 5.8-3.3 3 1.6 4 6.6 1.7 8.8-2 1.8-4.5-1.5-6.4-2.8z"/><path d="m97.7 482.9c-1.5.7-4.5.3-5.8-1.2-1.7-2-.9-7.2 1.2-8.6 2.4-1.6 6.1 1.2 6.8 3.9.6 2.1-.4 5-2.2 5.9z"/><path d="m39.5 656.9c.9-.4 2.2-2.2 2.9-1.3 1 1.1-.9 2.8-2.1 3.6-1.4.9-2 .9-2.5-.6-.4-1.2.6-1.2 1.7-1.7z"/><path d="m-9.8 452.4c.2.5-.2 1-.7 1.4-.6.5-.9 0-1.3-.6-.5-.7-.8-1.9 0-2.1.6-.3 1.7.7 2 1.3z"/><path d="m2878.4 724.7c.6 1.1 1.7 2.5.6 3.6-1.4 1.4-5.2 1.2-6.3-.3-1.3-1.7.3-5 2.2-5.7 1.6-.6 2.8 1.1 3.5 2.4z"/><path d="m2811.4 740.4c0 .1.1.2 0 .3s-.3 0-.3-.1c-.1-.1 0-.1.1-.2 0 0 .1-.1.2 0z"/><path d="m2717 787.4c.8-.7 1.6-2.7 2.6-2 1.3.9.1 3.2-.9 4.3-1.1 1.3-2.7 1.8-3.6.4-.7-1.1 1-1.9 1.9-2.7z"/><path d="m2704.4 829.7c-.1-.2.2-.3.4-.5.3-.2.6-.3.8 0s0 1-.3 1.1-.8-.3-.9-.6z"/><path d="m2668.2 553.7c1.8-1 3.4 3.6 5 5.4 2.1 2.3 5 6.9 2.6 8.6-2.8 2-8.1-2-9.2-5.1-.8-2.6-.5-7.8 1.6-8.9z"/><path d="m2582.3 542c.3-.1.4.4.7.8.3.5.6 1.2.1 1.4-.5.3-1.7-.3-1.8-.9-.1-.4.6-1.1 1-1.3z"/><path d="m2496.4 810.6c.3-1.3 2-.9 3.6-1 2.1 0 4.2 1 4 2.9-.2 2.2-3 2.8-5 1.9-1.5-.7-2.9-2.3-2.6-3.8z"/><path d="m2457.9 144c-.3-1.1.2-3 1.4-3.7 1.5-.9 4.6.4 5.2 2 .8 1.8-1 4.6-2.9 4.8-1.5-0-3.3-1.8-3.7-3.1z"/><path d="m2368.9 727.4c-.1.5-.1.8-.7.8-.8 0-2.1-.8-2-1.5.1-.9 1.7-1.1 2.5-.8.6.3.3.9.2 1.5z"/><path d="m2350.9 43.1c-1.2-.1-.7-1-1-2.4-.3-1.8 0-1.6 1.7-1.7 2-.1 4 .5 3.5 2.3-.4 1.5-2.8 2-4.2 1.8z"/><path d="m2294.7 225.8c-1.3.3-.9-.8-1.6-2.2-.9-1.8-1.4-3.7.4-4.4 2.1-.7 2.7 1.4 2.8 3.5.1 1.8-.1 2.8-1.6 3.1z"/><path d="m2260.2 977.7c.3 1.2 1.3 3.1 0 3.8-1.7 1-5.2-.6-5.9-2.3-.8-2 1.5-2.9 3.6-3.1 1.6-.1 1.9.1 2.3 1.6z"/><path d="m2202.3 477c-1-1.9-4.9-4.3-3-6.1 2.5-2.3 5.6 1.8 7.4 4.5 2.1 3 3.8 7.8.5 8.9-2.7.9-3.6-5-4.9-7.3z"/><path d="m2113.5 877.9c-1.8-.3-.5-3.2-.7-5.3-.2-2.8.2-5.3 2.9-5.1 3.1.2 2.4 2.8 1.4 5.5-.9 2.2-1.5 5.3-3.6 4.9z"/><path d="m2054.5 432.8c-.1-1.6-.9-1.3.8-1.9 2.3-.8 2.7-.2 3.2 2.1.5 2.6.1 2.2-2.5 1.9-2-.3-1.4-.2-1.5-2.1z"/><path d="m1406.1 41.9c.1 1-.8 3.3-2 3.7-1.5.6-4.5-1.4-4.9-2.9-.4-1.7 1.8-3.9 3.5-3.8 1.4.1 3.2 1.8 3.4 3z"/><path d="m1966 930.5c.4-.1.9-.4 1.1 0 .3.6 0 1.7-.6 2-.7.3-1.3-.5-1.4-1.2-.1-.6.4-.7.9-.8z"/><path d="m1935.5 516.1c1.6-.5 1.6 1.7 2.7 3.4 1.4 2.2 1.2 2.2-1 3.2-2.6 1.3-2.5 1.1-3-1.6-.2-2.1-.6-4.4 1.3-5z"/><path d="m1900.2 614.5c-.2 0-.4-.5-.5-.8-.1-.4.1-1 .5-1 .4-.1.8.6.7 1-.1.2-.4.8-.7.8z"/><path d="m1840.8 525.4c0 .8-.4.6-1.3.8-1.2.3-2.1.1-2.2-1-.1-1.3 1-1.8 2.2-1.5 1 .1 1.3.8 1.3 1.7z"/><path d="m1758 482.7c.5 0 1.2.9 1.4 1.4.2.7-.8 2.1-1.5 2.1-.8.1-1.2-1.2-1-2 .1-.5.6-1.5 1.1-1.5z"/><path d="m1742.1 315c-.6.2-1-.4-1.4-1.1-.5-.9-.3-1.9.6-2.2 1-.4 1.8.3 1.9 1.4.1.9-.3 1.7-1.1 1.9z"/><path d="m1647.7 170.3c.2-.7.6-1 1.5-1 1.1 0 2.7 1.1 2.6 2.1-.2 1.2-1.8.7-2.9.2-.9-.4-1.4-.5-1.2-1.3z"/><path d="m1583.1 246.9c-.1-.2.3-.6.5-.8.3-.3 1-.6 1.2-.3.3.3-.3.7-.7.9-.3.1-.8.5-1 .2z"/><path d="m1489.2 963.3c-1.2-.1-2.3-.1-2.5-1.5-.3-1.8 1.4-1.9 3.2-2 2-.1 3.4.3 2.9 2.2-.5 1.5-2.2 1.4-3.6 1.3z"/><path d="m1430.3 1028.2c.5 1.9 0 2.6-2.1 3.7-2.7 1.4-7.3 1.5-8.3-1.3-1.2-3.1 3-5.1 6.2-5.3 2.5-.2 3.6.6 4.2 2.9z"/><path d="m1326.3 540c.8-.3 1.2.6 1.8 1.3.7 1 .4 1.6-.7 2.1-1.2.6-2.8.5-3-.7-.2-1 1-2.3 1.9-2.7z"/><path d="m1256.1 598.4c-.4.7-.5 2.4-1.4 2.2-1.2-.3-2.4-2.9-2-4 .5-1.3 3.1-1.8 4.2-1 .8.7-.4 2-.8 2.8z"/><path d="m1229.3 494.6c-.5-.4-.1-1.6.2-2.3.4-.8 2-1.6 2.8-1.1.9.6.3 2.3-.4 2.9-.7.5-2.1.9-2.6.5z"/><path d="m1190.6 1025.3c.9-.2 2.4-1.4 3-.4.7 1.3-.3 4.8-1.6 5.3-1.5.6-4.6-1.7-4.7-3.3-.1-1.2 2.2-1.3 3.3-1.6z"/><path d="m1085.8 1023.6c.9-2.1 4.7-.6 7.3-.2 3.5.5 8.2 3.2 7.3 6.4-1 3.7-9.2 6.5-12.2 4.5-2.6-1.6-3.5-8.2-2.4-10.7z"/><path d="m1055.3 519.9c.2.6.5 1.1-.1 1.5-.8.5-2.2 0-2.5-.8-.4-1 .6-1.6 1.6-1.7.7-.2.8.3 1 1z"/><path d="m999.5 233.7c.1.4.5 1.2.1 1.4-.5.3-1.5-.5-1.7-1.1s.3-1 .9-1c.5.1.6.3.7.7z"/><path d="m942 179c-.1 1.4.4 4.2-1.2 4.5-2.1.3-4.6-3.2-4.6-5.2-.1-2.3 1.9-1.7 4.1-1.2 1.7.5 1.9.3 1.7 1.9z"/><path d="m929.3 816.3c-2.1 1.6-4.7 1.8-7.2-.1-3.2-2.5-4.4-8.9-1.7-11.6 3.2-3.2 9.8-.9 11.8 2.9 1.7 3-.4 6.8-2.9 8.8z"/><path d="m901.5 658.4c.2.2.5 1 .2 1.3-.3.4-1.6.5-1.9.2-.4-.4-.2-1.6.3-1.8.4-.3 1.2 0 1.4.3z"/><path d="m854.1 605.6c1.3.2 2.4 1.1 2.5 2.6.2 2-1.8 3.2-3.7 3.1-2.2-.1-3-1.7-2.3-3.6.5-1.6 2-2.4 3.5-2.1z"/><path d="m769 146.6c-1-1.4-3.9-2.1-2.6-3.7 1.6-2.1 3.9.3 5.6 2.1 2 2.1 4.2 5.7 1.7 7-2 1.1-3.4-3.7-4.7-5.4z"/><path d="m751.4 618.4c-1.4-.4-1.9-.6-1.9-2.3 0-2.3 1.8-5.7 4-5.4 2.5.4 3.5 4.7 2.5 6.9-1 1.8-2.9 1.3-4.6.8z"/><path d="m694 513.5c-.9.2-2.8-.7-3.3-1.7-.7-1.3.8-3.3 2.1-3.8 1.5-.6 3.2.4 3.3 2 .1 1.3-1 3.2-2.1 3.5z"/><path d="m654.7 449.8c-.7-.3-.3-1.8-.2-2.7.2-1.2.8-1.2 1.9-.9 1.3.4.9.3.2 1.4-.5 1-1 2.6-1.9 2.2z"/><path d="m617.1 950.6c.4-.3.6.4 1.1.7.6.4 1 .9.6 1.4-.6.6-1.9.5-2.3-.1s.2-1.7.6-2z"/><path d="m538.2 224.9c-.9-.1-.6-1.8-.7-2.9-.2-1.4.3-1.7 1.6-1.7 1.5 0 2.1.7 1.7 2.1-.5 1.1-1.6 2.6-2.6 2.5z"/><path d="m489.9 973.4c-.9-.6.2-2.5.6-3.8.5-1.6 2-3.2 3.4-2.5 1.7.8 1.6 3.5.4 4.8-.9 1.2-3.3 2.3-4.4 1.5z"/><path d="m441.5 39.4c.1-.3.4-.4.7-.4.4 0 .5.3.5.7 0 .5-.2.6-.7.5-.3-.1-.5-.5-.5-.8z"/><path d="m394.8 647.3c-1.4-.4-1.2.5-1.1-1.2.1-2.3.8-5 3-4.7 2.5.4 2.5 3.7 1.4 5.8-.9 1.9-1.6.6-3.3.1z"/><path d="m364.5 96.3c.1 0 .2-.1.2 0 .1.2.2.6 0 .6-.2.1-.4-.2-.5-.4 0-.1.1-.1.3-.2z"/><path d="m321.4 962.8c.7 1-.4 1.4-1.3 2.6-1.2 1.5-1.4 1-2.6-.3-1.4-1.6-1.2-1.2.6-2 1.4-.7 2.4-1.5 3.3-.3z"/><path d="m236.1 779.5c1.6.4 4.6 2.2 4.6 4.1 0 2.5-4.3 2-6.7 1.7-2.8-.4-4.1-.7-3-3.1 1-1.9 3.3-3.2 5.1-2.7z"/><path d="m183.4 116.8c.1.4-.7.3-1.1.5-.6.3-1.7.5-1.8-.1-.2-.7.9-.9 1.6-.9.5.1 1.3 0 1.3.5z"/><path d="m150.6 460.6c.2.4 0 .7-.3 1.1-.4.5-.8.3-1.2-.2-.5-.6-.6-1.2 0-1.5.5-.2 1.2.2 1.5.6z"/><path d="m52.6 911c-.8 0-.5-.5-.7-1.5-.3-1.3-.3-2.9.9-3 1.4-.1 2.1 1.7 1.8 3.1-.2 1.1-1 1.5-2 1.4z"/><path d="m.2 1001.6c-1.8-.9-3-5.3-2.6-7.7.6-3.1 4.6-2.3 7.4-1.3 3.3 1.1 5.3 2.8 3.5 5.5-1.5 2.2-6.1 4.5-8.3 3.5z"/><path d="m4752.2 1001.6c-1.8-.9-3-5.3-2.6-7.7.6-3.1 4.6-2.3 7.4-1.3 3.3 1.1 5.3 2.8 3.5 5.5-1.5 2.2-6.1 4.5-8.3 3.5z"/><path d="m2900.2 959.5c-.9-1 1.3-2.3 2.2-3.6 1.1-1.8 3.3-4.2 4.8-2.9 1.8 1.5.8 6.1-1.1 7.3-1.5.9-4.8.4-5.9-.8z"/><path d="m2806.5 1385.8c-1.8.1-4.6-2.2-5.3-4.2-.9-2.6 2-7.5 4.5-8 3-.6 5.3 3.7 5 6.5-.2 2.3-2.1 5.6-4.2 5.7z"/><path d="m2794.6 1364.9c1 1.4-1 3.8-2.3 5.4-1.6 2.1-3.2 1.4-5-.4-2-2.1-2.5-4.4 0-5.7 2-1.1 6-1 7.3.7z"/><path d="m2745.9 1007.2c-.4.5-.1.8-.8.5-.9-.4-.9-.8-.4-1.7.6-1 1-1.1 1.8-.3.5.6-.1.8-.6 1.5z"/><path d="m2700.7 1149.7c.2.2 0 .9-.2 1.1-.3.3-1.2.3-1.5 0-.3-.4.1-1.1.5-1.3s1-.1 1.2.2z"/><path d="m2639.7 805.9c-.1 0 0-.3 0-.5s.1-.5.3-.5.2.4.1.6c-.2.1-.3.4-.4.4z"/><path d="m2613.1 930.7c-.1 1.7.5 4.6-1.5 5-2.5.5-3.8-3.3-4-5.7-.2-2.8 1.4-6.4 4.1-5.8 2.1.5 1.5 4.5 1.4 6.5z"/><path d="m2524.7 594.9c0-.2.3-.7.6-.7.3-.1.4.5.4.8 0 .4 0 .3-.3.3s-.8-.1-.7-.4z"/><path d="m2439.3 1336.2c-.5.2-1.3.6-1.6.1-.5-.7.6-1.2 1.3-1.6.8-.4 1.9-.7 2.1.2.1.7-1.2 1.1-1.8 1.3z"/><path d="m2381.3 553.3c-.4-.1-1.1-.5-1.1-.9 0-.6 1.1-.6 1.6-.5.6.1.5.2.2.8-.1.4-.3.7-.7.6z"/><path d="m2350.3 628.1c.1.7-.6 2.1-1.4 2.4-.9.4-2.2-.9-2.5-1.9-.3-1.1.4-2.8 1.5-2.8.9-0 2.3 1.5 2.4 2.3z"/><path d="m2321.8 857.3c-1.2-.2-2.7-.2-2.9-1.6-.2-1.8 2-3.1 3.8-3.1 2 .1 1.6 1.2 1 3-.5 1.6-.5 1.9-1.9 1.7z"/><path d="m2268.4 1047.8c.6.8-1.4 1.6-2.1 2.5-1 1.2-2.8 2.8-3.8 1.7-1.2-1.3-.1-4.8 1.3-5.5 1.2-.5 3.9.3 4.6 1.3z"/><path d="m2252.2 1279.1c-.1-.2-.1-.3 0-.4.2-.1.3.1.4.3.1.3.1.5-.1.5-.2.1-.2-.2-.3-.4z"/><path d="m2152.7 1082.6c-1.2-.1-3.1-2.4-3.3-3.8-.3-1.8 2.6-2.8 4.3-2.8 2 0 1.4.6.9 2.4-.4 1.5-.5 4.3-1.9 4.2z"/><path d="m1009.6 1832.3c1.9.3 4.3 1.2 4.6 3.5.3 3-3.3 5.4-6.2 5.3-3.3-.1-6.9-3.6-5.9-6.6.8-2.4 5.2-2.5 7.5-2.2z"/><path d="m535.7 45.7c-1.9-1-2.7-2.6-2.2-5.1.7-3.2 4.2-4.9 7.1-3.8 3.4 1.3 3.3 4.6 1.2 7.3-1.6 2.2-3.8 2.8-6.1 1.6z"/><path d="m2002 1415.8c-1.1-1-1.8-4.3-1-6 1.1-2.1 5.6-2.4 7.5-1.1 2.1 1.5.7 3.7-1.2 5.2-1.6 1.2-4 3.1-5.3 1.9z"/><path d="m1989.4 1228.6c-1.4.4-3.9 3-4.8 1.4-1.2-2 1.9-4.8 4-5.6 2.3-1 4.9-.2 5.1 2.2.1 2-2.6 1.5-4.3 2z"/><path d="m1960 1093.7c.8-1.3 2.9-4.2 4.7-3.7 2.3.7 4.7 6.6 3.7 8.7-1.1 2.4-6.7 2.7-8.6 1-1.5-1.3-.7-4.4.2-6z"/><path d="m1873.9 838.7c-2.3 1-5.9 4.3-7.7 2-2.4-3 2.9-6.1 6-8 3.7-2.1 3.3-2.4 4.2 1.5.8 3.2.2 3.3-2.5 4.5z"/><path d="m1782.7 689.4c.3 1.8-3.2 3.1-5.1 4-2.5 1.2-5 .1-5.7-2.4-.9-2.9 1.1-3.3 4-3.3 2.4 0 6.4-.4 6.8 1.7z"/><path d="m1726.4 1190.2c.2.6-.3 1-1 1.4-.9.5-2 .5-2.4-.4-.5-1 .4-2 1.4-2.2s1.8.4 2 1.2z"/><path d="m1678.1 1134.6c1.1.1 2.1.6 2.2 1.8.2 1.7-1.4 3.3-3 3.3-1.8 0-1.5-1.5-1-3.2.4-1.3.5-2.1 1.8-1.9z"/><path d="m1641.6 1964.7c-.8.1-1.1-.3-1.4-1.1-.5-1.1-.2-2.8.9-3.1 1.3-.3 2.8 1.3 2.8 2.5-.1 1-1.4 1.6-2.3 1.7z"/><path d="m1574.7 1085.8c-.9 1-2.7-1.2-4.1-1.9-1.9-1-2.1-1.6-.9-3.2 1.3-1.9 1.7-1.3 3 .5 1 1.4 3.1 3.4 2 4.6z"/><path d="m1508.4 724.3c-.4-.1-.2-.4-.2-.9.1-.6.3-.9.9-.8.7.2 1.1.8.8 1.4-.3.5-1.1.5-1.5.3z"/><path d="m1453.7 900.4c-.9-.4-2.9-1.6-2.7-2.8.3-1.5 3.4-1.9 4.8-1.4 1.6.5 2.9 2.6 2 3.9-.8 1.2-3 .8-4.1.3z"/><path d="m1355.3 480.1c-1.5-1-2.9-5.6-2.2-7.6.9-2.6 6.3-2.7 8.6-1.5 2.7 1.4 1.7 3.2-.3 5.2-1.7 1.8-4.4 5.1-6.1 3.9z"/><path d="m1327.2 1314.1c-.4.9-2.1 2.7-3.2 2.5-1.5-.2-2.9-3.7-2.5-5.1.5-1.6 2.8-1.3 4.1-.5 1 .8 2 2.1 1.6 3.1z"/><path d="m1240.9 1112.2c-.8-.3-.1-1.5 0-2.6.1-1.3.4-1.7 1.7-1.5 1.4.3 1.6 1.1.9 2.3-.6 1.1-1.7 2.2-2.6 1.8z"/><path d="m1203.4 1040.4c.9-.3 2.9-.6 3.6.3.9 1.2-1.1 2.9-2.3 3.6-1.4.8-2.2.5-2.5-1-.3-1.2.1-2.5 1.2-2.9z"/><path d="m1173.3 779.6c-1.1 1.4-2.4.9-4.4 0-2.6-1.1-2-2.3-.6-4.6 1.6-2.7 2.2-2.8 4.1-.7 1.7 1.8 2.3 3.6.9 5.3z"/><path d="m1099.3 748.9c-.6.8 0 .8-1 .3-1.4-.6-1.5-.8-.8-2 .8-1.4.9-1.1 2 .1.9.9.5.7-.2 1.6z"/><path d="m1060.1 1023.3c.6-.7 1.7-1 2.7-.5 1.3.6 1.7 2.5 1 3.7-.8 1.3-2 .6-2.9-.5-.8-1-1.5-1.9-.8-2.7z"/><path d="m1028.7 555.1c-1 .1-1.7-1.5-2.2-2.6-.5-1.4.5-1.7 1.9-2 1.6-.4 2.7-.3 2.6 1.3 0 1.3-1.1 3.2-2.3 3.3z"/><path d="m1001.8 634.5c1.1.9 1 .6.3 2.2-.9 2.1-3.2 4.9-5 3.7-2.1-1.3-1.8-6.4 0-7.9 1.4-1.3 3.4.9 4.7 2z"/><path d="m954.9 615.3c-.1.4.1.7-.4.8-.6.1-1.2-.4-1.2-1 0-.7.6-.9 1.2-.7.7.1.5.4.4.9z"/><path d="m911.5 905.1c-.3 1.2-.3 4-1.8 4-1.9-.1-2-3.5-1.7-5.3.3-2.1 1.5-3.6 3.3-2.7 1.4.6.6 2.6.2 4z"/><path d="m829.3 1191.9c1.8-1.6 5.3-1.2 7.6.4 3 2 .7 4.9-1.5 7.5-2.6 3-2.8 3-4.8-.2-1.7-2.7-3.4-5.8-1.3-7.7z"/><path d="m791.8 1211.5c.3 0 .6.5.7.9.2.4-.2.7-.6.8-.5.1-.8-.1-.8-.6.1-.3.4-1 .7-1.1z"/><path d="m761.8 1303.3c0-.4.6-1.1 1.2-1.2.7-.2 1.5.7 1.6 1.3.1.7-.6.8-1.3.7-.6-.1-1.5-.3-1.5-.8z"/><path d="m719.5 732.3c-.8-.5.2-2.1.6-3.2.5-1.4 1.3-1.9 2.6-1.3 1.5.7.8 1.3-.3 2.4-.9.9-1.9 2.8-2.9 2.1z"/><path d="m618.5 1006.4c1.1-.9 4.9-1.1 6.3 0 1.9 1.3-.7 4.3-2.2 5.8-1.7 1.8-2.7 2.5-3.9.4-.9-1.8-1.6-5.1-.2-6.2z"/><path d="m780.5 1485.4c1.4.4 3.9-.5 3.9 1.2-.1 2.3-3.4 4.1-5.5 3.8-2.5-.4-2.9-2.9-1.9-5 .9-1.8 1.8-.5 3.5 0z"/><path d="m573.3 1332.9c.9-1 1.5-2.5 2.9-1.7 1.9 1 .4 2.7-.7 4.3-1.4 1.9-3.1 3.5-4.4 1.7-1.2-1.4 1.1-3.1 2.2-4.3z"/><path d="m546.8 1117.3c.2-.8 1.4-2.4 2.4-2.4 1.3 0 1.3 2.5 1.1 3.6-.2 1.4-.5 1.4-1.7.8-1-.5-2.1-1.1-1.8-2z"/><path d="m456 1018.5c1-.7 3.5-1.4 4.6-.5 1.4 1.3 1 5.6-.4 6.7-1.6 1.4-4.8 0-5.6-1.8-.7-1.4.2-3.6 1.4-4.4z"/><path d="m391.9 1359.2c-.4.4-.2.8-.8.5-.7-.4-1.5-1.7-1-2.3.6-.7 1.5.2 2 1 .4.6.2.4-.2.8z"/><path d="m288.2 483.4c.9-1.1 2.5.7 4.1 1.4 2 .9 3 1.9 2 3.7-1.2 2-3.4 1.8-4.9.1-1.3-1.3-2.2-3.9-1.2-5.2z"/><path d="m237.3 865.2c-1.4-.1-3.5 1.1-3.8-.5-.4-2.1 2.2-5.4 4.2-5.5 2.4-.1 3.4 3.2 2.8 5.4-.3 1.6-1.5.7-3.2.6z"/><path d="m208.6 436.8c-.6.2-1.6-.2-2-.9-.5-.9.2-2.1 1.1-2.5 1-.4 2.8.2 2.9 1.2.1.9-1.2 2-2 2.2z"/><path d="m199.6 862.2c-.1 2-3.6 4.7-5.9 5.2-3 .6-8.7-3-8.9-5.9-.2-3.3 5.8-7.5 8.9-6.8 2.6.6 6 5.2 5.9 7.5z"/><path d="m151.7 761.5c-.8-.5-.7-2-.4-3 .4-1.4 2.3-2.7 3.6-2.1 1.4.7.6 2.4-.4 3.6-.8.8-1.9 2-2.8 1.5z"/><path d="m97.2 761.4c.1.4-.2.3-.6.6-.5.3-.5.2-.8-.3-.3-.6-.3-1.2.3-1.3.5-.1.9.6 1.1 1z"/><path d="m41.3 849.3c-1.4 1.7-4 4.7-6.4 3.6-3.1-1.4-3.9-8.2-2.2-10.9 2-3.1 6.9-2.2 9.1.5 2 2.2 1.2 4.8-.5 6.8z"/><path d="m2808.4 1679.9c.3.8-1.1 1.4-1.9 2-1 .8-1 .3-1.6-.7-.7-1.2-1.1-2.3.2-2.6 1-.3 2.9.4 3.3 1.3z"/><path d="m2758.4 1206.7c-.1-1.6 2.4-2.8 4.2-3.4 2.3-.8 6.1.5 6.6 2.7.5 2.6-3.2 5.4-5.7 5.1-2.2-.1-4.9-2.5-5.1-4.4z"/><path d="m2690.1 785.6c-.3-.9 1.2-.9 2.1-1.6 1.2-.8 1.4-1 2.1.2.8 1.4.7 3.5-.8 3.8-1.2.3-3-1.4-3.4-2.4z"/><path d="m2677.7 1095.4c-.6 1.9-4.1.8-6.5.7-3.1-.2-3.9-1.4-3.4-4.3.6-3.3 4-7.2 6.8-5.7 2.4 1.2 3.8 7 3.1 9.3z"/><path d="m2622.5 924.4c-.6-1.9-.2-5.1 1.7-6.4 2.6-1.7 7.1.7 8.3 3.4 1.4 3-.5 8.4-3.7 8.9-2.6.3-5.6-3.7-6.3-5.9z"/><path d="m2544.4 1522.4c.2-1.2 1.5-2.4 2.9-2.4 1.8-.1 3 2.1 2.9 3.8-.1 2-2.2 3.9-3.9 3.2-1.6-.6-2.1-3.3-1.9-4.6z"/><path d="m2519.4 946.2c0-.1-.1-.1 0-.2s.3 0 .3.1-.1.3-.2.3c-.2 0-.1-.2-.1-.2z"/><path d="m2509.4 1118.2c1.8-1.9 1.8 1.4 1.3 4.2-.7 3.7-4.2 9.2-7 12.4-3.3 3.8-6.6 4.7-4.6-.5 1.7-4.3 8.2-13.9 10.3-16.1z"/><path d="m2400.8 945.3c-1.1-2.2 0-6.1 2.2-8 2.9-2.5 6.6.4 8.6 3.4 2.3 3.5 1.4 5.2-2.4 6.3-3.1.8-7.2.9-8.4-1.7z"/><path d="m2329.9 1446.7c-.2-.1-.7-.3-.6-.5.1-.3.8-.2 1.1-.1.3.2.3.5 0 .7-.2.2-.3-0-.5-.1z"/><path d="m2319.5 1677.4c.3 1.2-2 2.7-3.3 3.4-1.7.9-5.5.6-6.1-1.1-.7-2 2.3-5.8 4.4-6 1.6-.1 4.7 2.2 5 3.7z"/><path d="m2292.9 1257.4c.9.5 0 2.2-.3 3.4-.3 1.6-1.2 2.4-2.6 1.9-1.7-.6-1.2-1.7-.2-3 .8-1.2 2-2.9 3.1-2.3z"/><path d="m2230.3 965.2c-1.7.7-6.2 1.4-7.5-.3-1.7-2.3 1.8-7.2 4.2-8.5 2.7-1.6 7.1-.5 7.7 2.5.5 2.3-2.4 5.5-4.4 6.3z"/><path d="m2157.1 890.6c1.1.5 3 1.2 2.8 2.6-.2 1.9-3 1.9-4.7 1.4-2-.5-2.1-1.2-1.1-2.9.9-1.4 1.7-1.7 3-1.1z"/><path d="m2068.7 749.3c.1.6.4.8-.2 1.2-.8.4-1.5 0-1.8-.8-.4-.9.1-1.6 1-1.6.8-.1.9.5 1 1.2z"/><path d="m2044.7 1737.3c-.4-1 .6-2.9 1.6-3.7 1.4-1 3.9-.2 4.7 1.2.9 1.6 0 5-1.8 5.4-1.4.3-4-1.7-4.5-2.9z"/><path d="m1967.1 895.1c1.3 0 .9 3 1.3 4.5.4 2 0 1.6-1.9 1.8-2.2.2-2.5.4-2-1.7.2-1.8 1-4.7 2.6-4.6z"/><path d="m2405.7 1558.4c-.3.7-.5 1.1-1.3 1-1.1-.2-1.1-1.1-.8-2.1.4-1.2.6-1.1 1.6-.4.8.4.9.7.5 1.5z"/><path d="m1777.7 801.9c-.7-2.9-.1-4.3 3.1-6.1 4.1-2.2 5.2.4 6.7 4.5 1.8 4.8 2.1 11.5-2.7 11.8-4 .5-6.3-6.7-7.1-10.2z"/><path d="m1714.2 1345c-.9.9-3.3 2.1-4.5 1.3-1.6-1 .3-3.6 1.4-5 1.3-1.6 1.9-2.2 3-.6.9 1.4 1.2 3.3.1 4.3z"/><path d="m1646 970.8c-1.3-1.2-3-2.9-2.1-4.8 1.3-2.5 4.1-.6 6.3.9 2.5 1.7 3.2 2.5.9 4.3-1.9 1.5-3.6 1-5.1-.4z"/><path d="m1592.5 1116.3c.6-1.2 3.6-2.8 5.2-2.4 2.1.5 1.3 3.9.6 5.8-.8 2.2-2.1 3.7-3.9 2.4-1.5-1.1-2.7-4.3-1.9-5.8z"/><path d="m1325.5 1961.3c-1.9-1.3-2-1-1.1-3.5 1.2-3.3 4.7-7.8 7.7-6.3 3.4 1.7 3.9 10.1 1.4 12.7-2.1 2.2-5.8-1.4-8-2.9z"/><path d="m1480.4 1708.9c-2.4.7-4.6 2.8-6 .3-1.9-3.3 1.8-5 5.1-6.3 3.8-1.6 4.6-1.7 5 2.2.3 3.2-1.3 3-4.1 3.8z"/><path d="m1388.5 791.7c0 .3 0 .7-.4.8s-.7-.5-.8-.9c-.1-.5.2-.6.6-.5s.6.3.6.6z"/><path d="m1343.5 1564.7c-.7.6-1.2 1.7-2.2 1-1.2-.8-1.3-3-.4-4 1-1.2 2.2-.3 3 1 .7 1.1.5 1.3-.4 2z"/><path d="m1267.9 1428.7c-.6 0-1.5-.2-1.7-.9-.3-.8.9-1.6 1.7-1.8 1-.2 1.7.4 1.6 1.3-.2.8-1 1.4-1.6 1.4z"/><path d="m1230.1 1064.7c-.3-1.6 2.1-2.2 3.8-3 2.2-1.1 2.5-.2 3.3 2 .9 2.6.9 4.4-1.7 4.5-2.3.1-5.1-1.7-5.4-3.5z"/><path d="m1155 1503c-1.7-.2-5-1.1-5.2-3.1-.4-2.7 3.9-7.8 6.5-7.8 3 0 3.4 4.9 2.6 7.7-.8 2.1-1.9 3.4-3.9 3.2z"/><path d="m1091.7 1443.9c.2 1.1.5 1.6-.7 2.1-1.5.7-3.3.2-3.8-1.3-.6-1.7.8-4.3 2.5-4.4 1.5 0 1.8 2.4 2 3.6z"/><path d="m1031.1 1116.4c-.4.2-1 .9-1.3.6-.4-.5 0-1.9.5-2.2.6-.4 1.4.3 1.5.9.2.4-.3.5-.7.7z"/><path d="m933.5 1162.3c-1.4-1-4.8-1.5-4-3.4 1-2.4 4.7-1 6.9.2 2.5 1.4 2.5 1.9.6 3.8-1.7 1.7-1.9.6-3.5-.6z"/><path d="m844.5 1660.5c-.2.1-.6.1-.8-.2s.2-.6.5-.7c.4-.2.7-.3.8.1s-.2.7-.5.8z"/><path d="m781.2 966.2c.4-.6 2-.8 2.8-.5 1.1.4 2.3 2.6 1.8 3.6-.6 1.1-3.6 1.5-4.5.6-.7-.7-.6-3-.1-3.7z"/><path d="m765.5 1046.2c-.6 1.8.4 4.5-1.9 4.3-2.9-.2-6.7-4.3-6.1-7 .6-3.1 4.7-1.7 7.3-.2 2.2 1.1 1.4.8.7 2.9z"/><path d="m731.4 820.8c.7 1.1-.4 2-1.5 3.2-1.4 1.6-3.5 2.3-4.8.8-1.5-1.7-1.1-6.2.9-7 1.7-.8 4.6 1.6 5.4 3z"/><path d="m628.6 1427.1c.7-1.1 2.9-2.8 4.4-2.4 2 .6.9 3.9.1 5.6-1 2-1.5 2.4-3.1.9-1.3-1.1-2.2-2.8-1.4-4.1z"/><path d="m594.9 1684.9c.3.9-1.1 1.5-2.1 2.1-1.3.9-1.3.3-2-1-.8-1.5-.8-1.1.8-1.3 1.3-.3 2.9-1 3.3.2z"/><path d="m529.4 1271.2c.7-.3 2 0 2.6.7.8.9.3 2.9-.7 3.5-1.1.7-2.6-.3-3-1.5-.2-.9.3-2.3 1.1-2.7z"/><path d="m450.2 1729.9c-1.1.7-.4 1-1.5-.1-1.5-1.3-2.8-3.1-1.3-4.3 1.7-1.4 2.8.5 3.6 2.4.7 1.6.5 1.1-.8 2z"/><path d="m408.2 928.3c-.2 1.2-.1 1.9-1.6 2-1.9.1-2.5-1.2-2.4-3 .1-2.1.9-2.3 2.8-1.6 1.5.6 1.5 1.2 1.2 2.6z"/><path d="m353.1 1209.5c-1.8-.4-2.4-1-2.5-3.3-.1-2.9 2.2-7.6 5-7.3 3.2.4 2.8 5.4 1.6 8.2-1 2.3-1.9 2.9-4.1 2.4z"/><path d="m258.7 1443.1c2.7-.3 5.5 4.2 6.7 7.2 1.6 3.9-1 8.7-4.8 9.7-4.5 1.2-7.6-2.8-7.4-7.2.1-3.6 2.3-9.3 5.5-9.7z"/><path d="m232.4 1118.5c-.5.8-1.4 2.2-2.5 1.8-1.4-.4-1.5-3-.9-4.2.7-1.4 3-2.6 4.1-1.5 1 .8-.1 2.9-.7 3.9z"/><path d="m136 1340.3c.3.5 1.3 1.4.9 1.9-.6.6-1.9-.5-2.4-1.2-.5-.8-.3-.9.6-1.1.6-.3.6-.2.9.4z"/><path d="m66.9 1155.9c-1.1-.3-.6-1-.6-2.4.1-1.8.6-3.1 2.3-2.8 2 .3 2.7 2.3 1.8 4-.6 1.4-2.2 1.6-3.5 1.2z"/><path d="m5.6 1431.9c.7-.1 1.5.9 1.8 1.7.4 1-.1 3-1.1 3.2-1.1.3-3.1-1.5-3-2.6 0-.9 1.5-2.2 2.3-2.3z"/><path d="m2907 1267.7c.1-.2.2-.3.4-.3.3.1.1.3 0 .6s-.1.3-.3.1c-.1-.2-.2-.3-.1-.4z"/><path d="m2844.8 1772.5c1.5-1.3 3.1-3.2 5-1.8 2.5 1.7 2 6 .1 8.2-2.3 2.5-5 1.5-6.6-1.3-1.4-2.3-.2-3.6 1.5-5.1z"/><path d="m2823.4 1825.6c1.3 1.2-.2 1.6-1.2 3.5-1.3 2.5-2.3 3.7-4.5 2.1-2.5-1.8-1.9-3.9.5-5.7 1.9-1.3 3.6-1.3 5.2.1z"/><path d="m2810 1237c-.1 1.5-2.1 2.3-3.8 2.7-2.2.5-3.8-1.1-4-3.2-.2-2.5 1.8-5.4 4.1-4.9 2 .4 3.8 3.7 3.7 5.4z"/><path d="m2763.5 1959.7c-.2 1.7-3.6 3.5-5.6 3.8-2.6.4-3-2.8-3-5.3 0-2.9.5-4.1 3.2-3.4 2.2.7 5.6 2.9 5.4 4.9z"/><path d="m2640.4 1841.9c-.7 0-1.2 0-1.5-.8-.3-1 .5-1.9 1.5-2.1 1.1-.2 1.2.6 1.1 1.6-.1.9-.3 1.3-1.1 1.3z"/><path d="m2558.2 1335.4c.9-1.4 1.5-2.4 3.4-1.8 2.4.8 4.6 4.1 3.5 6.2-1.2 2.5-3.6.4-5.6-1.4-1.5-1.4-2.3-1.4-1.3-3z"/><path d="m2475.5 1866c.6-.7 2.3 0 3.3.5 1.2.7 1.2 2.2.4 3.3-.9 1.3-3.2 2-4.1.8-.8-1.1-.4-3.9.4-4.6z"/><path d="m2428.7 1166.2c0-.1 0-.1.1-.1.2 0 .2.1.2.2 0 .2-.1.1-.2.1-.2-.1-.2-.1-.1-.2z"/><path d="m2278.9 1727c1.4 1.1 2.4 4.9 1.5 6.8-1.1 2.5-7.3 4.6-9.5 3.3-2.5-1.5-2.5-8.5-.4-10.3 1.8-1.6 6.8-1.1 8.4.2z"/><path d="m2235 1929c0-.3.3-.7.6-.7.4 0 1 .6 1 1s-.7.5-1.1.4c-.3-.2-.6-.4-.5-.7z"/><path d="m2210.2 1177.3c.8 1.5 3 4.2 1.6 5.6-1.9 1.8-8.6 1.2-10.1-.8-1.7-2.3 1-8.4 3.6-9.3 2.1-.6 4 2.8 4.9 4.5z"/><path d="m2196.8 1534.3c-.5.7-1 1.4-2 1.1-1.3-.4-1.5-2-1-3.2.6-1.3 2.9-2.5 3.9-1.6.9.9-.4 2.9-.9 3.7z"/><path d="m2174.4 1546.4c1.4-2.4 5-3.4 8.2-2.5 4.1 1.1 5.2 6.1 3.7 9.9-1.8 4.3-5.6 4.6-9.1 1.8-2.8-2.4-4.4-6.4-2.8-9.2z"/><path d="m2129.1 1481.1c-1-.1-1.9.6-2-.5-.2-1.5 1.1-4.4 2.5-4.4 1.7 0 2.9 3.2 2.5 4.7-.5 1.2-1.9.3-3 .2z"/><path d="m2053.8 2015.8c-.1.1-.3.1-.4 0s-.2-.3-.1-.4.3 0 .3.1c.1.1.3.3.2.3z"/><path d="m2027.1 1340.5c.7-.6 1.2-1 2.1-.4 1.2.8 1.3 2.4.4 3.5-1.1 1.2-3.5 1.4-4.3.2-.6-1.2 1-2.6 1.8-3.3z"/><path d="m1986.8 1596.8c1.5.2 1.6 1.4 1.7 3.2.2 2.3-.9 4.2-3.1 4.2-2.5-.1-2.9-2.3-2.1-4.6.7-1.9 1.8-3.1 3.5-2.8z"/><path d="m1948 1693.3c-1.1 1.7-5.7 3.5-8 2.7-3-1-1.2-5.9.2-8.6 1.5-3.1.9-2.3 3.4 0 1.9 1.9 5.8 3.8 4.4 5.9z"/><path d="m1879.5 1618.4c-1.6 2.5-6.8 7-10.1 5.9-4.4-1.5-3-10.2-1.1-14.1 2.2-4.5 3-2.5 6.5.8 2.8 2.8 6.6 4.5 4.7 7.4z"/><path d="m1794.4 1850.6c-.7.4-.3.6-1 0-.9-.8-1.4-1.9-.5-2.6 1-.8 2.2 0 2.7 1.1.4 1-.4 1-1.2 1.5z"/><path d="m1740.8 1348.7c.9-.9 2.1.1 3.4.9 1.7 1 1.1 1.5-.1 3-1.3 1.7-1.2 1.7-2.4.1-.9-1.4-2-2.9-.9-4z"/><path d="m1676.9 1538.3c.6-.8.7-.4 1.8.1 1.5.6 2.2 1.3 1.5 2.6-.9 1.5-1.8.8-2.9-.4-1-1-1.2-1.3-.4-2.3z"/><path d="m1629.5 1432.8c-.7-.2-1.1-1.7-1.1-2.5 0-1.1 1.4-2.5 2.4-2.3 1.2.2 2.1 2.1 1.6 3.2-.4.8-2 1.8-2.9 1.6z"/><path d="m1401.2 1453.3c-1.3.3-3.3-1.5-4-2.9-.9-1.8.3-4.9 2.1-5.6 2.1-.8 4.6 1.4 4.7 3.5.1 1.7-1.3 4.7-2.8 5z"/><path d="m1301.5 1832.5c.1.4-.1 1.2-.5 1.4-.5.4-1.9 0-2.2-.6s.6-1.2 1.3-1.3c.6-0 1.2-0 1.4.5z"/><path d="m1213.9 1846.6c.4-.4 1.2 0 1.8.3.8.5 1.6 1.8 1.1 2.5-.6.8-1.9 0-2.4-.8-.4-.6-1-1.5-.5-2z"/><path d="m1129.8 1406.8c-1.3-.7-3.8-2.9-3.4-4.6.5-2.2 5.2-3.1 7.3-2.3 2.3.9 3.1 4.1 1.7 6-1.2 1.5-4 1.7-5.6.9z"/><path d="m1101.1 1718.8c.9.8.8 3.5.1 4.8-.9 1.7-3.5 1.2-4.9.1-1.7-1.2-2.8-4.2-1.2-5.5 1.2-.9 4.9-.4 6 .6z"/><path d="m1077.8 2005.9c.3.4-.7.9-1.1 1.4-.5.7-.8.9-1.4.3-.6-.7-.1-.7.7-1.1.6-.4 1.5-1.2 1.8-.6z"/><path d="m1028.6 1176.7c-.1.1-.1.1-.2.1-.1-.1 0-.2.1-.3s.3-.2.4 0c0 0-.2.1-.3.2z"/><path d="m972 1646.7c-.6-.3-1-1.8-.9-2.6.2-1.1 1.5-.8 2.5-.5 1.1.4 1.5.7.8 1.6-.4.8-1.6 1.8-2.4 1.5z"/><path d="m884.4 1950.7c.7-.3 2.3-.7 2.8 0 .7 1-.3 3.9-1.3 4.4-1.2.6-2.8-1.1-3-2.3-.1-1.1.7-1.8 1.5-2.1z"/><path d="m786.1 1220.7c-.6-.7-.2-.8.4-1.7.8-1.2 1.1-1.1 2.2-.2 1.2 1.1 1.2 1.7 0 2.5-1.2.7-1.9.3-2.6-.6z"/><path d="m707 1217.6c-.4-.1-1.1-.4-1.1-.8 0-.6 1.1-.5 1.6-.4.7.1 1.4.5 1.1 1.1-.2.5-1.2.3-1.6.1z"/><path d="m668.2 1286.6c-.1.5-.3 1.4-.9 1.4-.8.1-2.3-1.2-2.2-2 .1-.9 1.7-1.3 2.5-1 .6.3.7 1 .6 1.6z"/><path d="m628.2 1396.6c.3 1.6-.4 2.7-2.1 3.5-2.2 1.1-3.6-.3-4.3-2.6-.9-2.6-.2-4.9 2.4-5 2.1 0 3.6 2.3 4 4.1z"/><path d="m607 1823.1c-.1.9-2 1.4-3.1 1.6-1.4.2-3.3-.9-3.4-2.2 0-1.5 2.1-2.6 3.5-2.2 1.2.3 3.1 1.8 3 2.8z"/><path d="m545.8 1378.5c-.8.4-.6.6-1.3-.2-1-1-1.3-2.1-.2-2.9 1.2-.9 2.2-.1 2.7 1.3.3 1.1-.3 1.3-1.2 1.8z"/><path d="m464.8 1920.1c-1-2.1-.2-5.9 1.9-7.7 2.8-2.3 7.1 0 9 2.9 2.2 3.3 1.5 8.7-2.1 9.7-3.1.9-7.6-2.4-8.8-4.9z"/><path d="m369.5 1883.4c-.1-.2-.2-.4.1-.6s1.1-.2 1.3.2-.4 1-.8 1.1c-.4-0-.5-.4-.6-.7z"/><path d="m112.9 1772.3c1.1 1.5 4.2 3.2 2.8 4.9-1.8 2.2-7.1 1.3-9-.7-2.2-2.3-.7-5.7 2-7 2.3-1 2.9 1 4.2 2.8z"/><path d="m190.1 1328.4c-.7.2-1.2-1.1-1.7-1.8-.6-.9-.5-1.8.4-2.3 1.1-.5 3 0 3.2 1.1.2.9-1.1 2.7-1.9 3z"/><path d="m29 1238.6c.3-.6.9-.3 1.6-.1 1 .2.7.4.4 1.3-.4 1 0 .8-.9.2-.6-.5-1.4-.7-1.1-1.4z"/><path d="m14.6 1954.7c-.2-.1-.1-.6-.1-.9 0-.4.3-.6.7-.6.4.1.4.5.2.8-.1.4-.5.8-.8.7z"/><path d="m4756.3 383.8c.4-.3.9-.5 1.4-.1.7.5.4 1.2-.2 1.8-.6.7-1.6.9-2 .1-.2-.5.4-1.4.8-1.8z"/><path d="m4721.3 297.9c0-.2-.2-.5 0-.6.3-.1.5.3.5.6.1.3.1.3-.2.3-.2 0-.2-.1-.3-.3z"/><path d="m4625.5 323c-.3 1.4.1 3.3-1.6 3.4-2.2.1-4.5-2.8-4.3-4.9.3-2.4 4-5 6.1-4.1 1.8.8.2 4-.2 5.6z"/><path d="m4571.4 173.9c-.4-1.3 2.3-2.3 3.7-3.2 1.8-1.2 5.3-1.9 6.2-.1 1 2.1-2.2 4.2-4.4 4.5-1.9.3-5 .4-5.5-1.2z"/><path d="m4542.3 57.7c-1.1 1.8-.4 3.1-2.8 2.3-3.1-1-6.5-4.5-5.2-7.3 1.5-3.3 6.3-2 8.8.3 2.1 1.9.5 2.6-.8 4.7z"/><path d="m4450.8 85c-1.7 1-1.5-.5-3.1-2.1-2.1-2.1-2.4-2.8-.2-4.5 2.6-2 4.5-1.6 5.5 1.3.9 2.4-.2 4.2-2.2 5.3z"/><path d="m4386.9 215.6c-.1-.4.4-1.1.8-1.4.5-.4.9.3 1.1.8.3.6.3.5-.3.6-.5.1-1.4.5-1.6 0z"/><path d="m4315.3 246.3c-.4.5-1.5.7-2.2.4-.9-.4-1.4-2.1-.9-2.9.6-.9 1.6-.4 2.3.4.6.7 1.3 1.5.8 2.1z"/><path d="m4254.6 51.5c.6-2.2.4-3.5 3.1-3.5 3.5.1 6.9 3 6.4 6.3-.6 3.8-5.9 6.6-9.2 5-2.9-1.3-1.1-5.2-.3-7.8z"/><path d="m3992.7 318.5c-1.2 1.5-4.6 4.3-6.7 3.3-2.7-1.3-.4-6.4 1.1-8.7 1.8-2.7 3.3-3.4 5.3-1 1.7 1.9 1.7 4.7.3 6.4z"/><path d="m3891.1 192c-.9.1-3.1.3-3.5-.8-.5-1.3 2.1-2.4 3.4-2.7 1.5-.3 1.1-.1 1 1.3-.1 1.3.2 2.1-.9 2.2z"/><path d="m3808.5-1.7c.2.2.6.7.4.9-.3.4-1.2.2-1.5-.2-.4-.4-.2-1 .2-1.2.4-.1.7.2.9.5z"/><path d="m3735.3 195c.8-.2 1.3 1.3 1.8 2.2.6 1.1.3 2.2-.8 2.6-1.3.5-1.8-.5-1.9-1.8-.1-1.1 0-2.8.9-3z"/><path d="m3616.8 251.2c-.7-1.2.3-1.4 1.4-2.5 1.5-1.5 2.7-2.1 4-.5 1.5 1.8 0 2.1-2 2.9-1.7.6-2.5 1.5-3.4.1z"/><path d="m3523.4 308.7c.3-1.1 2.6-1.4 3.9-1.4 1.7 0 3.5 1.6 3.3 3.2-.2 1.8-2.5 2.4-4.1 1.7-1.3-.6-3.4-2.2-3.1-3.5z"/><path d="m3461.7 171.2c.6.1 1.2.5 1.3 1.2.1.9-.8 2-1.7 2-1 0-1.4-1.2-1.1-2.1.2-.8.8-1.2 1.5-1.1z"/><path d="m3274.8 63.9c.4.3.9.8.7 1.3-.3.7-1.2.2-1.8-.1-.7-.4-1.2-.9-.6-1.4.5-.5 1.2-.2 1.7.2z"/><path d="m3063.9 392.3c-1.1.9-4.6.6-6-.4-1.8-1.4-.5-4.9 1-6.4 1.7-1.7 2.1-.4 3.2 1.6 1 1.7 3.2 4.2 1.8 5.2z"/><path d="m4780 1663c0 .2 0 .6-.2.7-.3.2-.9-.1-1-.4s.3-.6.6-.6.6.1.6.3z"/><path d="m4562.9 1983.9c-.1 2-.3 6.4-2.6 6.9-3 .6-5.4-4.8-5.6-7.7-.3-3.3 2-6.4 5.1-5.7 2.5.6 3.3 4.2 3.1 6.5z"/><path d="m4273 1661.4c-1-.3-.6-1.3-.5-2.5.1-1.6.8-3.6 2.3-3.3 1.7.3 3.1 3.4 2.4 4.8-.6 1.3-3 1.4-4.2 1z"/><path d="m4216.9 1598.6c-.4.8-2.2 1.5-3.3 1.3-1.4-.3-1.9-2.6-1.4-3.9.6-1.5 2.1-1.7 3.3-.8 1 .8 2 2.4 1.4 3.4z"/><path d="m4170.2 1988.6c.7.8 2.3 1.3 1.5 2.4-1 1.4-2.5.1-3.7-1-1.4-1.3-1.7-1.9-.2-2.8 1.3-.7 1.6.4 2.4 1.4z"/><path d="m4106.2 1455.5c-.1-.2.3-.4.5-.6.3-.3.4-.3.6 0s.2.6-.2.7c-.3.2-.8.2-.9-.1z"/><path d="m4068.9 1538.7c-1.7 2.1-4.4 1.2-7.3-.2-3.8-1.7-5.4-5.5-3.3-8.9 2.4-3.9 8.9-5.2 11.8-1.9 2.2 2.8.8 8.5-1.2 11z"/><path d="m4025.2 1707.5c-.8.7-1.6 1.1-2.6.3-1.3-1-1.5-3.2-.4-4.3 1.3-1.3 4.3-1.1 5.1.4.7 1.2-1.1 2.8-2.1 3.6z"/><path d="m3976.4 1680.6c.2-.1.3.1.5.3.3.2.4.7.2.9-.3.2-.8 0-1-.4-.1-.2 0-.6.3-.8z"/><path d="m4629.7 1859.3c.8-.4 2.5-1.4 3.2-.7 1 1 .5 4.5-.5 5.3-1.2.9-2.2-1.1-2.7-2.4-.3-1.2-.9-1.7 0-2.2z"/><path d="m3832.8 1704.3c-1.3-.7-1.3-2.5-.9-4.1.5-2.2 2.8-3.3 4.7-2.5 2.3.9 3.8 4.4 2.3 6.2-1.1 1.4-4.6 1.2-6.1.4z"/><path d="m3807.3 2015c-.3-.2-.9-.7-.8-1.2.2-.6 1.7-1.1 2.2-.8.6.3 0 1.2-.5 1.7-.3.4-.5.6-.9.3z"/><path d="m3792 1926.2c-.7.6-1.6 1.4-2.5.8-1.1-.8-.8-2.8.1-3.8 1-1.1 1.8-.4 2.5.8.6 1 .7 1.5-.1 2.2z"/><path d="m3682.3 1591.5c1-.3 2.7-.9 3.3.1.8 1.3-1.4 2.3-2.7 2.9-1.6.7-3.6 1-3.8-.6-.2-1.3 2-2.1 3.2-2.4z"/><path d="m3598.5 1726.2c-.6-.3-2.1-.4-2-1.1.2-1 2.4-2.1 3.3-1.9 1 .3.9 2.1.4 3-.5.7-1 .3-1.7 0z"/><path d="m3438.9 1957.6c-.6.6-2.3 1.1-3.1.7-1-.6-1.5-3.7-.8-4.6.8-1.1 2.3.4 3 1.4.6.9 1.6 1.8.9 2.5z"/><path d="m3371.3 1567.8c.5-.8.3-2.4 1.3-2.1 1.3.4 1.8 2.6 1.3 3.8-.6 1.4-3.3 2.6-4.3 1.6-1-.8 1.1-2.4 1.7-3.3z"/><path d="m3258.2 1542.3c.6.6 1.9 1.3 1.4 2.2-.7 1.2-3.8 2.2-4.8 1.4-1.2-.9-.5-3.9.7-4.8 1-.6 2 .5 2.7 1.2z"/><path d="m3167.6 1584.6c-.1-.6-.4-1.9.2-2.2.8-.4 2 1 2.3 1.8.3 1-.1 2.1-1.1 2.2-.8-.1-1.3-1.1-1.4-1.8z"/><path d="m3119.9 1963.8c1.5.5 4.2-.3 4.1 1.6-.2 2.5-3.3 1.9-5.6 1.4-2.7-.6-5.7-2.1-4.4-4.4 1-1.9 4 .8 5.9 1.4z"/><path d="m2983.3 1773.9c.3.6 1.2 1.3.6 1.8-.8.7-2.1-.1-2.7-.9-.6-1-.2-1.5.9-1.8.8-.2.8.2 1.2.9z"/><path d="m2908.8 1529.6c-.1-.1-.1-.1 0-.3.2-.2.2-.1.4 0 .2.2.3.5.1.6-.2.2-.4-.1-.5-.3z"/><path d="m4741.5 454.5c-.2.2-.8-.1-1.1-.3-.4-.3-.2-.5.1-.9.4-.4.4-.4.6 0 .3.4.6.9.4 1.2z"/><path d="m4728 175.1c-2.4 1.4-6-1.1-8.4-3.5-3-3-.6-5.4 2.7-7.9 3.7-2.9 4.4-2.6 5.9 1.6 1.3 3.5 2.7 8.2-.2 9.8z"/><path d="m4697.6 165.8c.2-.5 1.1-1.2 1.7-1.2.8 0 1.6 1.5 1.4 2.2-.2.8-1.1.7-1.8.3-.5-.3-1.5-.7-1.3-1.3z"/><path d="m4666.8 668.8c-.2.8.4 1.3-.7 1.4-1.3.1-1.2-.7-1.1-2 .1-1.4 0-1.1 1.2-.6 1.2.4.8.2.6 1.2z"/><path d="m4513 311.1c-.8.3-1.2.7-1.8-.2-.8-1.1-.7-3.1.5-3.7 1.3-.7 3.3.7 3.6 2.1.1 1.1-1.4 1.4-2.3 1.8z"/><path d="m4375.4 672.5c.6-.1 1.3.7 1.7 1.4.4.8-.2 1.6-1.1 1.9-1 .3-2.4 0-2.5-1-.1-.9 1.2-2.1 1.9-2.3z"/><path d="m4319.1 432.9c1-.6 2.8-1.6 3.7-.7 1.3 1.2-.1 3.8-1.4 4.8-1.5 1.2-3.2.9-3.9-.8-.5-1.3.5-2.6 1.6-3.3z"/><path d="m4254.8 485.3c-.7.2-1.3.6-1.7-.2-.6-1-.2-2.9.9-3.3 1.2-.5 2.9.9 3 2.1 0 1-1.3 1.2-2.2 1.4z"/><path d="m4163.7 603.3c-1.7 1-6.1 3-7.8 1.3-2.2-2.2.6-8.5 3-10.2 2.7-2 4.3.3 5.4 3.3.8 2.5 1.4 4.5-.6 5.6z"/><path d="m4093.5 469.7c-.3-.6.1-.6.8-1.2.8-.8.9-.7 1.5.1.7 1 1 2.3-.1 2.7-1 .3-1.8-.9-2.2-1.6z"/><path d="m3989.9 213.4c-.7.8-2.5.3-3.7-.2-1.5-.7-1.1-2-.3-3.4.9-1.5 1.9-1.9 3-.6 1 1.1 1.8 3.2 1 4.2z"/><path d="m3971.3 196.3c.9-.2.9 1.4 1.4 2.3.7 1.2.6 1.5-.6 2-1.4.6-2.5.3-2.6-1.2-.1-1.2.7-2.8 1.8-3.1z"/><path d="m3832.5 454.1c.1-.1.3-.1.4-.1.2.1.3.5.2.7s-.5.1-.6-.1c-.2-.2-.2-.4 0-.5z"/><path d="m3742.3 574.1c.2.2.1.4 0 .7-.2.3-.5.2-.8 0-.3-.3-.2-.3.2-.5.2-.2.4-.5.6-.2z"/><path d="m3638.9 527.6c.1 0 .2.2.1.3 0 .1-.3.2-.4.1-.2-.1-.2-.2-.1-.3.2-.1.3-.1.4-.1z"/><path d="m3610.8 363.6c.6 1.5.6 2.9-.9 4.1-2 1.5-4 .2-5.2-1.9-1.4-2.4-1.2-6 1.4-6.6 2.1-.4 4 2.6 4.7 4.4z"/><path d="m3534.2 614.2c-.1.1-.5.1-.6 0-.2-.1-.4-.6-.3-.8.2-.2.6-.1.8.1s.3.6.1.7z"/><path d="m3486.9 649.1c.5 1.3-.8 3.5-2.1 4.5-1.7 1.2-3.2-.8-4.1-2.5-1.1-2-.8-1.9 1.3-2.4 1.8-.3 4.4-1 4.9.4z"/><path d="m3382.5 204.4c-.8-2.5-3.9-5.6-1.2-7.3 3.4-2.2 12.7-.5 14.3 3 1.9 4.1-4.3 12-8.5 12.5-3.5.6-3.7-5.2-4.6-8.2z"/><path d="m3332.9 342.3c.2.4-.6.7-.9 1-.5.4-1 .6-1.4.1-.4-.6-.1-1.8.5-2 .5-.1 1.6.5 1.8.9z"/><path d="m3249.1 590.6c0 1.3-1.3 1.9-2.8 2.3-2 .5-5.6-.5-5.8-2.4-.2-2.2 3.1-2.1 5.2-1.7 1.8.3 3.5.2 3.4 1.8z"/><path d="m3155.9 103.4c1.7-1.4 5.1-1.7 7.3-.2 2.8 2 .2 5.2-2 7.5-2.5 2.8-5.4 4.3-7.2 1.2-1.5-2.5-.1-6.8 1.9-8.5z"/><path d="m3004.6 625.2c-1.4 0-3.6-1.9-4.1-3.5-.6-2.1 2-4.7 4.1-5.1 2.4-.4 5 2 4.7 4.3-.4 1.9-3.1 4.2-4.7 4.3z"/><path d="m2906 435.6c.9-1.3 2.3-2.4 4.1-1.7 2.3.9 2.1 3.7.9 5.7-1.3 2.4-2.8 2.3-4.6.5-1.4-1.5-1.5-3-.4-4.5z"/><path d="m4757.7 999.3c-2.2.2-3.9-.3-4.8-2.7-1.2-3.1 1.4-4.9 4.5-5.7 3.6-.8 9 .7 8.7 4.2-.2 2.9-5.9 4-8.4 4.2z"/><path d="m4663.4 905.8c.4.8 1 1.3.2 2-1 .9-3.5 1.2-4.2.2-.8-1.2.4-4.5 1.8-4.9 1-.4 1.8 1.8 2.2 2.7z"/><path d="m4610.2 402c.5 1.5-.2 5-1.8 6-2.1 1.3-6.7-1.1-7.6-3.2-1.1-2.5 1.5-4.1 4-4.4 2.1-.3 4.9-.2 5.4 1.6z"/><path d="m4579.8 627.4c-1.4-.2-2.5 0-2.7-1.7-.2-2.1 1.6-2.4 3.7-2.4 2.4 0 5.2 1.3 4.5 3.4-.6 1.9-3.9 1-5.5.7z"/><path d="m4218.4 349.3c-1.7-.3-3.6-3.4-3.8-5.5-.3-2.7 3-4.5 5.6-4.4 3 .1 3.4 1.9 2.5 4.6-.8 2.2-2.2 5.6-4.3 5.3z"/><path d="m4466.4 167.3c1.6 1.9 2.9 2 1.2 4.4-2.2 3.1-8.2 6-10.8 3.6-3-2.9.6-8.6 4.1-10.6 2.9-1.6 3.7.4 5.5 2.6z"/><path d="m4402.1 868.9c.6.6 2 .8 1.6 1.6-.6 1.1-3.3 2.1-4.3 1.3-1.1-.8-.2-3.2.9-4 .8-.6 1 .4 1.8 1.1z"/><path d="m4348.1 611.8c.5 1.1-.7 2.5-1.9 3.3-1.5 1.1-3.4.5-4.2-1-1-1.8 0-3.4 1.9-3.8 1.4-.3 3.6.2 4.2 1.5z"/><path d="m4242.7 982.2c.5-.6 2.1-1.1 2.9-.6 1.1.6.4 2.3-.2 3.3-.8 1.1-.8.7-1.6-.4-.6-.8-1.7-1.6-1.1-2.3z"/><path d="m4214.4 650.4c-.4-.4.1-1 .4-1.6.4-.8.8-1 1.5-.5.8.5.5.8-.2 1.4-.6.5-1.2 1.1-1.7.7z"/><path d="m4131.5 805.4c-.6 1.6-3.5.4-5.5.3-2.6-.2-2.3-1-1.8-3.4.6-2.8.2-1.9 2.6-.6 1.9 1.1 5.4 1.9 4.7 3.7z"/><path d="m4084.3 171.4c-.6-.4-1.3-.9-1-1.7.3-1 2.2-2.2 3.1-1.8 1 .5.9 2.7.2 3.5-.6.7-1.6.4-2.3 0z"/><path d="m4021.7 648.4c-1.4-1.1-.9-3.8-.1-5.7 1-2.5 3.9-3 6.1-1.7 2.5 1.5 4.1 5.7 2 7.6-1.8 1.7-6.4 1.1-8-.2z"/><path d="m3920.7 152.1c1.2-1 2.7.6 4.2 1.6 1.9 1.4 2.7 3.5 1.2 5.1-1.7 1.9-6.3 2-7.5-.1-1-1.7.7-5.5 2.1-6.6z"/><path d="m3890.1 702.3c-.5-1.3 1.8-2 3.2-3 1.8-1.3 3.2-1.4 4.2.4 1.1 2.1-.2 2.3-2.5 2.7-1.9.5-4.3 1.5-4.9-.1z"/><path d="m3832.2 791.5c-1.4-.4-4.9-1.2-4.8-3 .1-2.3 4.7-2.7 6.8-2.3 2.5.4 4 2.2 2.9 4.3-.9 1.7-3.2 1.5-4.9 1z"/><path d="m3761.8 760.4c-.5.5-.5 1.4-1.2 1-1-.5-1.1-1.9-.5-2.8.7-1 1.7-.6 2.4.3.6.8-.1.9-.7 1.5z"/><path d="m3685.4 581.7c.7 1.3-.6 4.4-1.9 5.6-1.7 1.6-3.7-.6-4.9-2.4-1.5-2.1-2.4-5.3-.1-6.1 1.8-.5 6.1 1.3 6.9 2.9z"/><path d="m3647 902.9c-.6-.7-1-2.6-.4-3.4.7-1.1 3.3-.7 4.3.1 1.1 1 1.1 3-.1 3.8-1.1.6-3.1.3-3.8-.5z"/><path d="m3573.4 667.4c.3 0 1-.1 1 .2.1.5-.7.9-1.2.9s-.7-.5-.5-1c.1-.3.3-.2.7-.1z"/><path d="m3510.1 641.2c.7-.8 1.1-.9 2.3-.3 1.6.8 1.2 1.6.3 3-1.1 1.6-2.1 2.2-3.3.8-.9-1.3-.1-2.5.7-3.5z"/><path d="m3475.1 655.1c.1.4-.2.5-.7.8-.6.3-.9.1-1.1-.5-.3-.7-.1-1.7.7-1.7.6 0 1 .9 1.1 1.4z"/><path d="m3429.7 709.9c1.5.5 4.7 1 4.6 2.9-.1 2.4-4.3 2.8-6.6 2.4-2.6-.4-4-1.9-2.9-4.2 1-1.8 3.1-1.6 4.9-1.1z"/><path d="m3362.2 978.3c.3 1.4 1 2.9-.5 3.8-2 1.1-4.4-.7-5.1-2.7-.9-2.4.5-4.4 2.9-4.6 1.9-.2 2.3 1.8 2.7 3.5z"/><path d="m3304.2 860c.2.5 1.1 1.2.7 1.5-.6.5-1.8-.4-2.1-1-.4-.7-.1-1.5.7-1.7.6-.1.5.6.7 1.2z"/><path d="m3255.9 299c-.5-2.4 3.9-2.5 6.5-3.8 3.3-1.7 4.4-1.5 5.5 1.8 1.3 3.9.2 7-3.7 7.2-3.1.2-7.7-2.4-8.3-5.2z"/><path d="m3207.6 461.8c.8.6 2.5.6 2.1 1.7-.5 1.4-3.3 2.2-4.5 1.5-1.4-.8-1.2-3.3-.1-4.4.9-.9 1.6.5 2.5 1.2z"/><path d="m3170.1 791.8c-.7-.8.5-1.9 1.2-2.9.9-1.3 1.2-.7 2.4.3 1.3 1.2 1.2.7-.3 1.6-1.2.7-2.5 1.9-3.3 1z"/><path d="m3103.4 392.9c-.7 2-3.5 6.4-6.1 6.2-3.3-.3-5.2-7.2-4.5-10.3.8-3.5 3.1-1.9 6.1-.2 2.4 1.4 5.3 1.9 4.5 4.3z"/><path d="m3030 216.8c-.2-.1-.4-.5-.4-.8.1-.4.7-1 1.1-.9s.2.8 0 1.1c-.3.4-.5.8-.7.6z"/><path d="m2965.3 264.2c.5-.2 1.9-.2 2.3.4.5.7-.6 1.8-1.2 2.2-.8.5-1.1.3-1.3-.6-.2-.7-.4-1.7.2-2z"/><path d="m2909.7 205.7c1.2.6.7 1.2.5 2.7-.4 2-1.2 2.7-3 2.1-2.1-.7-3.6-3-2.4-4.7 1-1.4 3.5-.7 4.9-.1z"/><path d="m4706 506.2c-.4-1.5.2-5.4 1.8-6.4 2.1-1.3 7.1 1.4 8.1 3.6 1.1 2.5-1.6 6.2-4.2 6.4-2.2.3-5.2-1.8-5.7-3.6z"/><path d="m4670.3 832.4c0 .6.3.6-.4.9-.9.3-.9-.1-1.1-.9-.2-1-.1-2 .9-1.9.8 0 .5 1.2.6 1.9z"/><path d="m4652.7 773c-.1.7-.7 1.6-1.6 1.7-1.1.1-1.8-1.3-1.7-2.4 0-1.2 1.1-2.6 2.2-2.2.9.3 1.2 2 1.1 2.9z"/><path d="m4634.2 629.9c.3.2-.1.7-.3 1.1-.2.5-.4.4-.8.1-.6-.3-.7-.4-.2-.9.3-.3.9-.6 1.3-.3z"/><path d="m4545.4 1157.1c-.3.4-.7-.1-1.3-.3-.8-.3-2-.9-1.6-1.6.4-.8 2.3-.8 2.9-.2.5.4.3 1.5 0 2.1z"/><path d="m4527.8 625.5c-.2-.2-.2-.3 0-.6.3-.4.9-.8 1.2-.5.4.3.1 1.1-.3 1.4-.4.2-.7 0-.9-.3z"/><path d="m4451.1 1262.1c.8-.5.7-.3 1.5.5 1.1 1 2 2.5 1 3.4-1.2 1-3.5 0-4.1-1.4-.5-1.2.6-1.9 1.6-2.5z"/><path d="m4396.3 934.4c-.1.6-.1 1.3-.8 1.5-.9.2-1.1-.9-1.2-1.8 0-1 .1-1.2 1.1-1 .7.2.9.6.9 1.3z"/><path d="m4343.4 1175.1c-1.2.6-4 .3-5-.9-1.3-1.6-.3-5.6 1.3-6.7 1.9-1.2 5 .5 5.6 2.6.5 1.7-.5 4.4-1.9 5z"/><path d="m4278.5 716.7c.3-.2.8-.2 1.2.1.5.3.6 1.3.2 1.7s-.9-.1-1.2-.7c-.3-.4-.6-.9-.2-1.1z"/><path d="m4251.1 715c.4.7 1.8 2.1 1.1 2.8-.9.9-2.3-1-3-2-.8-1.1-1.4-2.4-.2-2.8 1-.4 1.6 1.1 2.1 2z"/><path d="m4195.4 766.2c.3-.7 1.7-2.1 2.6-1.9 1.2.2 1.2 2.6.8 3.7-.4 1.3-1 1-2 .3-.8-.6-1.8-1.3-1.4-2.1z"/><path d="m4104.1 546.2c.4 1 2.2 2.3 1.1 3-1.3 1-4.8 0-5.5-1.3-.9-1.6 1.2-3 2.9-3.4 1.4-.3 1.1.5 1.5 1.7z"/><path d="m4059.8 1384.6c1.2.5 1.6.6 1.4 2.1-.2 1.9-1.7 3-3.4 2.5-2.1-.5-3-2.6-1.9-4.4.8-1.4 2.5-.8 3.9-.2z"/><path d="m4041.1 837.8c-1-.9-1.5-.6-.8-2 .9-1.9 2.6-2.9 4.2-1.8 2 1.3 1.9 3.9.2 5.3-1.3 1.1-2.4-.5-3.6-1.5z"/><path d="m4027 1392.7c-.9 1.1-2.2.5-3.7-.2-1.9-.9-2.5-2.6-1.4-4.3 1.2-2 4.9-3.3 6.3-1.6 1.1 1.4-.2 4.9-1.2 6.1z"/><path d="m3929.9 938.5c-1.3-.6-5.2-.6-4.8-2.3.4-2.2 5.9-4.8 7.9-4.1 2.3.8 1.5 4.8.2 6.7-1.2 1.4-1.7.4-3.3-.3z"/><path d="m3876.1 1187.5c-.1-.2-.4-.7-.2-.9.3-.3 1.2 0 1.4.3.2.4-.2 1-.6 1.1-.2.1-.4-.3-.6-.5z"/><path d="m3776.6 766.2c-.4-1-.3-1 .8-1.7 1.4-.9 2.5-.9 3.2.4.8 1.6-.1 2.9-1.7 3.2-1.5.3-1.9-.8-2.3-1.9z"/><path d="m3723.7 509.2c-1.4-1.6-5.8-4.5-4.4-6.6 1.8-2.7 10.1-2.6 12.4-.6 2.7 2.4 2.3 10.5-.6 12.4-2.4 1.5-5.7-3.3-7.4-5.2z"/><path d="m3713.2 504.3c2.1-.2 3.9.5 4.7 2.8 1.1 3.1-1 6.5-4 7.2-3.5.8-4-2-3.7-5.4.2-2.8.5-4.4 3-4.6z"/><path d="m3650.7 815.7c.6-1 3-1.1 4.3-.7 1.8.5 3.1 3.2 2.4 4.8-.8 1.9-2.6.6-4.1-.6-1.1-1-3.3-2.2-2.6-3.5z"/><path d="m3568.9 535c-1.6.1-2.7-1.3-3.3-3.2-.7-2.4.7-6.1 3-6.5 2.7-.4 6.1 3.3 5.8 5.9-.3 2.2-3.6 3.8-5.5 3.8z"/><path d="m3491 495c-.1.2 0 .3-.3.3-.4-.1-.4-.3-.3-.6.2-.4.2-.3.6-.1.3.2.2.1 0 .4z"/><path d="m3459.3 1103.4c-1.7-1.6-6.7-3.6-5.4-6 1.7-3.1 7.1.2 9.9 2.2 3.1 2.3 6.4 6.5 3.4 8.8-2.5 1.8-6-3.1-7.9-5z"/><path d="m3363.4 1296.6c-.9-2.1 2.9-5.1 5-6.8 2.7-2.2 8.9-3.1 10.6-.3 2 3.3-1.9 10.2-5.5 11.1-2.8.8-9-1.6-10.1-4z"/><path d="m3306.8 454.3c.4-2.2 2.2-2.3 4.9-2.5 3.4-.2 4.1 1.5 3.9 4.7-.2 3.7-2.5 7.2-5.8 6-2.8-1.1-3.5-5.7-3-8.2z"/><path d="m3216.4 793.1c-.4-.1-.4-.6-.5-1-.1-.6.3-1.2.9-1.2s1.4 1 1.2 1.5c-.1.5-1.1.8-1.6.7z"/><path d="m3160.5 787.6c1.2 0 2.2-.1 2.5 1.2.5 1.7-.8 4.3-2.5 4.6-2 .3-4.1-2.3-3.8-4.2.3-1.6 2.4-1.6 3.8-1.6z"/><path d="m3095.8 836.2c.9 1.8 2.4 4.7.6 6.3-2.3 2-8.6.9-10.2-1.5-1.9-2.8 1-7.6 4-8.6 2.6-.7 4.5 1.7 5.6 3.8z"/><path d="m3050.4 993.1c0 .5-1.2.6-1.8.8-.8.2-2 .1-2.2-.6-.1-.9 1.2-1.6 2-1.5.7.1 1.9.7 2 1.3z"/><path d="m3023.6 1313.7c.4.3.3.8 0 1.4-.3.8-1.4 1.7-2.1 1.3-.8-.4.1-1.5.7-2.1.6-.5.9-1 1.4-.6z"/><path d="m2922.9 725.1c.7-.6 1.2-1.7 2-1.1 1.1.8 1.7 3.6.9 4.5-1 1.1-4.1.4-4.9-.8-.5-1 1.3-1.9 2-2.6z"/><path d="m2909.2 1413.7c1.2-.3 3.7-1.6 4.5-.3 1 1.7-1 5.8-2.7 6.5-2 .8-2.9-1.7-3.1-3.7-.2-1.6-.1-2.1 1.3-2.5z"/><path d="m4758.6 1433.3c.6-.3 1.5-1.3 2-.7.7.8-.6 1.8-1.5 2.4-1 .6-1.2.6-1.4-.5-.3-.9.1-.8.9-1.2z"/><path d="m4676.4 1340.7c-1.1-.1-3.2-1.9-3.4-3.2-.3-1.6 2.5-4.4 4.1-4.5 1.8-.1 3 2.6 2.5 4.3-.3 1.4-1.9 3.5-3.2 3.4z"/><path d="m4624.4 1108.4c-.7 1.4 0 2.5-1.8 2.2-2.4-.4-2.5-2-1.8-4.2.8-2.6 1.3-2.2 3.4-.8 1.7 1.2 1 1.1.2 2.8z"/><path d="m4571.8 807.4c-.8-1.3-1.6-1.9-.3-3.2 1.7-1.7 2.9-.4 4.3 1.4 1.6 2.1 1.6 2.7-.7 3.6-2 .7-2.4-.2-3.3-1.8z"/><path d="m4508.7 863.5c.8-.1.9 1.3 1.3 2.3.5 1.2.7 3.2-.5 3.5-1.4.4-2.6-1.7-2.6-3 .1-1.2.8-2.7 1.8-2.8z"/><path d="m4435.8 1303.7c.8.1 2.2 1.6 2.4 2.5.2 1.3-1.7 1.5-2.9 1.5-1.4.1-2 0-1.7-1.3.3-1 1.2-2.7 2.2-2.7z"/><path d="m4349.5 1265c-.3.6-1.9.9-2.7.7-1-.3-1.4-1.9-1-2.8.4-1 1.1-.5 1.9.2.7.5 2.2 1.2 1.8 1.9z"/><path d="m4281.2 1303.1c2.3-1.8 1.2-1.7 4 .4 3.7 2.7 6.3 6 3.3 9.1-3.5 3.6-5.7-.2-7.9-4.4-2-3.4-2.1-2.9.6-5.1z"/><path d="m4263.2 827.8c.3-.2.5.3.9.6.5.4.6.6.2 1-.5.4-1.5.6-1.8 0-.3-.4.3-1.3.7-1.6z"/><path d="m4166.6 1125.7c.7-.6 1.5-.2 2.4.4 1.2.8 2.1 2.6 1.2 3.6-1 1.2-2.4 0-3.2-1.3-.6-1.1-1.2-2-.4-2.7z"/><path d="m4077.3 865.7c-.8.8-.6.2-1.7-.5-1.4-.9-3.6-2.6-2.6-3.8 1.1-1.4 4.7-.5 5.7.9.8 1.3-.5 2.5-1.4 3.4z"/><path d="m4013.4 1258.9c1.2.1.6.6.8 2 .3 1.8.3 4.8-1.5 4.8-2 .1-4.5-3.8-4-5.6.5-1.6 3.3-1.4 4.7-1.2z"/><path d="m3975.6 1709.7c.5-.6 1.1-1 2-.6 1.1.5 2.2 2.5 1.6 3.5-.7 1.2-3.1.7-3.9-.3-.7-.8-.3-1.9.3-2.6z"/><path d="m3965.7 1614.9c.9-.1 2.2.4 2.6 1.4.5 1.3-1 2.4-2.3 2.7-1.5.4-2.6-.3-2.5-1.7 0-1.2 1.1-2.3 2.2-2.4z"/><path d="m3883.2 1680.8c.5-.3 2-.2 2.5.3.7.6-.1 1.8-.7 2.4-.7.7-1.9.9-2.3.1s-.1-2.4.5-2.8z"/><path d="m3804.7 757.8c1.3-.6 2.5 1 3.5 2.3 1.3 1.7 1.4 4-.4 5-2 1.2-2.4-.8-3-2.9-.4-1.7-1.6-3.7-.1-4.4z"/><path d="m3746.5 1020.5c.7.4.4 2.1.1 3-.4 1.2-2.2 2-3.2 1.5-1.2-.6-1.7-3.2-.9-4.1.8-.8 3.2-.9 4-.4z"/><path d="m3688.1 1000.8c-.7.8-2.2 2.8-3.4 2.2-1.6-.7-.6-3.8.3-5.2 1-1.6 1.4-1.1 2.6.3.9 1.2 1.3 1.7.5 2.7z"/><path d="m3607.3 1192.6c.4-.1 1 0 1.2.5.3.6-.4.9-1 1.1-.7.3-1.1.3-1.2-.4 0-.6.5-1.1 1-1.2z"/><path d="m3512.9 1474.1c.4-.1.7-.3 1 .1.4.5.1 1.3-.4 1.6-.6.3-1.3-.2-1.4-.8-.1-.5.3-.7.8-.9z"/><path d="m3458 1269.2c-1.1-.2-3.4-2.2-3.5-3.6-.2-1.7 3.2-4 4.8-3.9 1.9.1 2.8 2.5 2.2 4.2-.6 1.4-2.2 3.5-3.5 3.3z"/><path d="m3397 1682.4c1.8.4 4.5.4 4.6 2.6 0 2.9-3.7 3.1-6.4 2.8-3.1-.4-6.5-2.4-5.3-5.1 1-2.3 5-.9 7.1-.3z"/><path d="m3303.1 821.2c-1.1-1.1.7-3.4 1.6-5 1.2-2.1 3.6-3.6 5.5-2.2 2.1 1.6 2.5 6.5.4 8-1.7 1.1-6.2.4-7.5-.8z"/><path d="m3242.5 952.1c-.7-.2-1.9 0-1.9-.8 0-1.1 1.6-1.1 2.6-.9 1.2.2 1.6.5 1.1 1.5-.4.8-1 .4-1.8.2z"/><path d="m3180.1 1059.9c-.1.3-.1.9-.4.8-.5-.1-.3-.7-.2-1.2.2-.5.3-.8.7-.5.4.2.1.5-.1.9z"/><path d="m3150.6 1048.6c.2-.1.4 0 .5.2.2.2.2.4 0 .6-.3.2-.3.1-.4-.2-.2-.2-.3-.4-.1-.6z"/><path d="m3081.4 1674.5c-1.3-.8-2.9-2.4-2.4-4.2.6-2.3 4.3-3 6.4-2.1 2.4 1 2.3 3.5.7 5.4-1.3 1.6-3.2 1.9-4.7.9z"/><path d="m3039.7 1702.9c.5.1.7.8.8 1.4.1.8-.5 2.2-1.2 2.2-.9 0-1.7-1.7-1.5-2.5.1-.7 1.2-1.2 1.9-1.1z"/><path d="m2987.3 1266.9c-.4.5-.5.9-1.2.6-.9-.4-.6-1.1-.1-1.9.6-.9 1.2-1.4 1.9-.6.5.7-.2 1.3-.6 1.9z"/><path d="m2977.4 914.4c-.7-.1-.3-.5-.3-1.3 0-1.1 0-1.2 1-1.2 1.2.1.8.2.4 1.3-.3.9-.3 1.4-1.1 1.2z"/><path d="m2910.7 1110c.2.2-.3.6-.5.9-.2.4-.7 1-1.1.7s0-.9.5-1.2c.4-.2.9-.7 1.1-.4z"/><path d="m4679.2 1530c-2.1-.3-1.9-4.5-2.2-7-.4-3.2 1.3-7.8 4.4-7.7 3.6.1 5.5 5.5 4.5 8.7-1 2.6-4.3 6.3-6.7 6z"/><path d="m4581.8 1653.3c.7.9 2 3.2 1.2 4.3-1.1 1.4-5.4 1.1-6.6-.1-1.4-1.4-.5-5 1.2-5.9 1.3-.8 3.3.6 4.2 1.7z"/><path d="m4503.2 1770.1c1.4 1.5 3.3 1.3 2 3.4-1.7 2.7-6.9 5.7-9.3 3.8-2.7-2.2 1-6.3 3.7-8.2 2.3-1.5 1.9-.7 3.6 1z"/><path d="m4408.7 1903c.3-.1.6.1.8.3.2.3.2 1.1-.2 1.3s-.8-.3-.9-.7-0-.8.3-.9z"/><path d="m4357.1 1836.2c0-.8-.6-2 .3-2.2 1.1-.2 1.7 1.4 1.7 2.5.1 1.3-.2 1.1-1.4.9-.9-.3-.7-.3-.6-1.2z"/><path d="m4334.4 1106.5c.4-.1.8-.2 1 .3.2.6-.1 1.9-.7 2-.7.2-1.9-.9-1.9-1.6.1-.6 1.1-.7 1.6-.7z"/><path d="m4246.4 1507.4c1.2.4 2.1 1.8 2 3.3-.2 2-2.9 5.1-4.7 4.7-2.1-.5-2.7-4.7-1.6-6.5.7-1.5 2.9-2 4.3-1.5z"/><path d="m4204.2 1730.5c.3 0 .6-.1.8.2.2.4-.3.8-.6.9-.4.1-.9-.2-.9-.6s.4-.5.7-.5z"/><path d="m4144.6 1084.6c1.8.7.9.7.7 2.9-.3 3-.5 3.5-3.3 2.9-3.2-.7-2.2-1.1-.7-3.8 1.3-2.2 1.2-2.8 3.3-2z"/><path d="m4122.1 1390.6c.2-.5 1.4-1 2-.9.8.1 1.8 1.7 1.6 2.4-.2.9-1.5.5-2.2 0-.6-.3-1.6-.9-1.4-1.5z"/><path d="m4107.9 1563.8c1 0 3.4-.1 3.6 1.1.3 1.5-2.4 4.6-3.8 4.7-1.7.1-3.4-2.9-3.1-4.5.3-1.2 2.2-1.3 3.3-1.3z"/><path d="m4079.3 1911.7c-.5.7-1.6-.3-2.5-.7-1.2-.5-1-.8-.4-1.9.7-1.2.5-.9 1.4.1.7.9 2.1 1.7 1.5 2.5z"/><path d="m4039.2 1832.4c-1-.9-.2-1.8.6-3.2 1-1.8 2.4-2.4 4-1.3 1.8 1.3 1.9 3.8.2 5.1-1.5 1.1-3.7.5-4.8-.6z"/><path d="m4020.3 1643.5c-.9-.3-.5-1-.4-2.1.1-1.4.6-1.9 1.9-1.6 1.5.4.9.8.2 2.1-.5 1-.7 1.9-1.7 1.6z"/><path d="m3937.6 1642.6c.2-1.2 1.6-.8 3.1-.9 1.9-.1 2 .4 1.9 2.2-.1 2.1-.2 1.6-2.1.9-1.6-.5-3.2-.7-2.9-2.2z"/><path d="m3900.2 1771.4c-1.2-1.9-1.5-2.9.3-4.8 2.3-2.5 5.8-2.6 7.9-.1 2.4 2.9 1.8 8.5-1.5 9.9-2.6 1.1-5.3-2.8-6.7-5z"/><path d="m3816.5 1587.4c-1.3-.5-4.1.2-3.9-1.5.3-2.2 3.8-3.5 5.9-3 2.4.6 4.6 4.2 3.4 6.2-1.1 1.6-3.8-1-5.4-1.7z"/><path d="m3738.4 1384.9c0-.8.5-2 1.5-2.3 1.2-.3 3 1.2 3.1 2.4.2 1.3-1.6 3.1-2.9 2.9-1.1-.2-1.7-2.1-1.7-3z"/><path d="m3717.5 1445.4c-.4 1.4.3 4.7-1.4 4.6-2.2-.1-4-4.4-3.6-6.4.4-2.4 2.9-2.3 4.9-1.2 1.6.9.6 1.4.1 3z"/><path d="m3651.3 1565.4c.9-.3 1.5-.2 2.2.8.9 1.3.8 3.5-.4 4.2-1.5.8-2.2-1.1-2.5-2.7-.2-1.2-.4-1.9.7-2.3z"/><path d="m3590 1529.7c-1.4.9-5.6 1.1-7.1-.3-1.9-1.8-.1-6.8 1.9-8.4 2.2-1.8 3.4.2 4.4 2.7.8 2.2 2.5 5 .8 6z"/><path d="m3540.6 1300.1c1-1.4 1.7-4.5 3.6-3.7 2.5.9 1.2 4.7 0 6.9-1.4 2.6-1.1 1.7-3-.3-1.6-1.6-1.8-1.2-.6-2.9z"/><path d="m3519.4 2005.1c.9 1 1.2 4.4.3 5.7-1.2 1.7-5.9 1.6-7.3.3-1.7-1.5-.4-4.6 1.5-5.7 1.4-.8 4.5-1.5 5.5-.3z"/><path d="m3433.7 1642.4c.2-.1.5.1.7.3.3.3.2.6-.1.8-.3.3-1 .4-1.2 0 0-.3.4-1 .6-1.1z"/><path d="m3364.1 1093.2c0-2.3.6-6.6 3.2-7.3 3.4-.9 7.2 4.3 7.6 7.6.5 3.9-2.7 7.9-6.4 7.3-2.9-.5-4.3-4.9-4.4-7.6z"/><path d="m3286.3 2007.8c-.4.3-.5.9-1 .6-.6-.4-.2-1.1.3-1.6.5-.6 1.4-1 1.8-.3.3.5-.6.9-1.1 1.3z"/><path d="m3204.9 1230.8c-.5.9-1.3 3.3-2.5 2.9-1.6-.4-1.3-3.6-.8-5 .7-1.6 1.8-1.7 3.1-.6 1.1.9.8 1.7.2 2.7z"/><path d="m3097.8 1851.2c-.4-1.4.6-4.3 2.2-5.2 2-1.1 3.9 1.7 4.8 3.7.9 2.3.7 5.5-1.7 5.7-2 .3-4.9-2.5-5.3-4.2z"/><path d="m3009.7 1532.2c-.9 1-2.4-.1-3.8-.8-1.9-.9-3.9-3.1-2.8-4.8 1.2-1.9 3.7-.2 5.1 1.4 1.1 1.4 2.5 3 1.5 4.2z"/><path d="m2923.2 1959.3c.7-.8 1.2.1 2.4.7 1.6.8 1.8 1.2.9 2.6-1.1 1.6-3.5 2.8-4.6 1.3-1-1.2.4-3.6 1.3-4.6z"/><path d="m2905.2 1448.1c1.5-1.4 6.3-1.6 8.4-.3 2.7 1.7 2.8 7.8.9 10.2-2.2 2.7-5.3.6-7.2-2.2-1.6-2.2-3.9-6-2.1-7.7z"/><path d="m2027.7 566.4c-.1.2-.6.3-.6.1.4-2 2-4 3.1-5.9 1.5-2.8 2.3-5.6 1.9-8.4s-2.3-4.9-4.5-7.2c-1.5-1.6-2.6-3.7-3.5-5.5-1.8-3.6-4.2-7.7-8-11.3-.1-.2-.1-.2.1 0 3.9 3.6 6.2 7.7 8 11.3.9 1.7 2.6 3.4 4 5 2.2 2.4 4.9 4.6 5.3 7.5s-2 5.6-3.5 8.5c-1.1 1.8-1.9 4-2.3 5.9z"/><path d="m1485.6 480.6c-.7 0-1.2-1.4-1.9-1.5-5.3-1.1-10-1.7-13.8-3.5-2.5-1.2-3.2-4.4-4.4-6.9-1-2-1.9-4.1-3.4-5.4-.2-.3-.1-1 .2-.8 1.6 1.4 3.1 3.8 4.1 5.8 1.3 2.6 1.7 5.4 4 6.5 3.7 1.8 8.3 2.3 13.6 3.4 2.6.5 5.2 1 7.9.3 1.9-.5 3.8-1.8 5.7-1.9 2.1-.1 4.2.7 6.2 1.2 2.8.7 5.4.9 7.9.1.3 0 .8 1.5.5 1.6-2.7.8-5.9.2-8.7-.5-2-.5-3.9-1.8-5.9-1.8-1.9.1-4.1-.1-6 .4-2.1.6-3.9 3-6 3z"/><path d="m1197.6 158.9c-.9 0-1.8.3-2.7.3-1.4-.1-2.9-.5-4.3-.3-.2 0-.3-.5-.2-.6 1.4-.2 3 .1 4.5.2 2.4.2 4.9.3 7-.7 3-1.5 5.6-4 8.1-6.4.4-.4.3-.5.7-.9 1.7-1.7 2.5-3.8 3.3-6.2.4-1.3.4-3 1-4.2.1-.2.3.2.2.4-.6 1.2-.3 2.7-.7 4-.7 2.3-1.5 4.9-3.3 6.6-.4.4-.5.3-.9.7-2.5 2.5-5.4 4.5-8.5 6-1.3.7-2.6 1.1-4.2 1.1z"/><path d="m857.9 17.3c-2.6-1-3.8-4.9-5.1-8-1.1-2.6-2-5.6-3.7-6.9-1.6-1.2-4.2-.8-6.1-1.6-2.7-1-5.1-2.8-7-5-3.3-3.9-6.7-7.6-8.8-11.8-1.4-2.8-1.4-6.1-1.5-9.1-.1-1.8.6-3.6.3-5.4.1-.3-.3-.3-.1 0 .4 1.8 1.1 3.5 1.2 5.3.1 3.1-.3 6.1 1 8.8 2 4.2 4.6 8.4 7.9 12.3 1.8 2.1 4.4 3.6 7.2 4.6 2 .7 4.3.7 6 1.9 1.9 1.4 2.7 4.2 3.8 6.8 1.3 3 3.2 5.7 5.5 6.6.4.5-.3 1.5-.6 1.5z"/><path d="m493.5 301.9c-.2.3-2.1-.8-2-1.1 1.2-2.4 4.2-3.7 6.1-5.5 1.3-1.1 2-2.9 3.1-4.3 1.2-1.5 1.7-4.1 1.8-6.9.2-3.2.3-6.5 2.3-8.1 3.5-2.9 8.1-6.2 11.7-8.2 2.4-1.3 5.8-.3 8.7-.7 2-.3 3.7-1.5 5.4-2 2.4-.7 5.3 0 7.9 1.1 2.1.9 4.1 2.6 6 2.4.4.1.8.8.5 1-2.1.2-4.5-2-6.7-2.9-2.6-1.1-5.4-1.8-7.6-1.1-1.7.5-3.8.3-5.7.5-2.8.4-6 1.1-8.2 2.4-3.6 2-8.5 4.8-12 7.7-1.7 1.4-.6 5-.8 8.1-.1 2.9-1.8 5.2-3.2 7-1.1 1.4-1.3 3.7-2.6 4.9-1.9 1.6-3.5 3.4-4.7 5.7z"/><path d="m395.4 580.7c0 .1.1.1.1 0 1.7-7.3-3-13.8-6.1-16.9-.1-.1-.3.1-.2.2 3 3.2 7.9 9.3 6.2 16.7z"/><path d="m3924.4 1186.6c-.3.2.1.8.2.5 1.1-1.7 3-2.7 4.7-4.2 2.2-1.9 5.1-4 5.9-6.4.3-.9-1-2.4-.6-3.4 1.3-3.6 3.3-7.5 3.6-11.2.2-2.4-.9-5.5-2.9-7.9-1.7-2.1-3.4-3.7-3.7-5.9-.4-2.2-.1-4.7 1-7.3 1.2-3 2.3-6.1 1.4-8.3-.1-.3.2-.4.4-.1 1.1 2.4-.4 5.4-1.6 8.5-1 2.5-1 5.2-.7 7.2s1.9 3.8 3.6 5.8c2.1 2.5 2.7 5.4 2.5 8-.3 3.7-.7 8-2 11.7-.3 1-.1 2.1-.4 3-.9 2.6-3.8 4.5-6.1 6.5-1.9 1.4-4.3 1.9-5.3 3.5z"/><path d="m3006.6 630.9c-.2.1 0-.8-.2-.9-.1-.1-.4.3-.4.1 1.2-4.5 1.9-7.9 1.5-12.5-.2-2 .3-4.4.9-6.5.8-2.9 1.5-5.6.4-8-2.1-4.7-4.5-9.7-7.4-12.8-.1-.2.6-1 .7-.8 2.9 3.1 5.3 8.4 7.4 13.2 1.1 2.5.7 5.6-.1 8.6-.6 2.1-.9 4.2-.7 6.1.4 4.6-1.1 8.4-2.3 12.7.2.5.4.8.2.8z"/><path d="m2761.2 711c-.7 0-1.5.4-2.3.3-.1-.1 0-.4.1-.4 3.9.7 7.9-.5 11.7-1.9.8-.3 1.4-1.1 2.1-1.4 3.9-1.3 8.5-2.9 12-6.7.1-.1.4.2.3.3-3.5 3.9-8.1 5.8-12 7.2-.8.3-1.7.3-2.4.6-3.2 1.1-6.3 2-9.5 2z"/><path d="m2618.6 711.1c-1.4-3.2-1.7-7-1.4-10.9.2-2.2 1.4-4.3 1.3-6.3-.1-1.8-2-3.6-2.3-5.6-.7-3.8-1.2-8-.3-11.5.9-3.4 4-6.3 6.6-9.1 1.5-1.6 3.4-2.6 4.5-4.2.2-.2.5-.2.4 0-1.1 1.6-2.7 3.2-4.2 4.8-2.6 2.7-6.1 5.2-7 8.6s.9 7.4 1.6 11.2c.4 2 0 4.1.1 6 .1 2 0 4-.2 6.3-.3 3.8-.6 7.9.7 11-.1.1.3-.1.2-.3z"/><path d="m2090.9 747.5c-.2.3-.3-.2-.3-.6.8-2.6-.8-5.5-1-8.3-.1-1.9-.4-3.8-.3-5.6.2-2.2 3-4.1 4.6-6.4 1.8-2.6 2.4-5.7 2.1-8s-1.6-5.1-3.9-7.2c-2.1-1.9-5.8-2.8-6.5-4.9s1.7-5.1 2.3-7.8c.6-3-.2-6.1-1.3-8.1-1.2-2-3.7-3.5-6.6-4.6-2.6-.9-4.6-2-6.1-3.6-.2-.4 0-1.2.3-1 1.3 1.5 3.5 3.3 6 4.2 3 1.1 5.6 2.5 6.9 4.8s.4 5-.2 8.2c-.5 2.6.5 5.3 1.1 7.2s2.5 3.5 4.5 5.3c2.4 2.2 4.8 4.8 5.1 7.4s-2.8 4.9-4.6 7.6c-1.5 2.2-1.7 5.1-1.8 7.1-.1 1.8-1.3 3.6-1.2 5.5.3 2.7 1.7 6 .9 8.8z"/><path d="m3880.9 1350c-3.4 0-6.6-1.9-9.9-3.2-2.2-.9-4.7-.7-6.9-1.1-5.8-1.2-10.1-5.4-15.1-7.8-.3-.2-.1-1 .2-.9 4.9 2.4 9.7 5.4 15.4 6.6 2.2.5 4.6 1.4 6.8 2.3 3.4 1.3 6.6 3.5 10 3.3 4.5-.2 9.1-1.9 13.6-3.3 1.2-.4 2.3-.9 3.4-1.2 2.3-.7 5.2.5 7.8.4 3.8-.2 7.3-2.7 10.2-4.4.3-.1 1 1.4.8 1.6-3 1.8-7 3.4-10.9 3.6-2.8.2-5.5-1.4-7.8-.7-1.1.3-1.8 2.1-3 2.5-4.5 1.5-9.5 2.9-14.1 3.1 0-.2-.3-.8-.5-.8z"/><path d="m2159.2 30.3c-1.6-5.3-3.9-11-7.6-15.9-3.1-4.1-7.2-7.6-11.5-10.5-.6-.4-1.8.3-2.4-.1-1.8-1.3-3.7-3.1-5.3-4.8-2.8-2.8-5.2-6.5-8.7-7.4-.2-.1-.4.5-.1.5 3.6 1 7.2 2.7 10.1 5.6 1.8 1.7 3 3.8 4.8 5 .6.4 1.5.2 2.1.6 4.3 2.9 8.7 6.3 11.9 10.5 3.8 5 5.8 10.8 7.5 16.2-.1.5-.7.5-.8.3z"/><path d="m2228.2 319.4c-.4-.1-.4-.3-.7-.5-3.5-2.3-6.7-4.5-8.6-8.1-2-3.8-2.7-7.9-2.6-12.6 0-.2-.1-.2-.1 0-.1 4.6 1.3 8.6 3.2 12.3 1.9 3.6 4.7 6.1 8.2 8.3.4.2.6 0 .8.3.2.1 0 .3-.2.3z"/><path d="m1753.3 1835.9c-.2.2.6.6.7.4 1.7-2.4 3.9-5.1 7.2-6.7 4-1.9 8.3-3.3 9.2-6.7 1.6-6 3-14.1 2.6-20.7-.2-3.6-3.2-7.2-6.3-10.3-2.3-2.3-5.2-4.3-6.3-6.9-.1-.3.1-.2.3 0 1.1 2.5 3.9 4.5 6.1 6.8 3.1 3.2 5.8 6.6 6 10.4.4 6.7.2 15-1.4 21-1 3.6-5.3 6-9.4 8-3.2 1.5-7.1 2.4-8.7 4.7z"/><path d="m2010.5 1591.2c-.1 0-.6 0-.5-.1.6-.5 1.7-.7 2.3-1.2 3.4-3 7.2-6.4 11.5-7.2 4.9-1 10.8.8 15.5 2.3.2.1-.2.4-.2.5.1.1.4-.3.3-.2-.2.1-.1.4-.3.3-4.7-1.5-10.4-3.5-15.3-2.6-4.2.8-8.4 3.6-11.8 6.6-.5.5-.9 1.1-1.5 1.6z"/><path d="m2403.4 1564.1c-1.8 0-3.8.7-5.6.3-2.1-.4-4-2-6-1.9-.3-.1-.2.7.1.6 2.2-.1 4-.1 6.1.3 3 .6 5.6.1 8.2-.8 3.3-1.1 5.9-2.8 8.7-4.9 1.2-.9 2.5-1.8 3.8-2.6 1.9-1.2 4.8-.7 7.2-1.3 3-.8 5.5-2.7 7.4-4.7 3.2-3.4 6.9-7.7 9.4-12.6.2-.3.5 0 .4.3-2.6 4.9-5.8 9.6-9 13.1-2 2.1-5.1 3.1-8.2 3.9-2.3.6-4.9 1-6.7 2.2-1.3.8-2.5 1.8-3.7 2.7-2.8 2-5.4 4.7-8.8 5.8-1 .3-2.2-.4-3.3-.4z"/><path d="m915.9 1300.7c-.2.3-.4.1-.3-.2 2.3-4.9 5.5-8.1 8.7-11.7 1.3-1.5 2.1-3.4 3.1-5 1.6-2.6 2.6-6.1 5.3-8 1.7-1.2 3.2-2.6 4.7-4.2 2.2-2.4 4.8-5 7.7-6.2 2.9-1.1 6.5-.7 9.7-.1 2.3.4 4.7 1.1 6.8.8.3.1.6 1.9.3 2.1-2.3.3-5.2-.1-7.6-.5-3.1-.6-6.1-2.1-8.8-1.1-2.8 1.1-5.5 3.2-7.7 5.5-1.5 1.6-2.4 4-4.1 5.2-2.6 1.8-4.5 4-6.2 6.6-1 1.6-2 3.3-3.3 4.9-3 3.6-6 7-8.3 11.9z"/><path d="m899.4 623.6c-.7-6.7-1.2-13.8-3.8-19.2-1.6-3.3-5.4-5.1-8.9-7.1-2.4-1.4-4.9-3-6.7-4.9-1.6-1.6-2.6-4-4-5.9-2.3-3.3-5.1-6.5-8.6-8.2-.2-.1-.1-.2.1-.1 3.6 1.8 5.7 5.2 8 8.6 1.3 1.9 3.2 3.6 4.8 5.2 1.8 1.8 4.6 2.6 7.1 4 3.6 2.1 6.7 4.8 8.3 8.2 2.6 5.5 3.7 12.4 4.4 19.1 0 .7-.7.6-.7.3z"/><path d="m445.7 567.7c-.1.1-.1.3 0 .2 1.1-1.4 2.3-3 3.4-4.7 2.4-3.8 4.8-7.9 8.7-9.6 5.6-2.3 13-3.8 19.2-3 .2 0 0 1.1-.1 1.1-6.1-.7-13.5-.4-19.1 1.9-3.8 1.6-5.7 6.2-8.1 10-1 1.6-2.8 2.6-4 4.1z"/><path d="m2239 659.9c-3-1.7-4.9-5.2-6.5-8.8-1.1-2.4-2-5-3.5-6.8-4.1-4.8-7.6-9.1-9.6-14-.8-2.1-2.3-4-3.7-6-2.3-3.2-4.1-7.1-4.2-10.6 0-.3.3-.2.3.1.1 3.4 2.9 6.5 5.1 9.6 1.5 2.1 3.4 4 4.3 6.2 1.9 4.9 4.8 9 8.9 13.8 1.5 1.8 2.5 4.7 3.5 7.2 1.5 3.6 2.5 7.7 5.4 9.3.1.2.2.1 0 0z"/><path d="m2228.8 1189.5c-.7-2.1-1.1-4.4-.9-6.8.2-2.9 1.1-6.3-.3-8.4-1.5-2.1-5-2.2-7.7-3.2-2.2-.8-4.4-2.1-6.1-3.5-1-.8-2.1-1.5-3-2.4-2.5-2.3-4.1-5.6-7.2-7.2-1.9-1-4.4-1.8-6.1-3.6-2.1-2.3-3.6-5.3-6.1-5.8-.3-.1-.2-.8.1-.8 2.7.6 5.1 3.1 7.3 5.4 1.6 1.8 3.1 3.8 4.9 4.7 3.1 1.6 5.8 3.6 8.4 5.9.9.8 1.1 2.5 2.1 3.3 1.5 1.3 4.1 1.8 6.2 2.6 2.8 1.1 5.7 2.2 7.3 4.4 1.6 2.3 1.6 5.4 1.4 8.5-.2 2.4-1.3 5-.6 7-.1.2.5.1.3-.1z"/><path d="m1862.5 778c-.2 0-.3-1.9-.5-1.9-3.5-.2-6.7-1.2-9.6-3.5-2.2-1.8-3.9-4.5-6.4-5.3-.3-.2-.5-.8-.2-.7 2.6.8 5.4 2.8 7.7 4.6 3 2.3 5.2 4.6 8.5 4.8 3.5.2 6.9-.5 10.2-2.1 2.4-1.1 4.9-1.6 7.4-2.1 3.7-.7 6.1-3.8 9.2-5.8 1.8-1.2 4.1-1.6 6.1-2.6 2.5-1.2 5.3-1.5 8.2-1.7 3.7-.2 7.2-.7 9.7-2.9.3-.2-.3-.5-.5-.2-2.7 2.3-5.4 4.1-9.1 4.3-2.8.2-5.6 0-8 1.1-2 1-3.3 2.8-5.1 4-3.1 2-6.5 3.9-10.3 4.7-2.4.5-5.1.4-7.5 1.5-3.2 1.5-6.4 3.8-9.8 3.8z"/><path d="m1362.3 1007.4c-3.5-.1-6.8-2.4-9.7-4.5-1.9-1.3-3.6-3-5.6-3.8-2.2-.9-4.8-1.8-7.4-1.9-3.6-.2-7.1-.1-9.7-2.3-.5-.5-1.4-.6-2-1-4-3.3-7.6-7.6-10.1-12-.1-.2-.7 0-.5.2 2.5 4.3 6.6 8.5 10.5 11.9.6.5 2.1-.2 2.6.3 2.5 2.1 5.6 2.9 9.1 3.1 2.6.2 5.4 0 7.7.9 2.1.9 4.1 2.3 6 3.7 3 2.1 5.6 4.3 9 4.4.6-0 .3.9.1 1z"/><path d="m1180.2 633.1c-1.8 0-3.9-.3-6-.8-3.4-.8-6.9-1.2-9 .3-.3.1-1-.8-.8-1.1 2.4-1.7 6.1.1 9.7.9 3 .7 6 0 8.1-.9 2.1-.8 3.6-3.1 5.3-5.5 2.1-2.9 4.9-4.9 7.8-5.3s6.5-.1 9.4 1.6c2.3 1.4 4 3.8 6.2 4.1s4.6-1.9 7.4-3.1c3.4-1.5 7.2-1.9 9.9-.8.3.2.1 1-.2.9-2.5-1-5.8-.1-9 1.4-2.8 1.2-5.8 3.7-8.2 3.4s-4.7-2.7-7-4.2c-2.8-1.7-5.7-4.1-8.4-3.7-2.6.3-5 3.5-7 6.3-1.8 2.5-3 5.9-5.3 6.8-.8.4-1.9-.3-2.9-.3z"/><path d="m3686.2 957.8c-1.1-2.1-3.9-3.5-6.4-4.9-3-1.7-7.3-3-8.1-6-.6-2.3-.1-5.8-1.9-8-2.2-2.8-4.7-4.9-4.9-8-.2-3 2.2-5.9 5.5-8.6 2.9-2.4 6.2-4.8 6.5-7.2.2-1.9 1-3.7 1.1-5.5.1-3.3-.7-6.4.5-9.8.7-2.2.9-4.7 1-7.1.1-3.2.2-6.2 1.8-8.9.3-.3 1.2 0 1.1.3-1.5 2.5-1.8 5.4-1.9 8.6 0 2.5-1.7 4.6-2.5 6.9-1.1 3.2-.6 6.7-.7 9.9-.1 1.8 1.7 3.8 1.4 5.7-.3 2.7-5.4 4.2-8.5 6.7-3.2 2.6-4.7 6.3-4.5 8.9.2 2.8 1.1 6 3.2 8.7 1.8 2.3 3.4 4.6 4 7 .7 2.6 4.4 3.7 7.4 5.4 2.7 1.6 4.8 3.6 5.9 5.9.2.3.3.3 0 0z"/><path d="m797.8 189.4c-2.5 0-5.4 1.2-7.9.6-.2-.1.1-1 .4-1 6 1.3 12.6.9 18.6.1 1.4-.2 2.7-1.5 4.2-1.6 4.9-.5 10-.4 14.2-2.5s7.6-5.9 10.9-9.6c1-1.1 2-2.1 3-3.2.2-.1-.5-.3-.6-.1-1 1-1.7 2-2.6 3-3.3 3.7-6 8.3-10.3 10.4s-9.5 2.8-14.4 3.3c-1.4.1-2.8.9-4.2 1.1-3.7.7-7.6-.5-11.3-.5z"/><path d="m346.5 244.3c-.5-1.3-1.4-2.4-1.8-3.7-.7-2.6-1-5.3-2.9-7.4-1.1-1.2-2.5-2.5-3.4-4-1.4-2.4-2.3-5.5-4.5-6.7s-5.2-.3-8-.2c-1.8.1-3.7-.1-5.4-.4-.2-.1-.1-.1.1-.1 1.6.3 3.5.3 5.3.2 2.8-.2 5.6-.7 7.9.6s4.2 3.5 5.6 6c.9 1.5 1.2 3.5 2.3 4.7 1.9 2.1 3.2 4.3 4 7 .4 1.3-.1 2.9.5 4.1-0 .2.4.1.3-.1z"/><path d="m2787.1 517.1c-.2.1-.1.2 0 0 1.5-1 3.5-1.9 5.6-2.4 2.8-.8 5.4-1.8 6.9-3.8s2.4-4.7 2.5-7.7c.1-2.1.2-4.1.7-5.9.9-2.8.6-5.7.2-8.5-.2-1.4-.4-2.6-.5-4.1.1-.2.2-.5.3-.3 0 1.4.2 2.9.4 4.3.4 2.9.3 5.6-.6 8.5-.6 1.7-.4 3.9-.4 5.9-.1 3-.1 6.3-1.7 8.4s-5 2.3-7.9 3.1c-1.9.6-3.9 1.5-5.5 2.5z"/><path d="m3384 379.2c-.2.1-.3-.1-.2-.3 2.7-2.9 6.1-6.7 11.4-9.4 4.4-2.2 10.4-1.9 14.5-2.5 6-.9 10.6-1.7 14.5-.9.2.1.1.2-.1.2-3.9-.8-8.4.3-14.3 1.2-5.3.8-9.9 1.4-13.8 3.5-5.3 2.7-9.3 5.3-12 8.2z"/><path d="m4340.5 703.6c-.8-1.9-2.8-3.3-4.1-5.1-2.1-2.6-4.4-5.7-4.6-9-.3-4.6 1.8-9.7 3.5-16 1.2-4.4 3-8.5 5.6-12.2.5-.7 1.2-1.1 1.7-1.8.2-.1-.2 0-.2.2-.5.7.3 1.9-.2 2.5-2.6 3.6-5.2 7.1-6.3 11.4-1.7 6.2-2.5 11.2-2.2 15.7.2 3.1 1.9 5.4 4 8.1 1.4 1.8 1.8 3.9 2.7 5.9 0 .5.3.5.1.3z"/><path d="m2648.1 358.9c-2 0-3.9-.5-5.9-.8-2.2-.4-4.5.2-6.4.3-3.3.1-6.4-1.4-9.5-2.3-1.5-.4-3-1.3-4.5-1.6-4.2-.9-8.9-1.4-13.6-3.9-.3-.2-.2-.1.1 0 4.7 2.4 9.2 3.8 13.4 4.7 1.5.3 3.3.1 4.8.6 3.1.9 6.2 1.3 9.4 1.2 2-.1 4.2 1.5 6.3 1.9 3.1.5 6.4.7 9.1-.1 2.5-.7 3.9-3.7 5.7-6.2 1.5-2.1 3.4-4.2 5.3-5.4.3-.1 1.2 1.2 1 1.4-1.8 1.1-3.2 3.1-4.7 5.1-1.9 2.6-4.4 5.4-7 6.1-1.2.2-2.4-1-3.5-1z"/><path d="m2322.3 76.5c-.1.2-1.2-.3-1.1-.4 2.4-5.6 3.5-11.4 2.9-17.1-.6-5.3-1.5-11.8-5.2-17-.1-.2.4-.4.5-.3 3.7 5.2 5.1 11.8 5.7 17.2.7 5.7-.3 11.9-2.8 17.6z"/><path d="m4406.2 102.7c-2.8 0-5.9.9-8.8 0-2.3-.7-4.1-2.2-6.2-2.5-3-.3-5.1-2.8-7.4-5-1.8-1.7-4.4-2.4-6.5-3.3-.2-.2.3-.6.7-.6 2.2.9 4.3 1.9 6.1 3.6 2.4 2.2 4.5 3.7 7.3 4.1 2.1.2 4.6.7 6.8 1.4 3.3 1 6.3 2.4 9.3 2 2.7-.4 5.4-2.2 7.5-4.9 1.9-2.4 3.1-6 5.4-6.9 2-.8 4.3-1.4 6.4-1.7 3.2-.5 6.7.9 9.2-.9.3-.1-.5-1.1-.7-.9-2.6 1.9-5 3.4-8.1 3.9-2.1.3-4.6-.4-6.5.4-2.1.9-4.1 3.7-5.9 6-2.2 2.8-4.1 6.5-7 6.9-.6-.1-1.1-1.6-1.6-1.6z"/><path d="m3915.5 195.5c-3.2 0-6.5-.1-9.2-1.6-3.6-2-10.3-6.4-14-12.4-.1-.1.8-.7.9-.6 3.7 5.9 9.7 10.7 13.3 12.6 3.9 2.2 8.9 1 13.5.7 1.4-.1 3-.1 4.3-.1.2 0-.1.4-.2.4-1.4 0-2.7.9-4 1-1.6.2-3.1 0-4.6 0z"/><path d="m4103.8 398.8c-.1 0-.1.1 0 0 5.1-.4 9.4-3.8 12.2-9.3 0-.1.4.1.4.2-2.9 5.6-7.5 8.6-12.6 9.1z"/><path d="m4115.3 476.3c-2-1.2-3.9-2.6-5.7-4.5-2.6-2.7-5.5-5.2-8.7-5.8s-7.1-.1-10.6 1.3c-2.3 1-4.4 3.2-6.6 3.5-6.1.9-11.6 1.2-16.1 3.6-.2.1.1.8.3.7 4.5-2.4 9.5-4.3 15.6-5.2 2.2-.3 4.7-.8 7.1-1.8 3.6-1.5 7.2-4.2 10.5-3.6s6.3 4 9 6.7c1.9 1.9 3.4 3.7 5.4 4.8.1.2 0 .4-.2.3z"/><path d="m1783.7 1584.9c0 .1-.5 0-.5-.1.7-3.1 3.4-8.8 12.4-12 .1 0 .1 0 0 .1-9 3.2-11.3 8.9-11.9 12z"/><path d="m1528.7 1161.2c-4.1-3.9-7.2-8.2-9.7-12.2-1.6-2.5-2.2-5.7-2.1-8.7 0-2.3 1.4-4.9.8-7-.7-2.1-3.9-3.5-6-5.4-2.5-2.3-3.8-5.2-4-8.1-.3-4.2-.7-9.1.3-13.4.2-.9.3-2.4.5-3.2.2-.2.9.6 1 .9-.2.9-.4 1.6-.6 2.5-.9 4.2-2.5 9.1-2.2 13.3.2 2.6 3.5 4.9 5.9 7.1 2.1 2 4.8 3.9 5.5 6.2.7 2.2-.3 4.8-.3 7.1-.1 3.1 1 5.6 2.5 8 2.5 4 5.1 8.4 9.2 12.2.2.4-.6.9-.8.7z"/><path d="m973.7 1491.5c-.2.1-.2.1 0 0 4.4-2.7 9.2-2.9 13.8-3.1 5.7-.2 9.5.8 13.6 2.9.1.1.1.1 0 0-4-2-8-3.1-13.6-2.8-4.6.2-9.4.3-13.8 3z"/><path d="m789.3 1319.8c-.1.2 0 .2 0 0 2.1-3.4 5.3-6.2 8.7-8.7.8-.6 2-.6 2.8-1.2 3.9-3.1 8.2-6.3 12.6-7.9 3-1.1 6.5-.3 9.5.2 1.8.3 3.4 1.2 5.2 1.2.2.1.4.5.1.6-1.8 0-3.6-.9-5.4-1.2-3.2-.5-6 0-8.8 1-4.4 1.6-9.8 2.6-13.7 5.6-.7.6-1.1 1.8-1.9 2.4-3.2 2.5-7.1 4.7-9.1 8z"/><path d="m3912.9 998.6c-.6-1.9-1-3.9-1.1-6-.2-3.1-.5-6.4-2.2-8.6-2.5-3.1-6.4-5.2-9.9-7.4-.8-.5-1.6-.9-2.4-1.4-2.7-1.8-5.7-2.9-9.1-3.3-1.6-.2-3.3 0-4.9-.4-.2-.1-.1.1.1.1 1.6.4 3.1.4 4.7.7 3.3.4 7 .1 9.8 1.9.7.5 1.3 1.3 2 1.8 3.6 2.2 7.2 4.6 9.7 7.8 1.9 2.4 2.7 5.6 2.9 8.7.1 2.1-.2 4.2.5 6.1.1.1 0 .2-.1-0z"/><path d="m3585 1061.5c-3.2-1.7-6.2-4.1-9.5-7.2-1-.9-2-1.8-3.1-2.6-2.1-1.6-3.8-3.7-5.2-5.9-1.3-1.9-1.3-4.3-1.2-6.7.1-1.8-.2-3.7-.8-5.3s-1.9-2.9-3.2-4.3c-1.6-1.8-3.4-4.1-3.6-6.4.1-.3.3 0 .4.2.1 2.1 2.6 3.4 4.2 5.2 1.3 1.4 2.1 3.3 2.7 5s0 3.6 0 5.5c-.1 2.4.5 4.7 1.7 6.5 1.4 2.1 3.2 4.2 5.2 5.7 1.1.8 2.8 1 3.8 2 3.3 3.1 5.6 5.8 8.7 7.5.4.5.2.9-.1.8z"/><path d="m3326.2 1272.1c-1-3.6-2.6-7.6-5.5-10.7-2.6-2.7-6.2-4.2-9.8-5.3-.4-.1-.7.5-1.1.3-.1-.1.1-.3.2-.3.4 0 .3.2.7.3 3.6 1.1 7.3 2.2 9.9 4.9 3 3.1 4.7 7 5.7 10.7.2.1-.1.2-.1.1z"/><path d="m2902.4 1142.7c-.3 0 0 .8.2.7 4.5-1.3 8.5-3 12.9-5.7 3.8-2.3 6.6-4.9 9.6-8 .4-.4.7-.9 1.1-1.4 1.7-1.7 4.3-3 7-3.8 3.2-.9 6.2-1.7 7.6-3.9 1.3-2.3.5-5.3-.1-8.5-.5-2.7-.2-5.4.4-7.6.1-.3-.2-.3-.2 0-.6 2.1 1.1 4.7 1.6 7.3.6 3.3 0 6.5-1.5 9-1.4 2.4-4.3 3.7-7.5 4.6-2.7.8-6 1.1-7.5 2.7-.4.4 0 1.6-.4 2-3.1 3.2-6 5.6-9.8 7.9-4.6 2.6-8.9 3.4-13.4 4.7z"/><path d="m2606.3 1139c-5.1-3.5-10.7-4-17-4.6-.6-.1-.6-.7-1.2-.7-1.6-.2-3.3.1-4.9-.2-5-.8-10.3-2.4-14.9-.4-.2.1 0 .5.2.4 4.7-2 9.7-1.3 14.8-.6 1.6.2 3.3.1 4.8.2.6.1.6.8 1.2.8 6.3.6 12.7.2 17.8 3.8.4.5-.7 1.4-.8 1.3z"/><path d="m2296.6 1440.2c-2.1-.5-4.5-1.5-6.8-1.5-3.4 0-6.9.7-9.8-.8-3.1-1.6-5.2-4.6-7.6-7.3-1.3-1.5-3.4-2.4-4.9-3.7-.6-.5-.5-1.8-1.1-2.3-3.5-3.1-7.9-5.5-10.5-9.4-2-2.9-2.4-6.6-3.1-10-.4-1.9-1.6-3.9-2.3-5.7 0-.3 1.5-.7 1.6-.5.7 1.9.7 4.1 1.2 6 .8 3.5 1.7 6.6 3.7 9.4 2.6 3.8 6 7.1 9.4 10.1.6.5 1.3.9 1.8 1.4 1.5 1.3 2.9 2.9 4.3 4.4 2.4 2.6 5 4.9 8 6.5 2.8 1.5 6 1.8 9.3 1.8 2.3 0 5-.2 7.1.3.4.3 0 1.3-.3 1.3z"/><path d="m3101.3 1627.7c-.8 0-1.8-.2-2.6-.4-.2-.1-.1-.6.2-.6 4.1.6 8.6.1 12.9-.9 1.3-.3 2.3-1.1 3.5-1.3 3.6-.7 6.4-3.6 9.5-5.7 1.3-.9 3.4-.7 4.8-1.5 3.3-1.9 5.4-5.1 7.7-8.2.8-1.1 1.6-2.1 2.5-3.2.2-.1.1-.4 0-.1-.9 1.1-2.2 1.8-3 2.9-2.3 3.1-4.3 5.7-7.7 7.7-1.4.8-2.1 2.7-3.4 3.6-3.1 2.1-6.4 4.8-10.2 5.6-1.2.2-2.6-.6-3.9-.3-3.4.8-6.9 2.4-10.3 2.4z"/><path d="m2790.8 1293.7c-.2.2-.4-.3-.3-.6 1.2-2.3 1-5.3 1.5-8.2.6-3.8 2-7 4.4-9.5 1.2-1.3 1.5-3.6 2.8-5.1 3-3.5 6-7.7 9.6-10 2.9-1.9 7.4 0 11.4.2 3.1.2 6.3-.2 8.8-1 6.7-2.2 11.8-2.3 17.2-2.6.3 0 .4-.5.1-.4-5.4.3-10.7.7-17.4 2.9-2.6.9-5.7 1.6-8.8 1.4-3.8-.2-7.3-.1-10.1 1.6-3.6 2.2-7.3 4.9-10.3 8.4-1.3 1.5-2.2 3.2-3.5 4.5-2.3 2.4-2.9 6.1-3.5 9.8-.4 2.9-.7 6.3-1.9 8.6z"/><path d="m2545.5 1052.7c-.5 0-.9-.1-1.5-.2-.1-.1-.2.3-.1.3 8.7.5 16.4-3.6 21.1-10.3.1-.1.1-.1 0 0-4.5 6.5-11.3 10.2-19.5 10.2z"/><path d="m35.4 1145.7c-1.5-1.5-2.3-3.8-3.4-5.7-1.7-2.8-3.8-4.9-6.6-6.2-2.6-1.2-5.2-.3-8.4.5-2.3.6-4.9-.4-7.1-.7-2.2-.2-4.4-.6-6.6-1.6-3-1.4-5.9-3.1-8.7-2.5-.3 0-.5-.4-.3-.5 3-.7 6.5.6 9.4 2 2.1 1 4 2.3 6.1 2.5s4.5-.1 6.8-.6c3.2-.8 6.6-1.9 9.3-.6 2.9 1.3 4.5 4.5 6.2 7.4 1.1 1.8 2.6 3.6 4 5 .3.6-.5 1.1-.7 1z"/><path d="m658 1132.3c-1.4-6-.3-11.8 1.4-17.6 1.7-6.1 6.5-9.6 10.4-13.4.1-.1-.2-.5-.3-.3-3.9 3.8-7.3 8.1-9 14.1-1.7 5.8-4 11.4-2.6 17.3 0 .1.2 0 .1-.1z"/><path d="m766.7 727.9c-5.5-1.1-10-4.5-15.2-6.7-.1-.1-.1-.1-.2-.2-2.3-1-6-.6-9.2-.4-3.8.3-7.9 1.6-10.5-.2s-2.5-6.3-3.2-10.3c-.6-3.4-1.8-6.7-3.6-8.5-1.5-1.5-3.7-2.2-5.3-3.6-2.6-2.1-5.3-4.8-7.2-7.8-1-1.5-.9-3.8-1.9-5.2-2.2-3.1-5.6-5.8-7-9.5-.1-.4 1.2-.8 1.4-.5 1.3 3.6 2.8 7.4 5 10.4 1 1.4 2.3 2.8 3.3 4.3 1.9 2.9 5.1 4.4 7.8 6.6 1.6 1.3 2.7 3.3 4.2 4.9 1.9 2 3.6 5.2 4.2 8.7.6 3.8-.1 8.8 2.2 10.4 2.4 1.7 6.9 1.6 10.6 1.4 3.2-.2 6.4-1.3 8.8-.2.1.1.2-.1.3 0 5.1 2.2 10.2 3.8 15.6 4.9.8.3.3 1.5-.1 1.5z"/><path d="m46.4 1350.5c-.1.1-.1.1 0 0 1.7-2 3.9-3.8 6.9-4.6 2.7-.8 5.7-.5 8.5-.1.1 0 .1 0 0 0-4.9-.8-11.8.4-15.4 4.7z"/><path d="m257.4 1020.6c-2 0-4.3-.3-6.4-.9-2.2-.6-4.2-2.6-6.1-2.5-4.1.2-8.4 0-13.5-1.1-.3-.1-.3-.2 0-.1 5.1 1.1 9.5 2.3 13.5 2.1 2-.1 4.1.1 6.3.6 2.9.7 5.9 1.1 8.3.4 2.2-.7 3-4 4.2-7.1 1-2.9 1.9-6.6 3.9-7.7 1.9-1.1 5.1-.4 7.8-.3 3 .1 6 .1 7.6-1.6.3-.2.7.4.6.6-1.8 1.9-5.1 1.7-8.2 1.6-2.6-.1-4.9.4-6.7 1.4-1.7 1-2.9 3.5-3.9 6.3-1.2 3.3-2.7 6.3-5.1 7-.8.2-1.5 1.3-2.3 1.3z"/><path d="m558.4 887.9c-.3 0-.5-.2-.8-.2-.1-.1-.2.1-.1.1 3.1.2 6.4-.8 9.6-2.9 3.5-2.3 6-5.3 7.5-7.4.1-.1.4.2.4.2-1.5 2.1-4.4 4.9-7.9 7.2-3 2-5.9 3-8.7 3z"/><path d="m259.3 1319.4c-.2.3-1.7 0-1.7-.3.6-2 3-3.6 4.1-5.5 1.6-2.4 2.3-5.2 2.4-7.8.1-2.5-1.1-4.9-2.7-7.3-1.3-1.9-2.8-4-3.2-6-.6-2.8-2.5-4.6-4.1-6.9-.9-1.4-.8-3.5-1.6-5-.8-1.6-1-3.2-1.5-4.8-.9-2.6-2.7-4.8-4.6-7-.2-.3.2-.4.5-.2 2 2.3 3.6 4.4 4.5 7.1.5 1.5 1.1 3 1.9 4.5s1.1 3.3 2 4.7c1.6 2.4 2.7 4.6 3.3 7.6.4 2 2 3.9 3.3 5.8 1.6 2.5 2.5 4.9 2.4 7.6-.1 2.8-1 5.3-2.6 7.8-1.1 1.6-1.8 3.8-2.4 5.7z"/><path d="m189.7 1569.6c-1.5 0-3.1-.6-4.4-1.1-.1-.1.2-.9.3-.9 3.6 1.3 7.6.8 11.6-.1 1-.2 2.1-.6 3.1-.8 5-.8 9.9-1.5 13.7-4.6.1-.1.1-.1 0 0-3.8 3.1-8.6 4-13.6 4.9-1 .2-2 .9-3 1.1-2.6.6-5.2 1.5-7.7 1.5z"/><path d="m1337.9 1653c-1.8-2.8-4.6-5.1-8.1-6.4-2.5-.9-5.2-1.6-7.1-3.1-.3-.2-.4 0-.7-.3-4.2-3.3-8.3-6.1-13.5-8-5.3-1.9-10.1-2.3-15.8-2.3-.2 0-1 .8-1.1.6-.2-.2.2-1 .4-1.3.1-.2.5.2.7.2 5.5 0 10.8-.2 16.2 1.7 5.3 1.8 9.1 5.4 13.4 8.7.3.2.7-.3 1-.1 1.8 1.4 4.2 2.5 6.7 3.4 3.6 1.4 6.6 3.2 8.4 6.1.2.8-.3 1-.5.8z"/><path d="m484.1 1482c0 .1-.2 0-.1-.1 1.1-8.1 2.6-16.6 6.6-23.2 4.5-7.4 11-12.5 17.7-15.6.1 0 .3.4.2.5-6.7 3-12.9 8-17.4 15.4-4 6.7-6 15-7 23z"/><path d="m3285.9 1638.7c-.2-4.3-.8-8.9-2.3-13.1-.6-1.5-1.8-2.9-2.3-4.4-.5-1.7-1-3.5-1.5-5.2-1.1-4.2-2.5-8.2-4.7-11.7-1.9-3.2-4.8-5.7-7.9-8-1.8-1.4-3.4-3-5-4.5-2.8-2.7-5.9-4.7-9.6-6.4-1.8-.8-3.4-1.6-5.1-2.6-.2-.3-.6.3-.2.4 1.7 1 4 .4 5.8 1.2 3.5 1.6 6.4 4.4 9.3 7.2 1.5 1.5 3.1 3.3 4.8 4.7 3.1 2.4 7 4.1 9 7.3 2.2 3.6 3.8 7.8 4.9 12 .4 1.7.3 3.7.8 5.4.5 1.5.6 3.3 1.1 4.8 1.5 4.2 4.1 8.4 4.2 12.8-0 .6-1.2.4-1.3.1z"/><path d="m2873.1 1405.5c-.3 0-.8-.6-.5-.8 2.7-.8 5.8-2.1 7.7-4.6 1.5-2 2.4-4.7 4.4-5.9 2.1-1.3 5.2-.5 8.2-.7 3.4-.1 6.9-.9 8.8-2.9 3-3 5.9-7.2 8.1-11 .5-.8.4-1.9.8-2.7 1.4-2.4.4-5.6.2-8.8-.2-2.5.4-5.3 1-7.5.1-.3 1.3 0 1.3.2-.6 2.1-.5 4.6-.3 7.1.2 3.3-.7 6.3-2.2 8.9-.4.8-.9 1.5-1.4 2.3-2.2 3.9-3.9 8.8-7 11.9-2.1 2.1-5.8 2.8-9.3 2.9-2.8.1-6.2-1.1-8.2.1-1.9 1.1-3.2 3.7-4.7 5.6-2.1 2.8-4 5-6.9 5.9z"/><path d="m2698.3 950.2c-6.8-2.2-11.3-7.4-13-14.7 0-.1-.1-.1-.1 0 1.7 7.3 6.3 12.6 13.1 14.7 0 .1.1.1 0 0z"/><path d="m2090.4 1225.1c-.2.3-2.1-.6-2-1 2.3-4.4 7.1-7 10.1-10.6 2-2.4 3.7-4.7 6.2-6.3 1.5-.9 3.1-1.7 4.5-2.8 1.6-1.3 3-3 4.2-4.7 1.7-2.3 3.4-4.5 5.9-5.8s5.4-1.9 8.2-2c2.1-.1 4-.6 6-1.2 4.2-1.2 8.4-1.8 12.6-2 .7 0 .7.9 1.2 1.2.3.2.3-.1 0 .1-.5.4-.5-.4-1.1-.4-4.2.3-8.1 1.3-12.3 2.5-2 .6-4.2.6-6.3.7-2.9.1-5.6.4-8 1.6s-3.7 3.6-5.4 5.9c-1.3 1.7-3.1 3-4.8 4.4-1.4 1.1-3.3 1.5-4.8 2.4-2.5 1.6-4 4.3-5.9 6.6-2.9 3.5-6 7.1-8.3 11.4z"/><path d="m1787.7 1038.6c-.1.1-.2 0-.1-.2 4.5-4.5 9.9-8.5 15-9.9 5.9-1.7 12.9-1.7 18.3-.4.2.1.1.4-.1.3-5.3-1.3-12.4-1.7-18.2 0-5.1 1.4-10.4 5.7-14.9 10.2z"/><path d="m1770.3 460.3c-.1 0-.2-.2-.1-.2 4.8-2.7 5.6-8.4 5.7-11.7 0-.1.3-.1.3 0-.2 3.4-1.1 9.2-5.9 11.9z"/><path d="m1942.9 190.5c-5.4-4.9-10.8-7.3-14.8-9-5.1-2.1-11.6-3.4-16.8-3.8-4.1-.3-8.8.4-13.1 1.7-1.3.4-2.6 1.4-3.8 1.7-.3 0 .1-.3.3-.5 1.2-.3 1.9-1.7 3.2-2.1 4.3-1.4 9.3-3.3 13.5-3 5.3.4 11.7 3.3 16.9 5.4 4.1 1.7 8.8 4.9 14.3 9.9.1.2.5-.1.3-.3z"/><path d="m1512.6 196.5c-2.5 0-4.8-2.1-7.4-2.7-1.9-.5-4-.7-6-.9-5.5-.6-10.5-.3-16-2.8-2.2-1-4.8-1.1-7.4-1.4-3.8-.4-6.9-1.9-9.4-4.3-.2-.2-.4-.3-.1-.1 2.3 2.3 5.9 3.2 9.6 3.6 2.7.3 5.6.1 7.9 1.1 5.4 2.5 10 4 15.4 4.6 2 .2 4.1.2 6 .7 3.6.9 7.1 2.4 10.7 1.5.3 0 .8.4.6.6-1.1.1-2.8.1-3.9.1z"/><path d="m1128.7 172.7c-3.3-1.4-5-4.1-7.2-7.3-1.6-2.4-3.2-5.3-5.3-6.9-.6-.5-1.9 1.2-2.5.8-4.4-3.4-8.1-7.2-11.6-11.6-2.7-3.4-3.2-7.5-4.7-11.5-.6-1.6-2.5-2.8-3.2-4.5-.8-1.9-.6-4.3-1.6-6-2-3.5-4.3-6.4-5-10.5 0-.3-.3-.2-.2.1.6 3.9 3.9 6.6 5.8 10 1 1.7 1.1 4.1 1.9 6 .8 1.7 2.3 3 2.9 4.7 1.5 3.9 2.7 7.4 5.3 10.7 3.4 4.4 7.6 7.2 11.9 10.5.6.5.6.4 1.2.9 2.1 1.7 3.1 5 4.8 7.4 2.1 3.1 4.1 7 7.2 8.3.5.1.7-1 .3-1.1z"/><path d="m1019.8 816.9c-.3.1-1-.5-.8-.7 1.9-1.2 4.5-2.2 6.8-3.1 3.7-1.6 8.3-2.1 10.8-4.8 2.3-2.3 2.6-6.6 3.3-10.3.5-2.9 1.9-5.4 3.2-7.7.7-1.2.6-2.7 1.3-3.8 2.4-4 4.6-7.9 5.9-12.3 0-.1-.8-.4-.8-.5 1.6-5.6 3.3-11.2 3.4-17 0-.3 1.3-.3 1.3.1-.1 5.9-2.9 11.4-4.5 17 0 .1 1.3.5 1.3.7-1.3 4.5-4.5 8.1-6.8 12-.7 1.1-1.6 2.1-2.3 3.3-1.3 2.2-1.9 5.5-2.4 8.4-.7 3.8-.7 7.7-3.1 10.2-2.6 2.7-6.3 4.7-10 6.3-2.4.7-4.7 1.1-6.6 2.2z"/><path d="m2841.5 39.4c-.1-6.5-.3-13.6 2.7-19 2.6-4.8 7.9-8 12.7-11 .7-.4 1.5-.7 2.2-1.1.2 0 .6.6.5.7-.7.4-1.7.4-2.4.9-4.8 3-9.6 6.3-12.2 11-2.9 5.4-2.5 12.1-2.4 18.6-.1.2-1.1.1-1.1-.1z"/><path d="m3265.1 81.8c-1.5-2.8-3.7-5.6-4-9-.2-2.2 1.5-4.5 1-6.4-.5-2-1.5-4.1-2.5-6.2-1.4-3.1-4.4-6-4.4-9 0-2.9 3-5.8 5.2-8.4 1.8-2.1 4-3.9 4.5-6.1.4-1.5 1.2-2.9 1.5-4.3.7-3.3.2-7.4 2-10.5.2-.2 1.2.5 1.1.8-1.7 3-2.4 6.3-3 9.7-.3 1.5-1.3 2.8-1.7 4.3-.6 2.3-2.1 4.4-3.9 6.5-2.2 2.5-3.1 5.3-3.1 7.9 0 2.9.9 5.8 2.3 8.8 1 2 2.6 4.1 3.1 6.1.5 1.9 0 4.4.2 6.5.2 3.4.6 6.3 2.1 9 .2.3-.2.5-.4.3z"/><path d="m3369.6 471c-.3.1-.1.4.1.2 3.4-1.3 6.2-4.6 8.9-7.5 1.3-1.5 2.7-2.9 4.1-4.2 3.9-3.4 6.1-8.2 8.7-12.6.3-.5-.1-.8.2-1.3 1-1.8 3.6-2.7 4.9-4.4 2.4-2.9 3.8-6.6 4.5-10 .1-.3 1.6 0 1.6.3-.7 3.6-4.3 6.2-6.7 9.2-1.3 1.6-1.5 4.2-2.5 5.9-.3.5-.5.5-.8 1-2.6 4.4-6 8.4-10 11.8-1.4 1.2-2.1 3.2-3.5 4.7-2.7 3.1-5.9 5.6-9.5 6.9z"/><path d="m3820.7 572.2c-1.1-.7-1.8-1.1-2.9-1.8-4.4-2.6-8.8-5.1-12-8.6-2.4-2.6-3.9-6.1-4.9-9.8-.7-2.5-1.7-5.1-2.8-7.2-1.1-2-3.3-3.3-4.8-5.2-2.4-3.1-3.8-7.1-4.7-10.7-.9-3.5-.8-7.5.1-11.2.7-2.5 2.9-4.7 2.9-7.1.1-.3-.4-.4-.3-.1 0 2.5.5 5.3-.2 7.8-.9 3.6-3.6 7.3-2.8 10.6.9 3.5 4 6.6 6.3 9.6 1.4 1.9 3 3.8 4.1 5.9 1.2 2.2 2.2 4.7 2.9 7.3 1 3.6 1.1 8.2 3.4 10.7 3.1 3.4 8.8 4.8 13.1 7.5 1.1.7 2.1 1.4 3.1 2 .3.2-.1.3-.5.3z"/><path d="m3750.3 1051.7c-2-2.6-2.1-6.8-1.9-10.4.1-2.6 1.8-5.4 1.2-7.6-.6-2-2.4-3.8-3.4-5.6-1.6-3-4.1-6-4-9.5.1-4.3 2.2-8.4 3.8-12.2.5-1.2 1.3-2.3 1.7-3.4.2-.2 1.5-.1 1.5.2-.5 1.2-2.4 2.2-2.9 3.4-1.7 3.8-2.4 8-2.5 12.1-.1 3.3.7 6.4 2.3 9.4 1 1.9 1.8 3.9 2.5 5.9.7 2.3 1.6 4.8 1.5 7.4-.2 3.5-.6 7 1.2 9.5.3.5-.8.9-1 .8z"/><path d="m4256.8 1108.5c-.2.2.5.4.6.1.7-1.6 1-3.3 1.6-5.2 1-3.4 1.9-6.6 4-9.2 2.2-2.9 4.8-5.7 7.9-7.9 1.3-.9 2.3-2.1 3.4-3.1 3.1-2.4 7.4-3.1 11.1-4.6 1.1-.5 2-1.6 3-2 1.2-.5 2.2-1.4 3.3-2 3.5-1.7 7.4-3.5 11.2-4 .3 0 .2.5-.1.6-3.7.6-6.9 3.2-10.4 4.9-1.2.6-2.4 1.1-3.6 1.6-1.1.5-2.2.9-3.4 1.4-3.6 1.5-7.3 3-10.4 5.4-1.2.9-2.7 1.4-4 2.4-3.1 2.2-6.6 4.3-8.8 7.1-2 2.5-2.2 6.4-3.2 9.7-.3 1.6-1.5 3.1-2.2 4.8z"/><path d="m1715.7 912.5c-.2.2-.8.1-.7-.2 1.5-2.4 5.3-3.4 7.8-5.4 3.2-2.5 5.5-6.1 6.4-9.4 1-3.2-.1-7-1.4-10.9-1.1-3.1-3.3-6.4-3.1-9.2.1-1.8 1.7-3.6 1.9-5.3.4-4.4.2-8.9-.7-13.2s-3.3-8.2-5.5-12.1c-.8-1.5-1.7-3.3-2.4-4.9 0-.3.8-.4 1.1-.2.8 1.5 2.9 2.3 3.7 3.8 2.2 4 3.9 8.6 4.8 13.1.9 4.4-.3 9-.8 13.5-.2 1.8-.7 3.6-.8 5.4-.1 2.7 2.3 5.6 3.3 8.7 1.4 4 1.1 8 .1 11.4s-4.3 5.4-7.6 8c-2.6 2-4.7 4.7-6.1 6.9z"/><path d="m1532.1 421.4c-3-4-4.3-9.1-2.7-13.2 0-.1.1 0 .1 0-1.6 4.1-.5 9.3 2.5 13.3 0 .1.1 0 .1-.1z"/><path d="m1159.8 510.6c-4.9-.8-8.9-3.9-12.8-7-.4-.3-.7-.6-1-.9-4-3.1-8.8-6.4-10.9-11.6-.1-.2.1-.2.2-.1 2.1 5 6.7 8.5 10.7 11.6.4.3.9.4 1.2.7 3.9 3.1 7.9 6 12.7 6.7.1.2.1.6-.1.6z"/><path d="m94.5 106.9c-2.3 0-5-.6-7.5-1.3-3.3-.9-6.7-2.1-9.3-1.4-.3 0-.9-1.3-.6-1.5 2.8-.7 6.6 1.8 10 2.7 3.9 1.1 8 1.2 10.8-.3 4.3-2.4 8.7-6.1 12.4-9.7.9-.9 2.2-1.2 3-2 .7-.6.1-2.6.8-3.2 3.9-3.7 9.3-6.9 12.1-11.3 2.1-3.3 3.2-7.8 4-12 .5-2.4 0-5 .6-7 .2-.3 1.6.1 1.6.5-.6 2-2.4 4.1-2.9 6.4-.8 4.3-.4 9.2-2.5 12.6-2.8 4.5-8.2 7.9-12.1 11.6-.7.6-.6 2.1-1.3 2.7-.8.8-1.7 1.6-2.6 2.5-3.7 3.6-8.2 7.4-12.6 9.8-1.2.6-2.5.9-3.9.9z"/><path d="m1025.1 28.5c-1.3 0-2.7-1-3.7-1.6-3.1-1.6-6.2-4.6-8.5-7.7-1.7-2.4-2.6-5.3-4.7-6.9-1.8-1.4-4.3-2-6.3-3.2-3.3-2-7-4.3-9.5-7.2-2.3-2.6-1.9-7.2-2.7-10.8-.6-2.7-1.6-5.6-2.9-7.8-1.3-2.3-3.6-5.1-6.2-7-3.3-2.3-6.1-3.7-7.1-7 0-.4-1.2-.2-1 .1.9 3 5.3 4 8.5 6.2 2.7 1.9 4.6 5 6.1 7.5 1.3 2.4 1.2 5.4 1.8 8.2.8 3.5 2.2 7.3 4.4 9.8 2.4 2.8 5.8 5.2 9.1 7.2 2.1 1.2 5.2 1 7.1 2.4 2.1 1.7 2.6 5.4 4.4 7.8 2.2 3 5.4 5.3 8.3 6.8 2.8 1.4 6.5.8 10.3-.3 3.4-.9 6.5-1.4 9.3-.6.4.2.6 1 .2 1-2.6-.7-6.1-.8-9.4.1-2.6.7-5.2 3-7.5 3z"/><path d="m857.9 2033.3c-2.6-1-3.8-4.9-5.1-8-1.1-2.6-2-5.6-3.7-6.9-1.6-1.2-4.2-.8-6.1-1.6-2.7-1-5.1-2.8-7-5-3.3-3.9-6.7-7.6-8.8-11.8-1.4-2.8-1.4-6.1-1.5-9.1-.1-1.8.6-3.6.3-5.4.1-.3-.3-.3-.1 0 .4 1.8 1.1 3.5 1.2 5.3.1 3.1-.3 6.1 1 8.8 2 4.2 4.6 8.4 7.9 12.3 1.8 2.1 4.4 3.6 7.2 4.6 2 .7 4.3.7 6 1.9 1.9 1.4 2.7 4.2 3.8 6.8 1.3 3 3.2 5.7 5.5 6.6.4.5-.3 1.5-.6 1.5z"/><path d="m2159.2 2046.3c-1.6-5.3-3.9-11-7.6-15.9-3.1-4.1-7.2-7.6-11.5-10.5-.6-.4-1.8.3-2.4-.1-1.8-1.3-3.7-3.1-5.3-4.8-2.8-2.8-5.2-6.5-8.7-7.4-.2-.1-.4.5-.1.5 3.6 1 7.2 2.7 10.1 5.6 1.8 1.7 3 3.8 4.8 5 .6.4 1.5.2 2.1.6 4.3 2.9 8.7 6.3 11.9 10.5 3.8 5 5.8 10.8 7.5 16.2-.1.5-.7.5-.8.3z"/><path d="m1025.1 2044.5c-1.3 0-2.7-1-3.7-1.6-3.1-1.6-6.2-4.6-8.5-7.7-1.7-2.4-2.6-5.3-4.7-6.9-1.8-1.4-4.3-2-6.3-3.2-3.3-2-7-4.3-9.5-7.2-2.3-2.6-1.9-7.2-2.7-10.8-.6-2.7-1.6-5.6-2.9-7.8-1.3-2.3-3.6-5.1-6.2-7-3.3-2.3-6.1-3.7-7.1-7 0-.4-1.2-.2-1 .1.9 3 5.3 4 8.5 6.2 2.7 1.9 4.6 5 6.1 7.5 1.3 2.4 1.2 5.4 1.8 8.2.8 3.5 2.2 7.3 4.4 9.8 2.4 2.8 5.8 5.2 9.1 7.2 2.1 1.2 5.2 1 7.1 2.4 2.1 1.7 2.6 5.4 4.4 7.8 2.2 3 5.4 5.3 8.3 6.8 2.8 1.4 6.5.8 10.3-.3 3.4-.9 6.5-1.4 9.3-.6.4.2.6 1 .2 1-2.6-.7-6.1-.8-9.4.1-2.6.7-5.2 3-7.5 3z"/><path d="m1701.3 110.6c-.2 0-.4-.2-.5-.2-2.6-.2-5.2-2.1-7.3-4.1-1.6-1.5-3.2-3.1-5.1-3.7-.2-.2.4-1.3.7-1.3 1.9.7 3.7 2.4 5.3 4 2 1.9 4.2 3 6.5 3.1 2.5.2 4.8-.3 7.2-1.6 1.9-1 3.7-2.9 5.7-3.3 3.4-.6 6.7-.4 9.7-1.8.9-.4 1.4-1.6 2.3-2 1.6-.7 3.4-.6 5-1.1 2.7-.7 4.9-2.1 7.1-3.8.3-.1.2.1 0 .3-2.2 1.8-4.4 2.9-7 3.6-1.6.4-3.1 1.3-4.6 2-.9.4-2.1.1-3 .5-3 1.4-5.7 3.3-9.2 3.9-1.9.3-3.5 1.7-5.4 2.7-2.2 1.5-4.9 2.8-7.4 2.8z"/><path d="m3331.9 976.1c-2-2-5.1-3.5-8.3-4.3-2.5-.6-5.6.1-7.6-1.2-2.2-1.5-5-2.2-8.1-2.1-2.6.1-5.7 2.3-8 1.4-1.3-.5-1.5-3.6-2.7-4.1-3.1-1.4-6.5-2.1-10.1-2.8-2.4-.4-4.7-1.4-6.8-2.9-2.5-1.8-5-3.9-7.6-3.9 0 0-.1.7-.1.7-2.6 0-4.8 2.1-7.1 4.5-2 2.1-4.1 4.9-6.5 5.5-.4 0-.7-1.4-.3-1.6 2.2-.5 4.7-2.1 6.6-4.1 2.3-2.4 4.4-5.9 7.3-5.9 2.9-.1 5.3 2.9 7.9 4.7 2.1 1.4 4.3 3.6 6.5 4 3.7.7 6.4 2.2 9.5 3.6 1.2.5 2.9.1 4.2.6 2.1.8 4.7-1 7.2-1.1 3.1-.2 5.6 2.2 8 3.8 1.9 1.2 5 1.2 7.5 1.8 3.2.8 6.8 1.2 8.9 3.3.2 0-.1.3-.4.1z"/><path d="m215.1 632c-2.9 0-6.3-.9-9.1-2.7-2.2-1.5-3.9-4.3-6.2-4.7s-5.1-.1-7.7.4c-3.4.6-6.9 2.2-9.7.8-3.2-1.5-6.3-4-8.9-6.6-1.5-1.5-2.5-3.2-3.9-4.4s-2.8-2.5-4.5-3.6c-3.1-2.1-7.1-3.8-9.2-6.7-.1-.3.6-.6.9-.4 2 2.8 5.9 4.1 9 6.1 1.6 1.1 2.4 3.4 3.9 4.6s3.3 2.2 4.8 3.6c2.6 2.6 5.2 5.5 8.3 7 2.6 1.2 6.2-.1 9.4-.6 2.6-.5 5.3 0 7.7.4 2.4.5 5.3.8 7.6 2.3 2.8 1.8 5.3 4.7 8.2 4.5.3 0 .7 0 .7.4-.4-.1-1.2-.4-1.3-.4z"/><path d="m1207.7 1840.1c-.2 0-.3-1-.1-1 2.6-.3 4.6-1.8 6.9-3.2 1-.6 2.4-.7 3.5-1.2 3.1-1.5 5.2-4 8.3-7 .5-.5 1.5-.6 2.1-1.2 2.2-2 3.8-4.3 5.1-7 .1-.2.2 0 .2.2-1.3 2.8-2.7 5.1-4.9 7.2-.5.5-1.3.8-1.9 1.3-3.1 3-5.6 5.2-8.7 6.7-1.1.5-2.3.8-3.3 1.4-2.3 1.5-4.5 3.5-7.2 3.8z"/><path d="m1562.2 2037.8c-.7.1-1 .6-1.6.3-5.5-2.1-11.5-4.2-16.3-7.6-1-.7-1.5-2.2-2.5-3-4.3-3-8.4-6.3-11.7-10.3-3.9-4.6-7-10-9.7-15.4-.2-.5-.5-.4-.8-.9-1.6-3.3.2-7.3.7-11.1.4-2.8-.3-5.9-.8-8.5 0-.3.8-.5.9-.2.5 2.7.4 5.8 0 8.7-.5 3.9-1.3 7.4.3 10.5l.4 1c2.7 5.4 4.6 11.7 8.5 16.2 3.3 3.9 8.8 5.7 13.1 8.6 1 .7 1.3 2.6 2.3 3.3 4.8 3.4 10.7 5.2 16.1 7.3.6.2.7-.1 1.2.4.3.3.2.6-.1.7z"/><path d="m1562.2 21.8c-.7.1-1 .6-1.6.3-5.5-2.1-11.5-4.2-16.3-7.6-1-.7-1.5-2.2-2.5-3-4.3-3-8.4-6.3-11.7-10.3-3.9-4.6-7-10-9.7-15.4-.2-.5-.5-.4-.8-.9-1.6-3.3.2-7.3.7-11.1.4-2.8-.3-5.9-.8-8.5 0-.3.8-.5.9-.2.5 2.7.4 5.8 0 8.7-.5 3.9-1.3 7.4.3 10.5.2.5.2.5.4 1 2.7 5.4 4.6 11.7 8.5 16.2 3.3 3.9 8.8 5.7 13.1 8.6 1 .7 1.3 2.6 2.3 3.3 4.8 3.4 10.7 5.2 16.1 7.3.6.2.7-.1 1.2.4.3.3.2.6-.1.7z"/><path d="m3114.6 354.5c-.2.3-1-.1-.9-.5 1.9-3.9 4.8-7.9 7.5-11.3 1.6-2 4-3.1 6.4-4.5 1.6-.9 3.1-2.3 4.4-3.5 1.4-1.2 1.7-3.7 2.9-5.5 1.5-2.3 3.7-4.4 5.9-5.6s5.1-1.3 7.9-1.4c2.1-.1 4.3.5 6.1-.1 1.7-.5 3.1-2.4 4.9-3.5 2.4-1.5 4.9-2.1 7.4-2.3.4.1.7.3.3.5-2.4.2-5.2.9-7.5 2.3-1.8 1.1-3.5 2-5.3 2.6s-3.9.3-6 .4c-2.7.1-5.2 1.5-7.3 2.7-2 1.1-4 2.8-5.4 5.1-1.2 1.8-1.9 4.2-3.4 5.4-1.4 1.2-3 2.4-4.7 3.3-2.3 1.3-4.9 2.2-6.5 4.1-2.7 3.5-4.8 7.9-6.7 11.8z"/><path d="m2514.2 1737c-4.1-2.7-7-7.4-8.8-11-1.7-3.2-2-6.8-1.7-10.4.1-1 .1-2.1.1-3.1.1-.2.1.1.1.2 0 1 .8 2 .7 3-.2 3.6-1.3 7.4.3 10.5 1.8 3.5 5.5 7.7 9.5 10.3.1.1-.1.6-.2.5z"/><path d="m2820 1787.3c-.2.2-.6.2-.5-.1 2.1-3 2.8-6.4 2.6-10.5-.1-2.8.7-5.4 1.4-7.9s.1-5.6 1.3-7.8c1.9-3.5 4.3-6.2 4.1-9.9 0-.7.6-1.4.5-2.1-.3-5.8.1-12.1-2.1-17.2-.1-.2-.7-.1-.6.1 2.2 5.2 2.8 11.2 3.1 17.1 0 .7.2 1.4.2 2 .2 3.9-2.8 7-4.6 10.4-1.2 2.2-1.7 5-2.3 7.3-.7 2.5-1.5 5.3-1.4 8 .2 4 .5 7.5-1.7 10.6z"/><path d="m3074.9 1541c-.1 0-.3-.2-.2-.3.1-.3.5 0 .7-.2 3.3-2.8 6.5-6.1 10.7-7 3.5-.7 8.8-1.1 13.8.5.1 0-.1.8-.2.8-4.9-1.6-10.1-1.8-13.6-1.2-4.2.8-7.2 4.3-10.5 7.1-.3.3-.4.2-.7.3z"/><path d="m3448.4 1520.2c-.3-.1-.6-.2-.3-.3 1.9-.1 4.1-.3 6.2-.2 4.2.1 8.6.5 12.2-.7 2.9-1 5.7-3.8 7.7-6.9 1.7-2.6 3-5.4 5.2-6.8.7-.4.3-1 1-1.4 4.4-2.8 8.1-5.8 11.6-9.6 2.4-2.6 3.5-5.6 4.7-9 .7-1.9 2.1-3.7 3.1-5.6.2-.2.2-.1.1.3-1 1.9-.5 4.2-1.2 6.1-1.3 3.4-2.7 6.9-5.3 9.6-3.6 3.9-8.7 5.4-13.1 8.3-.7.4-.3 1-1 1.4-2.1 1.4-3.2 4.5-4.8 7-2.1 3.2-4.8 6.3-7.9 7.4-3.7 1.3-8.2 1.4-12.5 1.3-1.9 0-3.8-1.1-5.7-.9z"/><path d="m825.1 1752.1c-1.8-3.4-3.9-6.9-4.6-10.5-.4-1.7.5-3.8 0-5.5-.7-2.4-3.4-3.8-5.1-6.1-2.1-2.8-3-6.5-3.2-9.8-.2-3.2 1.9-6.3 4.2-9.2 2-2.4 5.1-4.7 5.4-7.2.4-3.5 1.2-6.2 2.6-9.1.9-1.8 1.1-3.9 1.8-5.9.8-2.3 1.4-4.5 1.4-6.9.1-3.1.5-5.8 2.2-8.7.3-.3-.4-.6-.5-.2-1.6 2.7 0 5.8-.1 8.9-.1 2.4-.9 4.9-1.7 7.3-.7 2.1-.7 4.5-1.6 6.3-1.4 2.8-2.7 5.1-3.1 8.4-.3 2.7-3.1 5.7-5.2 8.2-2.3 2.8-3.7 5.1-3.5 7.9.2 3-.2 6.7 1.9 9.4 1.7 2.3 3.9 4 4.6 6.5.5 1.8 1.2 3.5 1.5 5.2.8 3.7.6 7.5 2.3 10.8.3.7 1 .5.7.2z"/><path d="m3428.8 249c-5.3 0-10.7.1-14.6-.8-.3-.1-.1-.7.2-.7 5.2 1.1 12.8 1.2 19.6.3 4.3-.6 12.2-1.8 18.9-5.1 4.7-2.3 9.6-5.9 13.3-9.9.7-.8 1.1-2 1.8-2.8.3-.1.9.4.9.7-.7.7-2.3.9-3 1.7-3.7 4-7.7 8.5-12.5 10.9-6.8 3.4-14.7 6.2-19 6.8-1.8.4-3.8-1.1-5.6-1.1z"/><path d="m2973.3 299.5c-.5-1.2-.8-2.5-1.1-3.7-.9-2.9-2.1-5.6-4.2-7.9-2.8-3.1-6.2-5.7-10.1-7.9-1.1-.6-1.6-2.2-2.8-2.9-2.7-1.8-5.7-3.6-8.7-4.2-.2-.1-.3.1-.1.1 3.1.5 5.7 2.6 8.5 4.5 1.1.7 2.5 1 3.6 1.6 3.9 2.2 7.3 5.2 10.1 8.4 2.1 2.3 3 5.3 4 8.2.4 1.2.5 2.3.9 3.5-0 .3-0 .5-.1.3z"/><path d="m2551.4 352.7c-.2.1.1.3.2.2 2.3-1.5 3.3-4.8 4.6-7.5.8-1.7.9-4 2-5.4.9-1.2 1.9-2.4 2.9-3.6 2.1-2.3 4.5-4.3 5.5-7.2 1.2-3.8 1.3-8.3 1.2-13.7 0-.2 1.5-.2 1.5 0 .2 5.5-.2 10.3-1.4 14.1-1 3-3.6 5.4-5.7 7.7-1 1.1-1.8 2.4-2.7 3.6-1.1 1.4-2.1 2.9-2.9 4.7-1.2 2.8-2.8 5.5-5.2 7.1z"/><path d="m3636.2 1792.5c-.2.2-.8-.2-.6-.4 3.5-3.8 9.3-7.1 14.1-9.6 3.9-2 9-4.8 15.9-5.9 4.9-.7 11.2-.2 17 1 .2.1.1.7-.2.7-5.8-1.2-11.9-1.5-16.7-.8-6.9 1-12.4 2.5-16.3 4.5-4.7 2.5-9.7 6.8-13.2 10.5z"/><path d="m3106 1983c-2.3-5.4-2.8-10-3.2-15.8-.2-2.4-2.4-4.6-3.3-7-1.3-3.5-1.2-7.1-.3-10.5 1-3.7 3.4-6.5 6.1-9.4 1.5-1.6 2.2-4 3.4-5.7.2-.2.1.2 0 .4-1.2 1.7-2.3 3.4-3.8 4.9-2.7 2.8-5 6.1-6 9.6-.9 3.2.7 6.6 2 10 .9 2.4.6 5.1.8 7.6.4 6 2 10.6 4.3 15.9.1.2.1.2 0 0z"/><path d="m2634.1 1854.3c-3.2 0-5.6-3.5-8.3-5.8-2.3-1.9-4.9-3.8-7.4-4.3-1.9-.4-3.9 1-5.6.8-3.5-.4-6.8-1.8-10.3-3.6-.3-.2.1-.8.4-.7 3.4 1.7 6.8 1.3 10.2 1.8 1.7.2 3.7 0 5.6.4 2.7.6 5.4 3 7.7 4.9 2.7 2.3 4.7 6 7.7 6 .1 0 .1-1.5.2-1.5 3.1-.1 5.1-2.4 7.8-4.8 2.2-1.9 4.8-4.1 7.3-4.8s5.7.2 8.5.6c3.5.5 6.9 1.3 9.6-.3.3-.1 0-.4-.2-.2-2.8 1.7-5.8.5-9.3.1-2.7-.4-5.6.9-8 1.6s-5.6 1.4-7.7 3.2c-2.7 2.3-4.6 4.6-7.9 4.7-.2 0-.2 1.9-.3 1.9z"/><path d="m2569.3 1418.7c-.1.2.1.2.1 0 2-4.7 2.8-9.1 2.3-14.1-.6-5.8-2.2-9.9-4.8-13.6-.1-.2.4-.4.5-.3 2.6 3.7 3.9 8 4.5 13.9.5 5.2-.5 9.3-2.6 14.1z"/><path d="m3537.3 1982c-2.2 0-4.5-.4-6.5-1.2-1.7-.7-3.4-1.4-5.3-1.6s-4-1-6-.5c-2.6.6-5.4 2.7-7.9 1.7-.3-.2.3-1 .6-1 2.3.9 4.8.3 7.4-.3 2-.5 4.1-1.9 6.1-1.7 1.9.2 3.5 2.2 5.3 3 2.4 1 4.9 1.5 7.3 1.2 1.7-.2 3.5 0 5.2 0 2.8 0 5.5-.9 8-1.9 3.5-1.4 7.8-2.6 12.2-5.9.3-.2.7.3.5.5-4.5 3.4-8.3 5.9-11.9 7.4-2.6 1-5.9 0-8.8 0-1.7 0-3.4.5-5.1.7-.4 0-.7-.4-1.1-.4z"/><path d="m3794.1 1635.6c-5.2 0-9.7-1.7-13.8-3.9-5.4-3-9.2-5.7-11.5-9.3-.1-.1.5-.5.6-.4 2.2 3.6 5.5 7 10.8 9.9 4.1 2.2 8.7 3.4 13.9 3.4.1 0 .6-.4.6-.4 0 .2-.7.2-.8.4 0-.1.2.3.2.3z"/><path d="m4265 1756.4c-.1 0-.1-.2 0-.2 4.6-.4 8.6-3.5 11.2-8.7 0-.1.4.1.4.2-2.7 5.2-6.9 8.3-11.6 8.7z"/><path d="m4232 1832.3c-.2.1-.6-.2-.4-.4 2.6-1.4 5.8.3 8.7.7 2 .3 4.1-.3 5.9-.6.4-.1.4-.2.8-.3 4.3-.6 8.1-1.4 12.5-.6 1.9.4 4.3 1.2 6.5.8 3.1-.6 5.7-1.4 8.1.1.2.2.4.3.1.2-2.3-1.3-5.3-1.1-8.3-.6-2.3.4-4.8 1.5-6.8 1.2-4.3-.8-7.8-.8-12-.2-.4.1-.4.5-.8.5-1.9.3-4.2.2-6.2 0-2.8-.4-5.6-2-8.1-.8z"/><path d="m1949.5 1784.3c-2.6-2.4-5.8-3.5-9.4-4.6-1.7-.5-3.3-1.3-5-2-2.1-.9-3.9-2.8-5.8-4.5-2.6-2.3-5.7-4.5-8.7-4.7s-6.2 1.8-9 3.9c-2.1 1.6-4 3.3-6.3 4-.3 0 .1.6.3.5 2.2-.6 3.6-3.4 5.6-4.9 2.9-2.2 6.2-4.5 9.4-4.3s6.2 3 8.8 5.3c1.9 1.7 4 2.8 6.1 3.6 1.6.7 3.2 1.6 4.9 2.1 3.4 1 6.8 2.5 9.5 5 .3.4-.2.7-.4.6z"/><path d="m4125 250.3c-.6 0-1.2 1.5-1.8 1.4-3.9-.4-6.9-2.8-10.1-4.6-1.3-.7-2.7-1.2-4.2-1.8-1.9-.9-3.9-2-5.9-2.4-3.3-.7-6.3-1.3-8.7-3.7-.2-.2-.7.3-.5.5 2.3 2.3 6 1.8 9.3 2.5 2.1.5 4.3 1.1 6.3 2 1.4.7 2.6 1.8 3.9 2.5 3.2 1.7 6.3 3.6 10.1 4 3.7.4 7.2-.1 10.6-1.2 1.5-.5 2.8-2.4 4.4-2.8.3 0 .5 1.5.3 1.6-1.6.4-3.4.2-4.9.7-3 .9-5.7 1.3-8.8 1.3z"/><path d="m3656.6 108.7c-3.2-1.3-5.3-5.2-7.9-7.7-1.4-1.3-2.8-2.5-4.2-3.6-2.4-1.9-4.9-4-6.2-6.8-.9-2-1.1-4.3-2.4-6s-3.7-2.6-5.7-3.9c-2.7-1.7-5.7-3.8-6.9-6.5-1.5-3.4-1.3-7.6-1.7-11.4-.2-1.6.5-2.8.2-4.2.1-.3.1-1 .3-.7.2 1.5-.5 3.4-.4 4.9.4 3.8 2 7.3 3.5 10.5 1.1 2.5 2.9 4.9 5.5 6.6 2.1 1.3 4.5 2.4 5.9 4.2 1.3 1.7 2.7 3.6 3.6 5.7 1.3 2.8 1.6 6.4 3.9 8.2 1.4 1.1 3.3 1.8 4.6 3.1 2.6 2.4 5.4 4.9 8.4 6.2.6.4-.1 1.5-.5 1.4z"/><path d="m1169.7 1961.4c-1.9-.5-3.9-1.3-5.8-1.5-3.2-.4-6.1-1.4-9-2.9-3-1.5-6.1-2.8-8.5-5-1.4-1.3-2.7-2.6-4.2-3.7-1.6-1.2-2.7-3.4-4.5-4.4-2.8-1.6-5.8-2.6-7.9-5-3.1-3.6-6.2-7.5-8.6-11.7-.3-.5-.6-.3-.9-.8-2.2-3.9-3.6-8.4-5-12.6-.2-.7-.2-1.9-.4-2.6.2-.3 1.1-.5 1.5-.4.2.7 1 1.6 1.2 2.3 1.3 4.2 2.6 8.4 4.8 12.1.3.5 0 .6.3 1.1 2.4 4.2 5.1 8.1 8.2 11.7 2 2.3 3.7 5.2 6.4 6.8 1.8 1 3.6 2 5.2 3.3 1.5 1.1 3.7 1.5 5.1 2.8 2.4 2.2 4.4 5 7.3 6.4 2.8 1.4 6 1.6 9.2 2 2 .2 4.2.4 6.1.8.3.3-.1 1.3-.5 1.3z"/><path d="m691.1 1930.9c-.2 0-.2-1.6-.4-1.6-3.2-.2-7-.2-10.2-2-2-1.1-3-3.5-4.9-4.1-.2-.2-.5-.3-.2-.3 1.9.7 3.9 1.8 6 2.9 3.1 1.7 6.2 3.1 9.3 3.4 2.7.2 6.1-.3 9-2.1 2.3-1.4 4.1-4.7 6.4-5.1 2-.3 4.4.4 6.5.4 3.2 0 6.5.1 9.3-1.1 2.5-1.1 3.1-4.3 4.4-7.3 1.1-2.5 2.5-5.8 4.4-7.3.3-.1.6.8.4 1.1-1.8 1.4-2.2 4.4-3.3 6.8-1.3 3.1-3.2 5.6-5.9 6.8-2.9 1.3-6.1 2.4-9.4 2.4-2.1 0-4.4-1.2-6.3-.9-2.2.4-4.5 2.3-6.8 3.7-2.7 1.8-5.5 4.3-8.3 4.3z"/><path d="m478.6 1764.9c-2.7-2.7-6.9-4.1-10.5-6.1-1.7-1-3-2.2-4.5-3.1-1.7-1.1-2.5-3.5-4.3-4.8-3-2.4-7.3-3.2-10.6-4.5-1.6-.6-3.1-1.8-4.9-2.6-3.9-1.8-7.7-4.9-11.5-5.6-2.8-.5-7.1 2.1-10.2 4.4-2.9 2.2-5.1 6.1-7.9 6.2-1.2 0-2.4.1-3.5.1-4.3 0-8.3-1.5-12.6-.5-.4 0 .1 1.7.5 1.5 4.4-1 7.8-3.1 12.2-3.1 1.2 0 2.3-.3 3.5-.3 2.5 0 4.6-2.4 7.5-4.5 3.3-2.5 7.4-3.2 10.5-2.6 3.9.7 7.6 3.1 11.5 4.9 1.7.8 3.7 1 5.3 1.7 3.4 1.4 6.2 4 9.3 6.4 1.7 1.4 4.7.9 6.4 2 1.5 1 3 1.8 4.6 2.7 3.6 2.1 5.9 6.3 8.7 9.1-.2-.1.8-1.1.5-1.3z"/><path d="m26.9 1860.1c-3.4 0-6.5-.8-9.7-1.8-2-.6-4.4 0-6.5-.4-4.4-.8-8.2-2.3-11.9-4.2-1.3-.7-2.6-1.6-4.1-2.3-.4-.2.4-1.8 0-2-5.1-2.4-10.1-3.2-14.6-6.8-2.1-1.7-4.9-3.7-8.1-4.3-4-.7-7.5-.8-9.5-3.6-.1-.3-1.1.4-.9.6 1.8 2.6 6.5 1.9 10.4 2.6 3.3.6 6.5 2.1 8.7 3.9 4.4 3.6 9.2 4.6 14.3 6.9.4.2-.5 2.1-.1 2.3 1.5.7 3 1.1 4.3 1.8 3.7 1.9 7.6 2.3 11.8 3.1 2.2.4 4.3 1.2 6.3 1.9 3.6 1.2 7 1.9 10.8 1.6.3 0-.5.9-.7 1.2-.4.1-.1-.5-.5-.5z"/><path d="m4787.4 1145.7c-1.5-1.5-2.3-3.8-3.4-5.7-1.7-2.8-3.8-4.9-6.6-6.2-2.6-1.2-5.2-.3-8.4.5-2.3.6-4.9-.4-7.1-.7-2.2-.2-4.4-.6-6.6-1.6-3-1.4-5.9-3.1-8.7-2.5-.3 0-.5-.4-.3-.5 3-.7 6.5.6 9.4 2 2.1 1 4 2.3 6.1 2.5s4.5-.1 6.8-.6c3.2-.8 6.6-1.9 9.3-.6 2.9 1.3 4.5 4.5 6.2 7.4 1.1 1.8 2.6 3.6 4 5 .3.6-.5 1.1-.7 1z"/><path d="m4778.9 1860.1c-3.4 0-6.5-.8-9.7-1.8-2-.6-4.4 0-6.5-.4-4.4-.8-8.2-2.3-11.9-4.2-1.3-.7-2.6-1.6-4.1-2.3-.4-.2.4-1.8 0-2-5.1-2.4-10.1-3.2-14.6-6.8-2.1-1.7-4.9-3.7-8.1-4.3-4-.7-7.5-.8-9.5-3.6-.1-.3-1.1.4-.9.6 1.8 2.6 6.5 1.9 10.4 2.6 3.3.6 6.5 2.1 8.7 3.9 4.4 3.6 9.2 4.6 14.3 6.9.4.2-.5 2.1-.1 2.3 1.5.7 3 1.1 4.3 1.8 3.7 1.9 7.6 2.3 11.8 3.1 2.2.4 4.3 1.2 6.3 1.9 3.6 1.2 7 1.9 10.8 1.6.3 0-.5.9-.7 1.2-.4.1-.1-.5-.5-.5z"/><path d="m3720 1196.9c-2.5-.6-5.5-1.5-8.4-1.4-4.4 0-9 .2-12.3-2.1-5.4-3.6-10.3-9.7-14.5-15.1-4.3-5.6-7.2-12.4-9.1-18.4-.1-.3-1 0-.8.3 1.9 5.9 6.5 12.2 10.7 17.6 4.1 5.4 8.9 11.4 14.2 14.9 3.2 2.1 7.5 2.8 11.9 2.8 2.9 0 6.4-1.1 9-.5.5.3-.4 1.9-.7 1.9z"/><path d="m3232.1 748.2c-.1 0-.1.1 0 0 7.9-1.5 14.1-5.8 16.2-11.4 0-.1.1-.1.1 0-2.1 5.7-8.3 9.8-16.3 11.4z"/><path d="m2844.7 1011.3c-2.8 0-5.9-2.4-8.7-4.2-2.6-1.6-5-2.8-7.4-3-2.3-.1-5.2-1.7-7.7-1-3.3.9-5.6 2.1-8.6 1.2-.3-.2-.8 1.1-.4 1.1 2.8.8 6.3.2 9.5-.7 2.6-.7 5-3.5 7.4-3.3 2.6.2 4.8 3.7 7.4 5.3 3 1.9 6.4 1.8 9.1 1.4 2.6-.4 4-3.3 5.8-7.1 1.8-3.9 3.7-8.7 6.2-9.6 2.2-.7 4.7-.8 6.8-1.1 2.9-.4 6.4 1.5 9.1-.1 2.2-1.3 4.4-2.8 7.1-3.1 3.3-.4 6.8.1 8.8-1.8.4-.2.6-.3.4.1-2.3 2.1-5.9 1.2-9.2 1.5-2.7.3-4.8 2.7-6.8 3.9-2.8 1.6-6.4.1-9.3.5-2.1.3-3.7 2.6-5.8 3.3-2.3.8-4.7 3.3-6.4 6.8-1.9 4-3.5 8.4-6.5 8.8-.2.2-.5 1.1-.8 1.1z"/><path d="m2513.2 999c-3.4-2.6-6.3-5.5-8.3-10.4-.2-.5.1-1.2-.1-1.7-1.7-3.9-3.1-7.4-2.7-11.6 0-.1.2-.1.2 0-.4 4.1 1.3 7.6 3 11.4.2.5-.3 1.2 0 1.7 2 4.8 4.9 7.5 8.3 10.1 0 .2-.3.6-.4.5z"/><path d="m1779.4 1494.9c-1.8-3.2-5.8-4.9-8.9-7.4-.6-.5-.9-1.5-1.5-2-.4-.3-.7-.8-1.1-1.1-3.1-2.6-6.6-5.4-10.3-6.8-3.4-1.3-7.3-1.9-11.2-1.9-.9 0-2 1-2.9.9-.2-.1.3-.7.5-.8.8 0 1.5.1 2.4.1 3.9 0 7.7.3 11.2 1.7 3.8 1.5 7.3 4.1 10.3 6.8.4.3.7.7 1.1 1 .6.5 1.9.3 2.5.8 3.1 2.5 6.3 5.4 8.1 8.6.2 0-.1.3-.2.1z"/><path d="m1280.4 1368.3c-2.6-4.4-4.2-8.5-7.3-12-1.5-1.7-3-3.8-3.9-6.1-1-2.7-1.6-5.8-3.6-7.3-3.6-2.6-8.7-3.6-12.7-5.4-.5-.2.3-2-.2-2.2-2.2-1-5.8.1-8.7 1.2-2.7 1-4.9 1.7-7.2 1.2s-5.4-1.4-7.3-3.8c-2.1-2.6-3.8-5.1-6.2-5.2-.4-.1-.2-1.8.2-1.9 2.7.1 4.4 3.9 6.6 6.6 1.9 2.3 4.6 4.4 6.6 4.9 2.1.5 4.8-1 7.3-1.9 3.1-1.1 6.7-3 9.1-1.9.5.2.4.6.9.8 4.1 1.9 8.5 4.4 12.2 7 2.2 1.6 3.3 4.7 4.4 7.5.9 2.3 1 5.3 2.4 6.8 3.2 3.5 5.4 6.7 8 11.1 0 .7-.4.9-.6.6z"/><path d="m967.2 1721c-3.7 0-7.7-1.9-11.3-3.7-2.2-1.1-4-3.5-6.3-4.1-5.5-1.6-10.6-3.8-16.3-7.7-1.7-1.2-3.6-2.3-5.5-3.3-3.7-2-8.3-3.7-10.7-7.1-.1-.2.6-.5.7-.4 2.4 3.3 6.3 5.5 10 7.5 1.9 1 4.4 1.1 6.2 2.3 5.7 4 10.4 6.3 15.9 7.9 2.3.7 4.3 2.7 6.6 3.8 3.7 1.9 7.5 3.9 11.4 3.7.3 0 .8.3.7.5-.3 0-1.1.6-1.4.6z"/><path d="m552.8 1851.5c-.1.2.1.2.1 0 .7-3.1-2.4-6.2-4.3-9.5-1.4-2.5-3-5.3-3.3-7.7-.3-1.9.5-3.9.4-5.7-.2-3.8-1.1-7.1-2.8-10.5-2-4-5.1-6.6-8.5-9.6-.8-.8-1.6-2-2.4-2.8-.1-.2.3 0 .6.1.8.8 2.1.8 2.9 1.6 3.4 3.1 6.4 6.2 8.4 10.3 1.7 3.5 1.9 7.3 2.1 11 .1 1.8.3 3.7.5 5.5.3 2.4 1.7 4.9 3.1 7.3 2 3.2 3.8 6.7 3.2 10z"/><path d="m186.6 1304.5c-2.7 0-5.8-1.1-8.6-2.7s-5.5-4.4-8-4.3-5.5 1.5-8 3c-3.2 1.8-5.9 4.1-9.1 3.4-.3-.1-.3.6 0 .6 2.9.7 6.3-1.3 9.5-3.2 2.6-1.5 5-3.6 7.6-3.7 2.7-.1 5.3 2.3 8.2 3.9 3.2 1.9 7.2 3.9 10 3 3-.9 4.4-5.1 6.8-7.7 1.8-2 4.9-2.7 7-4 2.2-1.3 5.2-1.1 8.2-1.5 3.7-.5 7.4-2.1 9.5-4.3.3-.2 1.6.8 1.4 1.1-2.3 2.3-7.3 1.9-11.1 2.5-2.9.4-6.1.8-8.2 2.1-2.1 1.2-3.4 3.8-5.2 5.8-2.5 2.7-5.7 4.1-8.9 5-.4 0-.6 1-1.1 1z"/><path d="m1588.7 1286.4c-2.2-1.8-3.2-4.4-4.1-7.3-.6-1.9-2.2-3.3-3.1-4.9-.8-1.3-1.1-3-2-4.3-1.9-2.5-3.7-5-4.4-8-.6-2.7.4-5.4 1.6-8 .9-1.8 1.6-3.8 1.8-5.6.1-.2.6 0 .6.2-.2 1.9-1.1 3.8-1.9 5.7-1.3 2.6-2.4 5.2-1.9 7.7.6 2.9 3.1 5 5 7.5 1 1.3 2 2.6 2.9 3.9 1 1.6 1.5 3.7 2.1 5.7.9 2.9 1.2 6.3 3.3 8 0-.1.3-.5.1-.6z"/><path d="m3054.9 653.5c-.2 0-.4-.7-.2-.8 4-1.3 7.4-4.4 10.8-7.2 1-.8 2.4-1 3.3-1.7 1.4-1.1 2.7-2.5 4.5-3.6 3.3-2.1 7.1-4 9-7 3.4-5.2 4.8-12.6 5.7-16.3.1-.2.7-.1.7.2-.9 3.7-2.8 10.9-6.3 16.2-2 3.1-5.9 4.7-9.2 6.8-1.7 1.1-3.3 2.2-4.7 3.3-.9.7-1.6 1.8-2.6 2.6-3.4 2.9-6.9 6.1-11 7.5z"/><path d="m4675.4 290.5c-.2.1.1.6.3.4 1.5-1 2.9-1.6 4.5-2.3 2.7-1.2 5.4-2.3 7.1-4.6 1.1-1.4 2.2-3.1 3.7-4.4 2.3-2.1 4.9-4.3 5.8-6.9.9-2.7-.4-6-1-9.2-.4-1.9-.2-3.8-.3-5.5 0-.2.4-.2.4 0 .1 1.7.2 3.5.6 5.4.6 3.3 1.7 6.7.8 9.5s-3.5 5.1-5.9 7.3c-1.5 1.4-3.1 2.5-4.1 3.9-1.8 2.4-4.3 4.1-6.9 5.2-1.5.6-3.6.2-5 1.2z"/><path d="m4120 1394.2c-.1.1-.2 0-.1-.1 5.8-6.8 12.9-13.1 20.2-16.9 8.5-4.5 17.2-5.4 24.9-4.2.1 0 0 .6-.1.6-7.6-1.2-15.7.5-24.1 4.9-7.2 3.8-14.9 8.9-20.8 15.7z"/><path d="m1507.8 1457.9c-.6 0-1.3.6-1.8.4-.2-.3 0-1.1.3-1.1 2.4.5 5.4.8 8.1-.1 2-.6 3.8-1.6 5.6-1.7 2.6-.1 5.2-1 7.7-2.2 1.5-.7 2.7-2.6 4.3-3.1 4.1-1.3 8-2 11.7-4.3 3.4-2 6.6-4.1 9.2-6.9.4-.4-.5-1.5 0-1.7.3-.1 1.1.6 1.1.9-.1.5-1.2 0-1.5.3-2.7 2.8-5.4 5-8.9 7.1-3.8 2.3-6.8 5.1-11 6.4-1.6.5-3.3.6-4.8 1.3-2.4 1.2-5 2.1-7.7 2.3-1.8.1-3.6 1.1-5.6 1.8-2.2.7-4.6.6-6.7.6z"/><path d="m2408.4 829.2c-4.2-3.5-8.2-9.6-7.2-16.2 0-.1.1-.1.1 0-.9 6.6 3 12.8 7.1 16.2.1.1.1.1 0 0z"/><path d="m2218.4 1818.7c-.2.3-1.4.2-1.4-.2.7-2.2.8-4.9-.2-7.5-.8-2.1-1.2-4.1-1.1-6.1 0-1.5-.2-2.9 0-4.4.3-2.9 1.1-5.8.5-8.5-.9-3.9-3.8-7.2-6-11.5-1.1-2.2-2.5-3.5-4.7-4.9-1.6-1-3.9-2-5.1-3.4-.1-.3.8-.5 1.1-.4 1.2 1.3 2.6 2.6 4.2 3.6 2.2 1.3 4.7 2.1 5.8 4.4 2.1 4.3 4.4 8 5.2 12 .6 2.9-.3 5.9-.6 8.7-.2 1.4-1 2.8-1 4.3-.1 1.9 2.1 3.7 2.8 5.7 1.1 2.7 1.2 5.8.5 8.2z"/><path d="m4718.5 1403c-3.1 0-6-1.6-9-2.9-1.3-.6-3-.6-4.3-1.1-.1-.1.1-.2.2-.2 1.3.5 2.9.4 4.3 1 3.5 1.6 6.9 3.6 10.4 3 5.1-.9 10.1-4.2 13.8-7.2.1-.1.5.4.4.5-3.7 3-9.1 5.6-14.2 6.5-.6 0-1.1.4-1.6.4z"/><path d="m4344.7 1618.7c-3.2-5-7.9-9.8-12.6-13.5-4.4-3.4-10.2-7.3-16-9.3-6-2.1-12.5-3.1-18-3.1-.1 0-.4-.8-.5-.8-.1-.3.4-.3.5-.5.1 0-.1-.1 0-.1 5.6 0 12.6.7 18.6 2.8 5.8 2.1 11.1 7.3 15.6 10.8 4.8 3.7 8.9 8.7 12.1 13.8.1.3.4.2.3-.1z"/><path d="m4009.8 1410.4c0 .1.1.1 0 0 .7-4.9 3.9-9.6 8.4-11.6.1 0 .2.2.1.2-4.4 1.9-7.8 6.5-8.5 11.4z"/><path d="m3535.3 796.9c-.4.1.4.3.6 0 1.9-1.6 3.2-3.3 5.6-4.3 3-1.2 6.1-2.2 7.8-4.5 1.9-2.6 3.3-5.8 4.3-9 .7-2-.1-4.7.8-6.6 1.7-3.6 4.6-6.6 5.5-10.6.3-1.3-.7-2.9-.4-4.2.8-3.1.8-6 .5-9.1-.2-2.1-1.3-4.2-1.2-6.4.1-2.6 3.5-4.8 5.2-7.4 1.9-2.9 4.6-6.1 4.2-8.8 0-.4-2-.1-1.8.3.5 3 .1 5.8-2 8.8-1.7 2.5-3.2 4.8-3.3 7.2-.1 2.1.8 4 1 6.1.3 3.1-.1 6.6-.9 9.8-.3 1.3-2.2 2.2-2.5 3.5-.9 3.8-.4 8.2-2.2 11.9-.9 1.9-3.1 3.4-3.7 5.4-1 3.2-1.5 6.5-3.5 9.2-1.9 2.5-4.6 3.8-7.6 5-2.4.8-4.6 2.2-6.4 3.7z"/><path d="m4617.1 507.4c-3 0-6.3 0-9.3-1.5-2.3-1.2-4.3-2.8-6.4-3.2-3.2-.6-5.4-3.3-8-5.1-1.7-1.3-3.5-2.9-5.4-3.8-2.1-1-5.2.2-7.8.1-3.4-.1-6.8-.7-9.2-2.6-2.3-1.9-3.3-5.4-3.8-8.9-.4-2.8-.4-5.7-1.8-7.6-.1-.3.4-.6.7-.4 1.5 2 1.7 4.9 2.1 7.8.4 3.3.4 7.6 2.5 9.3 2.2 1.8 6.2 1.3 9.5 1.5 2.7.1 5.9-.8 8 .2 2 .9 3.7 2.7 5.4 3.9 2.6 1.9 4.9 3.7 7.9 4.3 2.2.4 4.1 2.8 6.4 4 3.1 1.6 6.8 1.6 9.8 1.4.3 0-.7 1-.8 1.3-.2 0 .4-.7.2-.7z"/><path d="m1043.4 520c-.2 0-.5-.4-.3-.5 1.1-.4 2.2-1 3.3-1.4 3.8-1.1 7.9-1.7 10.9-4 2.8-2.2 4.3-5.9 6.2-9 .7-1.2 2.2-1.9 2.9-3 1.1-1.6 2.1-3.6 3.6-5.1 2.4-2.4 4.9-4.7 5.6-7.7.1-.2.8-.1.8.2-.7 3.1-3.6 5.5-6 7.9-1.5 1.5-3 3.1-4 4.6-.7 1.1-1 2.6-1.7 3.7-1.9 3.2-4.6 6-7.5 8.2-3.1 2.4-6.8 3.7-10.6 4.8-1.1.4-2.1.9-3.2 1.3z"/><path d="m4015.9 1768.9c-.2.1-.7-.5-.5-.6 2.7-1.8 5.4-3.6 7.2-6.4.6-.9 1-2 1.6-2.9 2.1-2.8 3.4-5.8 4.3-9 .2-.8.5-1.6.8-2.5.5-1.6 1.2-3.2 2-4.6 1.4-2.5 1.8-5.1 1.7-7.8 0-.2 1.3-.2 1.4 0 .1 2.8-2.2 5.1-3.5 7.5-.8 1.5-.7 3.4-1.2 5-.3.8-1.2 1.5-1.5 2.3-1 3.2-1.1 6.7-3.3 9.6-.7.9-1.5 1.7-2.1 2.6-1.9 2.7-4.1 4.9-6.9 6.8z"/><path d="m1522.4 666.4c-.4.1-1.2-.5-1-.8 1.8-1.6 4.4-2.9 6.6-3.9 2.9-1.3 6.7-1.3 8.5-3.6 3.1-4.1 4.1-9.6 6.5-14.7 1.2-2.6.7-5.1.4-8.2-.2-2.5 0-5.3.6-7.7.7-2.7 4.3-5.6 8-7.8 3.6-2.2 6.7-3.7 6.9-6.3.2-4.5 1.6-10.2.8-15.1-.2-.9-1.6-1.7-1.7-2.6.2-.3 1.5-1.2 1.8-1 .1.8-.3 2.7-.1 3.6.8 4.9 2.1 10.5 1.9 15.2-.1 3-4 6.4-7.8 8.8-3.4 2.1-6.7 3.4-7.3 5.8-.6 2.3-1.1 4.6-.9 7 .2 3.1.1 6.1-1.3 8.9-2.5 5.2-3.8 10.6-6.9 14.7-1.9 2.5-5.5 3.8-8.3 5.1-2.3.9-4.9 1.1-6.7 2.6z"/><path d="m4583.5 1884.3c-3.2 0-6.5-.6-9.4-2.1-2.3-1.2-4.3-3.2-6.6-3.7-5.6-1.1-10.6-1.8-16-4.3-2.3-1.1-5-2.1-7.8-2.2-3.7-.1-7.2-.3-9.8-2.4-2.7-2.2-3.9-5.5-5.1-9-.9-2.5-3.3-4.5-4.7-6.4-.1-.3 1.1-.7 1.3-.5 1.5 2 1.7 4.7 2.6 7.2 1.2 3.4 4 5.8 6.5 7.9 2.4 2 5.5 3.6 9.1 3.7 2.9.1 6-.5 8.3.6 5.3 2.5 10 4 15.6 5.1 2.5.5 4.5 2.3 6.8 3.6 3.1 1.6 6.7 1.9 9.9 1.6.3 0-.5.8-.6 1.2-.2-.1.2-.3-.1-.3z"/><path d="m1455.9 745.6c-3.5 0-6.7-1.3-10-3.1-2.2-1.2-4.3-2.6-6.5-3.2-.2-.1-.3 0 0 0 2.3.6 4.7 1.5 6.8 2.7 3.4 1.8 6.7 3.1 10.3 2.8 3.5-.3 6.9-1.5 9.9-3.8 2.1-1.6 3.8-4 6-5 1.3-.5 2.6-.9 3.9-1.4 4.2-1.6 8.3-2.8 11.7-6 .2-.1 0-.4-.2-.2-3.4 3.2-7.2 4.6-11.5 6.2-1.2.5-2.5.9-3.8 1.4-2.2.9-4.5 2.6-6.6 4.2-3 2.4-5.7 4.5-9.4 4.8-.2.3-.4.6-.6.6z"/><path d="m1475.9 1736.4c-1.7 0-3.6 1.8-5.4 1.6-2.8-.4-5.9-3.1-8.2-2.4-3.1.9-5.8.8-8.8.1-2.1-.4-4.5-.7-6.7-.6-.1 0-.1-.1-.2-.1-5.5.2-9.5 1.1-14.8-.1-.3-.1-.2.2.1.3 5.2 1.2 9.3.1 14.7-.2.1 0 .1-.7.2-.7 2.3-.1 4.7.6 6.9 1 3.1.6 6.1 2.5 9.1 1.6 2.4-.7 5.3-1.9 8.2-1.5 3.5.5 7.5 2.6 10 1.1 1-.6 1.9-1.4 3-2 4.1-2.3 7.8-6.2 10.8-9.3.3-.2 1.2 1 1.1 1.2-3.1 3.1-8.1 5.2-12.2 7.5-1.1.6-2.2 1.2-3.1 1.8-1.6.8-2.9.7-4.7.7z"/><path d="m4593.2 1252.3c-1.9-1.5-1.9-4.4-2.5-7.1-.4-1.9-1.1-4.1-1.9-5.5-2.3-3.8-4.5-6.8-5.3-10.6-.3-1.4-.8-2.9-1.4-4.3-1-2.6-1.9-5.3-1.6-8 .1-.2.9-.1 1 .1-.3 2.6.7 5 1.7 7.5.6 1.4 0 3.2.4 4.7.8 3.8 3.5 6.6 5.7 10.3.9 1.5 1.4 3.7 1.9 5.7.6 2.7.6 5.5 2.4 7 0 .1-.2.3-.4.2z"/><path d="m4692.1 829.9c-2.4-.2-4.4-3.4-6.2-6.1-1.6-2.4-3.2-5.1-5-5.6-1.7-.5-3.7-.6-5.6-.6-2.4 0-5.3 1.1-7.5-.1-2.3-1.2-3.9-3.5-5.5-5.4-1.1-1.4-2.1-2.8-3.4-3.9-1.5-1.2-3.4-2.1-5.5-2.6-2.6-.6-5.1-1.2-6.6-3.1-1.6-1.9-2-4.6-1.7-7.4.2-2.4.3-4.7-.6-6.4 0-.4 1-.7 1.3-.5 1 1.9.7 4.5.5 6.9-.2 2.8-.2 5.2 1.1 6.8 1.4 1.7 3.7 1.9 6.3 2.6 2.2.5 4.9.9 6.5 2.1 1.4 1.2 1.4 3.9 2.5 5.3 1.6 1.9 3.7 3.3 5.8 4.4s4.4 1.6 6.9 1.6c1.9 0 3.7-.1 5.6.4 2.1.6 3.5 2.9 5.2 5.4 1.7 2.6 4.3 4.3 6.4 4.4.4.2-.1 1.7-.5 1.8z"/><path d="m4037.2 884.5c-4.9-1.8-9.4-4.3-12.9-7.2-3.4-2.8-6.6-6.7-9.4-11.3-1.8-2.9-1.6-6.5-2-9.7-.2-1.5-1-3-1.3-4.4 0-.2.7-.3.8-.1.3 1.5.5 3 .7 4.5.4 3.2.8 6.5 2.5 9.3 2.8 4.5 5.8 8.2 9.2 11s7.7 5.3 12.5 7.1c.6.1.1.9-.1.8z"/><path d="m3940.4 256.2c0 .1-.2.1-.2 0 .6-6.3-1.7-11.8-6.7-15.6-.1-.1-.1-.1 0 0 5 3.8 7.5 9.2 6.9 15.6z"/><path d="m0 0h4752v2016h-4752z" fill="none"/></svg>